<svg width="38" height="44" viewBox="0 0 38 44" fill="none" xmlns="http://www.w3.org/2000/svg">
<path d="M20.0014 43.4772V21.0148C20.0793 21.0112 20.1438 21.0063 20.2089 21.0063C23.3417 21.0063 26.4744 21.0013 29.6071 21.007C32.8759 21.0127 35.646 23.1963 36.3741 26.3439C36.792 28.1493 36.4846 29.8088 35.3159 31.2764C35.1721 31.457 35.0014 31.6156 34.8343 31.7941C34.8966 31.8302 34.9532 31.8635 35.0099 31.8968C36.4803 32.7482 37.28 34.0337 37.4379 35.713C37.5696 37.1119 37.3614 38.4683 36.7721 39.7467C35.8216 41.8071 34.1805 42.9765 31.9657 43.3512C31.4366 43.4404 30.892 43.4709 30.3544 43.4723C26.9886 43.4829 23.6222 43.4779 20.2564 43.4779H20L20.0014 43.4772ZM25.5352 38.3245C25.5841 38.3316 25.6294 38.3443 25.674 38.3443C27.1593 38.345 28.6446 38.3472 30.1291 38.3429C30.5718 38.3415 30.9656 38.1991 31.2836 37.879C31.817 37.3428 31.9735 36.41 31.6583 35.6429C31.3616 34.9198 30.7985 34.567 29.9372 34.5663C28.5454 34.5656 27.1537 34.5663 25.7612 34.5663H25.5352V38.3259V38.3245ZM25.5352 26.1279V29.7982C25.5791 29.8053 25.611 29.8145 25.6429 29.8145C26.8427 29.8145 28.0425 29.8173 29.2424 29.8116C29.622 29.8102 29.9599 29.6778 30.2474 29.427C30.8112 28.9334 31.0032 28.0339 30.7128 27.254C30.4387 26.5188 29.8487 26.1229 29.0271 26.1236C27.9406 26.125 26.854 26.1265 25.7675 26.1279C25.696 26.1279 25.6238 26.1279 25.5359 26.1279H25.5352Z" fill="white"/>
<path d="M15.4373 11.385C15.7773 11.6265 16.1194 11.8355 16.4225 12.0912C17.446 12.9538 17.963 14.0885 18.0629 15.4024C18.1776 16.9061 17.9283 18.3545 17.2137 19.6967C16.2568 21.4929 14.7389 22.5376 12.7586 22.9102C12.199 23.0157 11.6204 23.0639 11.0509 23.066C7.63768 23.0802 4.22447 23.0731 0.811257 23.0731C0.751762 23.0731 0.692974 23.0731 0.617188 23.0731V0.642485C0.679516 0.642485 0.749636 0.642485 0.819756 0.642485C3.95957 0.642485 7.09939 0.64036 10.2392 0.642485C13.5334 0.645318 16.3198 2.87782 17.0139 6.09201C17.4184 7.96329 17.0224 9.64758 15.7341 11.0939C15.6852 11.1484 15.6306 11.1973 15.5782 11.249C15.5308 11.295 15.4833 11.3404 15.4366 11.3843L15.4373 11.385ZM6.15383 17.9763H6.3819C7.13551 17.9763 7.88841 17.9763 8.64202 17.9763C9.33543 17.9763 10.0288 17.9826 10.7215 17.9741C11.5573 17.9635 12.1572 17.4961 12.3563 16.6872C12.4158 16.445 12.4476 16.185 12.432 15.9364C12.3711 14.9562 11.7408 14.136 10.5778 14.1544C9.18457 14.1763 7.79138 14.1593 6.39819 14.1593H6.15383V17.9756V17.9763ZM6.15595 9.42873C6.18429 9.43723 6.2027 9.44785 6.22112 9.44785C7.46698 9.44714 8.71214 9.45352 9.95801 9.43864C10.3511 9.43368 10.701 9.26299 10.9624 8.96622C11.529 8.32097 11.6048 7.5794 11.3045 6.801C11.0367 6.10688 10.4524 5.76407 9.62158 5.76337C8.54216 5.76266 7.46344 5.76337 6.38402 5.76337H6.15666V9.43014L6.15595 9.42873Z" fill="white"/>
<path d="M3.96484 26.3311H16.4207V38.5313C12.2652 34.4615 8.13238 30.4129 3.96484 26.3311Z" fill="white"/>
</svg>
