<svg width="62" height="14" viewBox="0 0 62 14" fill="none" xmlns="http://www.w3.org/2000/svg">
<g clip-path="url(#clip0_566_161)">
<path d="M5.05663 13.9989C4.69852 13.9082 4.33109 13.8413 3.98348 13.7212C3.4609 13.5398 3.02931 13.2213 2.68404 12.7011C2.68404 13.0581 2.68404 13.3483 2.68404 13.6532C1.77303 13.6532 0.894679 13.6532 0 13.6532C0 9.61819 0 5.59342 0 1.54938C0.922675 1.54938 1.84418 1.54938 2.79252 1.54938C2.79252 2.76214 2.79252 3.97716 2.79252 5.20579C2.84268 5.19559 2.87067 5.19899 2.8835 5.18652C3.97182 4.22651 5.2561 4.07804 6.61736 4.39653C8.54436 4.8465 9.82864 6.28707 10.0806 8.21502C10.2346 9.39491 10.1296 10.5453 9.54869 11.6119C8.79632 12.9947 7.58436 13.7484 5.99797 13.9547C5.92798 13.9649 5.85916 13.9853 5.78917 14.0011C5.54421 13.9989 5.30042 13.9989 5.05663 13.9989ZM5.01114 6.80278C3.6977 6.80618 2.6887 7.79905 2.68287 9.09909C2.67704 10.4343 3.66854 11.4464 4.97848 11.4464C6.29542 11.4464 7.3359 10.415 7.33357 9.11042C7.33007 7.81832 6.30708 6.80051 5.01114 6.80278Z" fill="white"/>
<path d="M13.9916 9.94917C14.1164 10.6689 14.5002 11.1597 15.1336 11.4476C15.9793 11.8329 17.0792 11.7944 17.7896 10.95C17.8433 10.8865 17.9459 10.8253 18.0276 10.8242C18.9048 10.8151 19.7808 10.8208 20.658 10.8219C20.6813 10.8219 20.7046 10.8332 20.7629 10.8457C20.3582 11.749 19.7819 12.5062 18.9654 13.0853C17.8561 13.8731 16.615 14.1179 15.2736 13.8889C12.5359 13.4197 10.7278 10.7822 11.3134 8.13116C11.9153 5.40869 14.5842 3.74143 17.323 4.38408C20.3232 5.0868 21.415 7.98155 21.0102 9.94917C19.8496 9.94917 18.6808 9.94917 17.5143 9.94917C16.3502 9.94917 15.1837 9.94917 13.9916 9.94917ZM18.2632 8.09263C18.0824 7.17343 17.1901 6.53531 16.1332 6.54664C15.0776 6.55911 14.1829 7.2165 14.0464 8.09263C15.4485 8.09263 16.8483 8.09263 18.2632 8.09263Z" fill="white"/>
<path d="M34.6319 9.94914C34.7135 10.5102 34.9783 10.925 35.4087 11.2401C36.1658 11.7943 37.597 11.9519 38.4182 10.9522C38.4684 10.891 38.5582 10.8253 38.6317 10.8241C39.5404 10.8151 40.4479 10.8185 41.3682 10.8185C41.3682 10.8638 41.3787 10.8967 41.367 10.9193C40.6345 12.4449 39.4949 13.516 37.7568 13.8798C35.0938 14.4375 32.3573 12.5798 31.9117 9.96841C31.5081 7.59956 32.9417 5.24998 35.1894 4.50306C38.0344 3.55779 41.0684 5.26358 41.6108 8.13454C41.7042 8.62417 41.6843 9.13421 41.7123 9.63518C41.7251 9.86073 41.64 9.95594 41.374 9.95481C39.2382 9.94234 37.1024 9.94801 34.9666 9.94801C34.8652 9.94914 34.7625 9.94914 34.6319 9.94914ZM38.8836 8.09373C38.8323 7.25387 37.7942 6.51261 36.735 6.54775C35.6829 6.58288 34.7042 7.32527 34.703 8.09373C36.0958 8.09373 37.4897 8.09373 38.8836 8.09373Z" fill="white"/>
<path d="M54.9374 9.94913C55.0179 10.8015 55.7586 11.4985 56.6859 11.6391C57.5048 11.7637 58.1953 11.5597 58.7354 10.9307C58.7809 10.8774 58.8661 10.8253 58.9337 10.823C59.8424 10.8162 60.7511 10.8185 61.6539 10.8185C61.6667 10.8502 61.6807 10.8683 61.6761 10.8785C60.9249 12.4801 59.7409 13.5965 57.9037 13.8991C55.3387 14.3219 52.9007 12.7362 52.2767 10.2869C51.6048 7.65169 53.3568 4.90315 56.0584 4.35571C58.8451 3.79013 61.4999 5.55486 61.9397 8.28867C62.0132 8.74997 61.9794 9.22714 62.0015 9.69638C62.012 9.9072 61.9082 9.9548 61.7041 9.95367C59.5589 9.948 57.415 9.95027 55.2698 9.95027C55.1637 9.94913 55.0587 9.94913 54.9374 9.94913ZM59.1903 8.09599C59.0235 7.16432 58.0425 6.48767 56.9857 6.55001C55.9371 6.61234 55.0191 7.31846 54.9899 8.09599C56.385 8.09599 57.7789 8.09599 59.1903 8.09599Z" fill="white"/>
<path d="M46.959 10.2733C47.2086 9.48671 47.4396 8.75905 47.6694 8.03253C48.0112 6.95125 48.3564 5.8711 48.6901 4.78642C48.7437 4.61187 48.8219 4.55633 49.0097 4.5586C49.8134 4.56993 50.6182 4.56313 51.4208 4.56313C51.4919 4.56313 51.5654 4.56313 51.6739 4.56313C51.5946 4.78755 51.5269 4.9859 51.4546 5.18198C50.4351 7.92372 49.4109 10.6643 48.3996 13.4083C48.3226 13.6158 48.2281 13.6804 48.0053 13.6747C47.267 13.6588 46.5274 13.6679 45.7879 13.6713C45.6642 13.6724 45.5826 13.6543 45.5336 13.5205C44.4535 10.5839 43.3663 7.64943 42.2827 4.71274C42.2698 4.67761 42.2652 4.64021 42.25 4.5824C42.334 4.5756 42.4028 4.5654 42.4716 4.5654C43.2753 4.56427 44.0802 4.57107 44.8827 4.55973C45.0798 4.55747 45.1638 4.613 45.221 4.79775C45.7541 6.51261 46.2965 8.22408 46.8377 9.93668C46.8692 10.0296 46.9054 10.1226 46.959 10.2733Z" fill="white"/>
<path d="M25.4625 13.6589C24.5223 13.6589 23.6078 13.6589 22.6758 13.6589C22.6758 9.61822 22.6758 5.58664 22.6758 1.5426C23.6043 1.5426 24.5258 1.5426 25.4625 1.5426C25.4625 5.57984 25.4625 9.61028 25.4625 13.6589Z" fill="white"/>
<path d="M30.294 13.66C29.362 13.66 28.4464 13.66 27.4969 13.66C27.4969 13.5671 27.4969 13.4843 27.4969 13.4004C27.4969 10.5442 27.4992 7.68914 27.4922 4.83405C27.4922 4.61984 27.547 4.5541 27.7745 4.5575C28.5292 4.5711 29.2839 4.56203 30.0397 4.56203C30.1191 4.56203 30.1984 4.56203 30.2952 4.56203C30.294 7.60073 30.294 10.6179 30.294 13.66Z" fill="white"/>
<path d="M28.9068 3.0523C28.0203 3.05003 27.3297 2.38018 27.332 1.52558C27.3355 0.669851 28.0296 0 28.9138 0C29.7921 0 30.4908 0.676652 30.4897 1.53012C30.4862 2.38358 29.7898 3.05457 28.9068 3.0523Z" fill="white"/>
</g>
<defs>
<clipPath id="clip0_566_161">
<rect width="62" height="14" fill="white"/>
</clipPath>
</defs>
</svg>
