<svg width="65" height="15" viewBox="0 0 65 15" fill="none" xmlns="http://www.w3.org/2000/svg">
<g clip-path="url(#clip0_521_83)">
<path d="M0.783888 14.3062H0V4.07436C0 1.80742 1.84998 0 4.17028 0H14.6744V0.765858H4.17028C2.28895 0.765858 0.783888 2.2363 0.783888 4.07436V14.3062Z" fill="white"/>
<path d="M27.3405 14.3062H20.8499C18.5609 14.3062 16.7109 12.4988 16.7109 10.2625V0H17.4948V10.2625C17.4948 12.0699 18.9999 13.5404 20.8499 13.5404H27.3405C29.1904 13.5404 30.6955 12.0699 30.6955 10.2625V0H31.4794V10.2625C31.5107 12.4988 29.6294 14.3062 27.3405 14.3062Z" fill="white"/>
<path d="M48.1938 14.3062H37.6897C35.4008 14.3062 33.5508 12.4988 33.5508 10.2625V4.07436C33.5508 1.83806 35.4008 0 37.6897 0H48.1938V0.765858H37.6897C35.8397 0.765858 34.3347 2.2363 34.3347 4.04373V10.2319C34.3347 12.0393 35.8397 13.5097 37.6897 13.5097H48.1938V14.3062Z" fill="white"/>
<path d="M64.9989 14.3062H64.215V4.04373C64.215 2.2363 62.71 0.765858 60.86 0.765858H54.3694C52.5194 0.765858 51.0144 2.2363 51.0144 4.04373V14.3062H50.2305V4.04373C50.2305 1.80742 52.0804 0 54.3694 0H60.86C63.1489 0 64.9989 1.80742 64.9989 4.04373V14.3062Z" fill="white"/>
<path d="M25.4617 3.18597H22.7651C21.5736 3.18597 20.6016 2.2363 20.6016 1.0722V0H21.3855V1.04157C21.3855 1.77679 22.0126 2.38948 22.7651 2.38948H25.4617C26.2142 2.38948 26.8413 1.77679 26.8413 1.04157V0H27.6252V1.04157C27.6252 2.2363 26.6532 3.18597 25.4617 3.18597Z" fill="white"/>
<path d="M6.05025 5.75928H8.74682C9.93833 5.75928 10.9104 6.70894 10.9104 7.87304V8.91461H10.1265V7.87304C10.1265 7.13782 9.49936 6.52513 8.74682 6.52513H6.05025C5.29772 6.52513 4.67061 7.13782 4.67061 7.87304V8.91461H3.88672V7.87304C3.88672 6.70894 4.85874 5.75928 6.05025 5.75928Z" fill="white"/>
<path d="M43.3322 5.75928H46.0288C47.2203 5.75928 48.1923 6.70894 48.1923 7.87304V8.91461H47.4084V7.87304C47.4084 7.13782 46.7813 6.52513 46.0288 6.52513H43.3322C42.5797 6.52513 41.9526 7.13782 41.9526 7.87304V8.91461H41.1687V7.87304C41.1373 6.70894 42.1407 5.75928 43.3322 5.75928Z" fill="white"/>
<path d="M56.2534 11.1509H58.95C60.1415 11.1509 61.1135 12.1005 61.1135 13.2646V14.3062H60.3296V13.2646C60.3296 12.5294 59.7025 11.9167 58.95 11.9167H56.2534C55.5008 11.9167 54.8737 12.5294 54.8737 13.2646V14.3062H54.0898V13.2646C54.0898 12.1005 55.0619 11.1509 56.2534 11.1509Z" fill="white"/>
</g>
<defs>
<clipPath id="clip0_521_83">
<rect width="65" height="14.3062" fill="white"/>
</clipPath>
</defs>
</svg>
