<?xml version="1.0" encoding="UTF-8"?>
<svg id="Calque_1" data-name="Calque 1" xmlns="http://www.w3.org/2000/svg" viewBox="0 0 7064 154">
  <defs>
    <style>
      .cls-1 {
        fill: #fff;
        stroke-width: 0px;
      }
    </style>
  </defs>
  <path class="cls-1" d="m1004.31,59.39c-59.51,59.51-156,59.51-215.51,0h0c-79.15-79.13-207.47-79.13-286.61.02h0c-59.51,59.49-155.99,59.49-215.49-.02h0C207.54-19.75,79.22-19.74.07,59.4l35.56,35.25c59.51-59.51,156-59.51,215.51,0h0c79.15,79.13,207.47,79.13,286.61-.02h0c59.51-59.49,155.99-59.49,215.49.02h0c79.15,79.13,207.47,79.13,286.61-.02l-35.56-35.25Z"/>
  <path class="cls-1" d="m2008.31,59.39c-59.51,59.51-156,59.51-215.51,0h0c-79.15-79.13-207.47-79.13-286.61.02h0c-59.51,59.49-155.99,59.49-215.49-.02h0c-79.15-79.13-207.47-79.13-286.61.02l35.56,35.25c59.51-59.51,156-59.51,215.51,0h0c79.15,79.13,207.47,79.13,286.61-.02h0c59.51-59.49,155.99-59.49,215.49.02h0c79.15,79.13,207.47,79.13,286.61-.02l-35.56-35.25Z"/>
  <path class="cls-1" d="m3012.31,59.39c-59.51,59.51-156,59.51-215.51,0h0c-79.15-79.13-207.47-79.13-286.61.02h0c-59.51,59.49-155.99,59.49-215.49-.02h0c-79.15-79.13-207.47-79.13-286.61.02l35.56,35.25c59.51-59.51,156-59.51,215.51,0h0c79.15,79.13,207.47,79.13,286.61-.02h0c59.51-59.49,155.99-59.49,215.49.02h0c79.15,79.13,207.47,79.13,286.61-.02l-35.56-35.25Z"/>
  <path class="cls-1" d="m4016.31,59.39c-59.51,59.51-156,59.51-215.51,0h0c-79.15-79.13-207.47-79.13-286.61.02h0c-59.51,59.49-155.99,59.49-215.49-.02h0c-79.15-79.13-207.47-79.13-286.61.02l35.56,35.25c59.51-59.51,156-59.51,215.51,0h0c79.15,79.13,207.47,79.13,286.61-.02h0c59.51-59.49,155.99-59.49,215.49.02h0c79.15,79.13,207.47,79.13,286.61-.02l-35.56-35.25Z"/>
  <path class="cls-1" d="m5020.31,59.39c-59.51,59.51-156,59.51-215.51,0h0c-79.15-79.13-207.47-79.13-286.61.02h0c-59.51,59.49-155.99,59.49-215.49-.02h0c-79.15-79.13-207.47-79.13-286.61.02l35.56,35.25c59.51-59.51,156-59.51,215.51,0h0c79.15,79.13,207.47,79.13,286.61-.02h0c59.51-59.49,155.99-59.49,215.49.02h0c79.15,79.13,207.47,79.13,286.61-.02l-35.56-35.25Z"/>
  <path class="cls-1" d="m6024.31,59.39c-59.51,59.51-156,59.51-215.51,0h0c-79.15-79.13-207.47-79.13-286.61.02h0c-59.51,59.49-155.99,59.49-215.49-.02h0c-79.15-79.13-207.47-79.13-286.61.02l35.56,35.25c59.51-59.51,156-59.51,215.51,0h0c79.15,79.13,207.47,79.13,286.61-.02h0c59.51-59.49,155.99-59.49,215.49.02h0c79.15,79.13,207.47,79.13,286.61-.02l-35.56-35.25Z"/>
  <path class="cls-1" d="m7028.31,59.39c-59.51,59.51-156,59.51-215.51,0h0c-79.15-79.13-207.47-79.13-286.61.02h0c-59.51,59.49-155.99,59.49-215.49-.02h0c-79.15-79.13-207.47-79.13-286.61.02l35.56,35.25c59.51-59.51,156-59.51,215.51,0h0c79.15,79.13,207.47,79.13,286.61-.02h0c59.51-59.49,155.99-59.49,215.49.02h0c79.15,79.13,207.47,79.13,286.61-.02l-35.56-35.25Z"/>
</svg>