<svg width="291" height="94" viewBox="0 0 291 94" fill="none" xmlns="http://www.w3.org/2000/svg">
<path d="M108.127 17.8136V78.1894M72.7461 17.8125V78.1883M36.5935 17.8125V78.1883" stroke="white" stroke-width="0.5"/>
<path d="M248.77 17.8136V78.1894M213.389 17.8125V78.1883M177.236 17.8125V78.1883" stroke="white" stroke-width="0.5"/>
<line x1="143.126" y1="1.99902" x2="143.126" y2="94.0002" stroke="white"/>
<line x1="283.77" y1="1.99902" x2="283.77" y2="94.0002" stroke="white"/>
<line x1="0.5" y1="1.99902" x2="0.5" y2="94.0002" stroke="white"/>
<path d="M4.8231 8V2.72L5.1671 3.096H3.5591V2.4H5.6151V8H4.8231Z" fill="white"/>
<path d="M147.835 10V4.72L148.179 5.096H146.571V4.4H148.627V10H147.835Z" fill="white"/>
<path d="M288.915 10V4.72L289.259 5.096H287.651V4.4H289.707V10H288.915Z" fill="white"/>
<path d="M38.7618 21V20.728L39.9018 19.628C40.0031 19.532 40.0778 19.448 40.1258 19.376C40.1764 19.3013 40.2098 19.2333 40.2258 19.172C40.2444 19.108 40.2538 19.0467 40.2538 18.988C40.2538 18.844 40.2031 18.7307 40.1018 18.648C40.0004 18.5653 39.8524 18.524 39.6578 18.524C39.5084 18.524 39.3738 18.5493 39.2538 18.6C39.1338 18.648 39.0298 18.724 38.9418 18.828L38.6698 18.592C38.7764 18.456 38.9191 18.352 39.0978 18.28C39.2791 18.2053 39.4778 18.168 39.6938 18.168C39.8884 18.168 40.0578 18.2 40.2018 18.264C40.3458 18.3253 40.4564 18.4147 40.5338 18.532C40.6138 18.6493 40.6538 18.788 40.6538 18.948C40.6538 19.0387 40.6418 19.128 40.6178 19.216C40.5938 19.304 40.5484 19.3973 40.4818 19.496C40.4151 19.5947 40.3191 19.7053 40.1938 19.828L39.1778 20.808L39.0818 20.652H40.7738V21H38.7618Z" fill="white"/>
<path d="M178.875 21V20.728L180.015 19.628C180.116 19.532 180.191 19.448 180.239 19.376C180.29 19.3013 180.323 19.2333 180.339 19.172C180.358 19.108 180.367 19.0467 180.367 18.988C180.367 18.844 180.316 18.7307 180.215 18.648C180.114 18.5653 179.966 18.524 179.771 18.524C179.622 18.524 179.487 18.5493 179.367 18.6C179.247 18.648 179.143 18.724 179.055 18.828L178.783 18.592C178.89 18.456 179.032 18.352 179.211 18.28C179.392 18.2053 179.591 18.168 179.807 18.168C180.002 18.168 180.171 18.2 180.315 18.264C180.459 18.3253 180.57 18.4147 180.647 18.532C180.727 18.6493 180.767 18.788 180.767 18.948C180.767 19.0387 180.755 19.128 180.731 19.216C180.707 19.304 180.662 19.3973 180.595 19.496C180.528 19.5947 180.432 19.7053 180.307 19.828L179.291 20.808L179.195 20.652H180.887V21H178.875Z" fill="white"/>
<path d="M75.4188 21.032C75.2215 21.032 75.0295 21.0013 74.8428 20.94C74.6588 20.8787 74.5082 20.796 74.3908 20.692L74.5748 20.376C74.6682 20.464 74.7895 20.536 74.9388 20.592C75.0882 20.648 75.2482 20.676 75.4188 20.676C75.6268 20.676 75.7882 20.632 75.9028 20.544C76.0202 20.4533 76.0788 20.332 76.0788 20.18C76.0788 20.0333 76.0228 19.916 75.9108 19.828C75.8015 19.7373 75.6268 19.692 75.3868 19.692H75.1628V19.412L75.9948 18.388L76.0508 18.548H74.5188V18.2H76.3668V18.472L75.5388 19.492L75.3308 19.368H75.4628C75.8015 19.368 76.0548 19.444 76.2228 19.596C76.3935 19.748 76.4788 19.9413 76.4788 20.176C76.4788 20.3333 76.4402 20.4773 76.3628 20.608C76.2855 20.7387 76.1682 20.8427 76.0108 20.92C75.8562 20.9947 75.6588 21.032 75.4188 21.032Z" fill="white"/>
<path d="M215.532 21.032C215.335 21.032 215.143 21.0013 214.956 20.94C214.772 20.8787 214.621 20.796 214.504 20.692L214.688 20.376C214.781 20.464 214.903 20.536 215.052 20.592C215.201 20.648 215.361 20.676 215.532 20.676C215.74 20.676 215.901 20.632 216.016 20.544C216.133 20.4533 216.192 20.332 216.192 20.18C216.192 20.0333 216.136 19.916 216.024 19.828C215.915 19.7373 215.74 19.692 215.5 19.692H215.276V19.412L216.108 18.388L216.164 18.548H214.632V18.2H216.48V18.472L215.652 19.492L215.444 19.368H215.576C215.915 19.368 216.168 19.444 216.336 19.596C216.507 19.748 216.592 19.9413 216.592 20.176C216.592 20.3333 216.553 20.4773 216.476 20.608C216.399 20.7387 216.281 20.8427 216.124 20.92C215.969 20.9947 215.772 21.032 215.532 21.032Z" fill="white"/>
<path d="M110.082 20.312V20.032L111.514 18.2H111.946L110.526 20.032L110.322 19.968H112.558V20.312H110.082ZM111.638 21V20.312L111.65 19.968V19.36H112.026V21H111.638Z" fill="white"/>
<path d="M250.196 20.312V20.032L251.628 18.2H252.06L250.64 20.032L250.436 19.968H252.672V20.312H250.196ZM251.752 21V20.312L251.764 19.968V19.36H252.14V21H251.752Z" fill="white"/>
</svg>
