<svg width="28" height="28" viewBox="0 0 28 28" fill="none" xmlns="http://www.w3.org/2000/svg">
<mask id="mask0_1241_899" style="mask-type:alpha" maskUnits="userSpaceOnUse" x="0" y="0" width="28" height="28">
<rect width="28" height="28" fill="#D9D9D9"/>
</mask>
<g mask="url(#mask0_1241_899)">
<path d="M6.31481 8.70573C6.11278 8.45003 5.95908 8.17256 5.85369 7.87331C5.7481 7.57426 5.69531 7.2684 5.69531 6.95573C5.69531 6.14548 5.97862 5.45685 6.54523 4.88985C7.11203 4.32266 7.80008 4.03906 8.60935 4.03906C9.41883 4.03906 10.1077 4.32266 10.6761 4.88985C11.2445 5.45685 11.5286 6.14548 11.5286 6.95573C11.5286 7.2684 11.476 7.57426 11.3706 7.87331C11.2652 8.17256 11.1115 8.45003 10.9094 8.70573H6.31481ZM11.89 23.9622C10.8295 23.9622 9.92088 23.5843 9.1641 22.8285C8.40713 22.0729 8.02865 21.1645 8.02865 20.1032H7.13148L6.09927 9.96223H11.125L10.0928 20.1032H9.19531C9.19531 20.8497 9.45898 21.485 9.98631 22.0092C10.5136 22.5335 11.1474 22.7956 11.8877 22.7956C12.6281 22.7956 13.2619 22.5319 13.7891 22.0046C14.3164 21.4774 14.5801 20.8436 14.5801 20.1032V7.8981C14.5801 6.83683 14.9577 5.92838 15.7129 5.17277C16.4681 4.41697 17.3761 4.03906 18.4368 4.03906C19.4973 4.03906 20.4059 4.41697 21.1627 5.17277C21.9197 5.92838 22.2981 6.83683 22.2981 7.8981V23.9622H21.1315V7.8981C21.1315 7.15766 20.8678 6.52387 20.3405 5.99673C19.8131 5.4694 19.1794 5.20573 18.4391 5.20573C17.6987 5.20573 17.0649 5.4694 16.5377 5.99673C16.0104 6.52387 15.7467 7.15766 15.7467 7.8981V20.1032C15.7467 21.1645 15.3691 22.0729 14.6139 22.8285C13.8587 23.5843 12.9507 23.9622 11.89 23.9622ZM8.17681 18.9365H9.04744L9.81481 11.1289H7.40944L8.17681 18.9365Z" fill="white"/>
</g>
</svg>
