<svg width="54" height="9" viewBox="0 0 54 9" fill="none" xmlns="http://www.w3.org/2000/svg">
<g clip-path="url(#clip0_521_155)">
<path d="M41.0742 0.502562V1.50258H42.1057C42.556 1.50258 42.8519 1.77165 43.0204 1.94544C43.1555 2.08858 46.1255 5.27752 46.1966 5.36132C46.2681 5.44527 46.2681 5.44618 46.2681 5.49948V7.07961C46.2678 7.15206 46.2602 7.22433 46.2453 7.29538C46.2241 7.34125 46.1927 7.38221 46.1532 7.41543C46.1137 7.44865 46.067 7.47332 46.0164 7.48774C45.919 7.49932 45.8208 7.50513 45.7226 7.50511L44.6902 7.5039V8.50407H50.481V7.5039H49.3913C49.2937 7.50438 49.1962 7.49853 49.0995 7.48638C49.049 7.4721 49.0024 7.44748 48.9631 7.41426C48.9237 7.38105 48.8926 7.34005 48.8718 7.29417C48.8566 7.22314 48.8487 7.15088 48.8482 7.0784V5.49918C48.8418 5.44728 48.8556 5.39494 48.887 5.35196L52.0998 1.88097C52.3948 1.56992 52.5482 1.50243 52.9349 1.50243H54.0008V0.502258H49.2283V1.50032H49.9486C49.9872 1.4981 50.0257 1.50644 50.0594 1.52433C50.0932 1.54223 50.1208 1.56893 50.139 1.60126C50.1572 1.63359 50.1653 1.6702 50.1621 1.70672C50.159 1.74324 50.1449 1.77814 50.1214 1.80728C50.1063 1.82766 48.1234 4.03577 48.0985 4.05721C48.0736 4.07865 48.0577 4.07352 48.0392 4.05011C48.0209 4.02656 46.0617 1.80728 46.0617 1.80728C45.9235 1.64663 46.0314 1.50047 46.1936 1.50047H46.8955V0.50241L41.0742 0.502562Z" fill="white"/>
<path d="M26.8711 0.502563V1.50258H27.7954C28.4629 1.50258 28.5083 1.85454 28.5083 2.16136V6.8424C28.5083 7.12249 28.5255 7.50707 28.1001 7.50707H26.9594V8.50618H31.8293V7.50707H30.6414C30.1672 7.50707 30.1455 7.30172 30.1402 6.8649V2.85471L36.8286 8.50633H38.5296L38.4398 2.12346C38.4486 1.65704 38.4787 1.50168 38.9884 1.50168H40.0544V0.502563H35.0865V1.50168H36.1774C36.6785 1.50168 36.7626 1.68468 36.7689 2.12346L36.8286 5.4637L31.0225 0.502563H26.8711Z" fill="white"/>
<path d="M4.94095 -0.00109863C3.8945 -0.00109863 2.70551 0.185073 1.70099 0.612531C0.763445 1.00934 6.90264e-06 1.64653 6.90264e-06 2.70286C-0.00142764 3.25617 0.220787 3.78901 0.621057 4.19209C0.892117 4.4293 1.32948 4.8323 2.47224 5.06951C2.98295 5.17188 4.07484 5.33646 5.16243 5.44487C6.24986 5.55328 7.30413 5.64947 7.73591 5.75893C8.07952 5.84168 8.65719 5.95432 8.65719 6.56795C8.65719 7.18158 8.04922 7.36549 7.94335 7.4055C7.83764 7.44536 7.10737 7.76244 5.79623 7.76244C4.92757 7.73959 4.0668 7.59941 3.23998 7.34616C2.75079 7.18037 2.23785 6.96264 1.75935 6.40926C1.56624 6.14873 1.45909 5.8398 1.45146 5.52158H0.263576V8.67157H1.58332V8.24517C1.58313 8.21354 1.59185 8.18245 1.60856 8.15507C1.62528 8.1277 1.64939 8.10503 1.67843 8.08941C1.70746 8.07379 1.74037 8.06577 1.77376 8.06618C1.80715 8.06659 1.83982 8.07542 1.86841 8.09176C2.49015 8.34796 3.13686 8.54595 3.79932 8.68289C4.49275 8.81984 4.94096 8.91919 5.80277 8.91919C6.71217 8.93553 7.61849 8.81432 8.48755 8.56013C9.06464 8.41032 9.60609 8.15723 10.0827 7.81453C10.3507 7.61956 10.5673 7.3684 10.7156 7.08076C10.8638 6.79312 10.9396 6.47685 10.937 6.1568C10.9416 5.5487 10.6938 4.9632 10.247 4.52639C9.99857 4.2981 9.71071 4.11171 9.39591 3.97527C9.05751 3.8305 8.7062 3.71448 8.34611 3.62859C7.66145 3.47005 6.12358 3.27165 5.38821 3.20204C4.61697 3.12655 3.27872 3.021 2.74425 2.86457C2.58226 2.81641 2.25172 2.66829 2.25172 2.30515C2.25172 2.0465 2.40288 1.82756 2.70104 1.6506C3.17508 1.36945 4.13208 1.19445 5.1299 1.19445C6.09585 1.18337 7.05389 1.36053 7.94447 1.71493C8.18371 1.81368 8.40869 1.94088 8.61398 2.09346C8.94866 2.36417 9.18042 2.7313 9.27378 3.13862H10.3398V0.396766H9.15196V0.714753C9.15196 0.817125 9.04385 0.952114 8.8278 0.840682C8.29206 0.576749 6.78672 0.00614897 4.94095 -0.00109863Z" fill="white"/>
<path d="M19.2363 6.10352e-05C17.3647 6.10352e-05 15.3773 0.61369 14.2542 1.58004C13.826 1.94923 13.4842 2.39923 13.2507 2.90108C13.0173 3.40292 12.8974 3.9455 12.8987 4.49388C12.892 5.0445 13.0094 5.59014 13.2431 6.09436C13.4769 6.59858 13.8215 7.04978 14.254 7.41783C15.4637 8.4476 17.2782 8.99992 19.2363 8.99992C21.1975 8.99992 23.0507 8.45379 24.2313 7.41783C24.651 7.04115 24.9858 6.58788 25.2155 6.08536C25.4453 5.58284 25.5652 5.04147 25.5681 4.49388C25.5739 3.94685 25.4578 3.40481 25.2275 2.90312C24.9971 2.40143 24.6577 1.95137 24.2313 1.5823C22.9643 0.494107 21.3065 6.10352e-05 19.2363 6.10352e-05ZM19.2363 1.16995C20.2601 1.16995 21.2461 1.51874 21.9102 2.13765C22.5528 2.73694 22.8886 3.5837 22.8886 4.4898C22.8886 5.43894 22.5831 6.20808 21.9104 6.8421C21.2375 7.47626 20.2741 7.81569 19.2363 7.81569C18.2059 7.81569 17.222 7.46902 16.5579 6.8421C16.2402 6.52998 15.9908 6.16149 15.824 5.7578C15.6572 5.35412 15.5763 4.9232 15.5859 4.4898C15.5859 3.58778 15.9174 2.738 16.5579 2.13765C17.222 1.51572 18.2125 1.16995 19.2363 1.16995Z" fill="white"/>
</g>
<defs>
<clipPath id="clip0_521_155">
<rect width="54" height="9" fill="white"/>
</clipPath>
</defs>
</svg>
