<svg width="61" height="37" viewBox="0 0 61 37" fill="none" xmlns="http://www.w3.org/2000/svg">
<g clip-path="url(#clip0_566_110)">
<path fill-rule="evenodd" clip-rule="evenodd" d="M40.9013 14.7005C39.5121 19.1636 35.6085 22.6359 30.6601 22.6359C25.413 22.6359 21.885 19.2103 20.4688 14.7974C21.9423 18.9083 25.9522 21.8558 30.6676 21.8558C35.4199 21.8558 39.4558 18.8618 40.9013 14.7005ZM20.4453 7.89001C21.8407 3.43847 25.1424 0 30.6601 0C35.7886 0 39.5575 3.48554 40.924 7.98748C39.4983 3.79187 35.4443 0.764417 30.6676 0.764417C25.9272 0.764417 21.8999 3.74486 20.4453 7.89001Z" fill="white"/>
<path fill-rule="evenodd" clip-rule="evenodd" d="M30.8763 6.79065C30.9429 6.68909 31.1414 6.7568 31.2821 6.76031C31.4731 6.76427 31.4277 7.05348 31.689 6.99587C31.9498 6.93864 31.9536 7.25238 32.3261 7.24133C32.701 7.22913 32.2516 7.37603 32.2516 7.37603C32.2516 7.37603 32.0206 7.26087 31.8702 7.33765C31.7918 7.37814 31.9 7.31484 31.7679 7.20256C31.5626 7.02934 31.5896 7.23539 31.2447 6.93289C31.0021 6.71981 30.7689 6.95818 30.8763 6.79065ZM32.752 14.6908C32.901 14.7528 33.0861 14.9062 33.1718 15.1393C33.3739 15.6921 33.0736 15.244 33.0736 16.0777C33.0736 16.8452 32.8635 16.7207 32.8635 16.7207C32.8635 16.7207 32.818 17.6277 32.3649 18.1848C32.0751 18.4846 32.3001 18.7329 32.3001 18.7329C32.3001 18.7329 32.202 18.7889 32.0602 19.4468C32.0147 19.6601 32.2785 19.9884 32.5082 19.9065C32.6795 19.8453 32.0905 19.7867 32.7287 19.5083C32.9754 19.4006 32.7736 19.1986 32.7736 19.1986C32.7736 19.1986 33.1874 19.1666 33.421 18.5213C33.8322 18.5831 33.6793 18.3231 34.5269 18.1345C34.7509 18.0844 34.7982 18.0151 34.7706 17.7972C34.7425 17.5803 35.0468 17.829 35.8863 16.9457C36.5484 16.2483 36.3097 16.0914 36.767 15.838C37.2505 15.5724 37.2948 15.8618 37.4566 15.6442C37.8272 15.1494 37.696 15.1799 37.8499 14.8648L37.9592 14.6897L32.752 14.6908ZM28.0966 7.35547C27.9592 7.00519 27.9684 6.43782 28.2623 5.91305C28.4474 5.58533 28.9382 5.44014 29.3667 5.6126C29.8476 5.22126 29.962 5.64236 30.388 5.45196C30.9472 5.20171 30.6339 6.11469 31.1755 6.34585C31.3992 5.73012 30.6653 5.26782 31.1255 4.9772C31.4542 4.7707 31.702 4.64251 31.8364 4.36493C32.0283 3.97033 32.1037 3.68214 32.2506 3.6297C32.5921 3.51 32.5188 3.17532 32.5188 3.17532C32.5188 3.17532 32.8813 3.28537 33.164 3.01187C32.9484 2.8923 32.6335 2.78864 32.7165 2.55014C32.8131 2.26827 33.5446 2.8412 33.7602 2.3789C33.3263 2.1832 32.8821 1.75883 32.6167 1.66111C32.4343 1.86563 32.3207 1.78336 32.0859 1.59117C31.689 1.26708 31.6554 1.57603 31.4068 1.35223C31.2085 1.76369 31.507 1.73098 31.5994 1.83395C31.8543 2.1222 31.3406 1.57488 31.39 2.31037C31.4033 2.5016 31.13 2.53647 30.9263 2.12214C30.8202 1.90657 29.9763 1.95243 29.849 1.74606C29.9651 1.50616 30.9588 0.651361 32.4846 0.856261C30.2684 -0.0417113 27.2737 0.939997 27.2438 1.2812C26.9454 1.47435 27.048 1.69451 26.8993 1.74606C26.6417 1.83503 26.3598 2.64844 26.3598 2.64844C26.3598 2.64844 26.5203 2.75906 26.0193 3.33774C25.6067 3.81423 25.4844 4.53668 25.4844 4.53668C25.4844 4.53668 25.7572 5.05142 25.7056 5.64485C25.6666 6.09713 25.6482 5.76187 25.8391 6.08985C25.95 6.28178 26.0714 6.95186 26.1451 6.69056C26.2865 6.19128 25.8884 5.73012 25.9542 5.23397C25.9688 5.29573 26.1072 5.03762 26.1018 5.27133C26.0864 5.88392 26.833 7.06447 26.833 7.06447C26.833 7.06447 26.5544 7.35585 26.8451 7.35585L28.0966 7.35547Z" fill="white"/>
<path d="M12.2143 8.99689H10.5311L10.7823 9.30577V11.5855C10.7823 12.0987 10.4534 12.3148 9.96238 12.3148C9.47158 12.3148 9.14206 12.0987 9.14206 11.5855V9.30577L9.39368 8.99689H7.71094L7.96207 9.30577V11.6227C7.96207 12.7604 8.57945 13.1989 9.96245 13.1989C11.3457 13.1989 11.9629 12.7604 11.9629 11.6227V9.30577L12.2143 8.99689Z" fill="white"/>
<path d="M18.0579 8.99689H16.6379L16.8905 9.30584V11.382L14.8544 8.99689H13.5781L13.8302 9.30584V12.8095L13.5781 13.1184H14.9971L14.7461 12.8095V10.6972L16.9083 13.1184H17.8063V9.30584L18.0579 8.99689Z" fill="white"/>
<path d="M21.3276 13.1184L21.0759 12.8095V9.30584L21.3276 8.99689H19.6328L19.8844 9.30584V12.8095L19.6328 13.1184H21.3276Z" fill="white"/>
<path d="M26.9155 8.99689H25.4899L25.7414 9.30584L24.7359 11.574L23.7652 9.30584L24.0173 8.99689H22.3398L24.2024 13.1184H25.0348L26.9155 8.99689Z" fill="white"/>
<path d="M31.6746 13.1184V12.0003L31.3748 12.26H29.333V11.468H30.6262L30.9203 11.7284V10.3869L30.6262 10.6468H29.333V9.85552H31.3748L31.6746 10.1153V8.99689H27.9141L28.1656 9.30584V12.8095L27.9141 13.1184H31.6746Z" fill="white"/>
<path fill-rule="evenodd" clip-rule="evenodd" d="M37.3988 13.1184L36.3161 11.4931C36.8483 11.2702 37.2189 10.8441 37.2189 10.2451C37.2189 9.55858 36.8123 8.99689 35.6742 8.99689H33.1836L33.4357 9.30577V12.8095L33.1836 13.1183H34.8544L34.6034 12.8095V11.6415H35.1055L35.8711 12.8095L35.6207 13.1183L37.3988 13.1184ZM36.0225 10.3314C36.0225 10.6282 35.7466 10.8694 35.3629 10.8694H34.6033V9.85552H35.5069C35.7699 9.85552 36.0225 9.99233 36.0225 10.3314Z" fill="white"/>
<path d="M42.4594 11.9138C42.4594 11.2586 41.95 10.8942 41.2133 10.6469C40.7345 10.4929 40.0581 10.3819 40.0581 10.0539C40.0581 9.89296 40.2431 9.78138 40.5667 9.78138C40.9988 9.78138 41.7043 9.96706 42.2549 10.2389V8.86176L41.9381 9.17632C41.6026 9.03395 41.0216 8.88596 40.6209 8.88596C39.2624 8.88596 38.8242 9.50379 38.8242 10.0665C38.8242 10.8323 39.3153 11.1663 40.0882 11.4443C40.662 11.6479 41.1952 11.6666 41.1952 12.0056C41.1952 12.297 40.8665 12.3341 40.6987 12.3341C40.2737 12.3341 39.5189 12.1792 38.848 11.7285V13.2544L39.1656 12.8959C39.4775 13.0201 40.178 13.2296 40.7526 13.2296C41.9317 13.2294 42.4594 12.692 42.4594 11.9138Z" fill="white"/>
<path fill-rule="evenodd" clip-rule="evenodd" d="M48.4314 13.1184L46.4673 8.99689H45.1197L45.2629 9.30577L43.4844 13.1183H44.9521L44.7005 12.8095L44.8977 12.3772H46.802L46.9933 12.8095L46.7417 13.1183L48.4314 13.1184ZM46.509 11.6357H45.1847L45.8443 10.1589L46.509 11.6357Z" fill="white"/>
<path d="M53.1651 13.1184V12.0003L52.8651 12.26H50.9431V9.30584L51.1943 8.99689H49.5234L49.775 9.30584V12.8095L49.5234 13.1184H53.1651Z" fill="white"/>
<path d="M52.096 9.56828C52.096 9.85698 52.3219 10.0895 52.6 10.0895C52.8803 10.0895 53.1062 9.85698 53.1062 9.56828C53.1062 9.28003 52.8803 9.04677 52.6 9.04677C52.3219 9.04677 52.096 9.28003 52.096 9.56828ZM52.043 9.56828C52.043 9.25058 52.2927 8.9928 52.6 8.9928C52.9089 8.9928 53.1584 9.25058 53.1584 9.56828C53.1584 9.8863 52.9089 10.1445 52.6 10.1445C52.2926 10.1445 52.043 9.88624 52.043 9.56828Z" fill="white"/>
<path fill-rule="evenodd" clip-rule="evenodd" d="M52.8111 9.34333C52.7554 9.29517 52.6902 9.27307 52.6182 9.27307C52.4543 9.27307 52.332 9.4042 52.332 9.56982C52.332 9.73697 52.4519 9.87008 52.616 9.87008C52.6913 9.87008 52.7627 9.84204 52.8184 9.79088V9.71468C52.7676 9.7774 52.6932 9.81764 52.6141 9.81764C52.4829 9.81764 52.3864 9.69967 52.3864 9.56976C52.3864 9.43959 52.484 9.32462 52.6153 9.32462C52.6942 9.32462 52.7584 9.35745 52.8111 9.41736V9.34333Z" fill="white"/>
<path d="M2.78556 35.045C2.78556 35.4451 2.66271 35.7205 2.41718 35.8716C2.17154 36.0226 1.85232 36.0981 1.45936 36.0981H0.978988V36.7001L1.15259 36.9083H0L0.173545 36.7001V34.3288L0 34.1205H1.48364C1.70025 34.1205 1.90552 34.1464 2.09925 34.1982C2.29305 34.2499 2.45586 34.3444 2.5878 34.4819C2.71956 34.6193 2.78556 34.8069 2.78556 35.045ZM1.94584 35.094C1.94584 34.9484 1.90247 34.8467 1.81566 34.789C1.72892 34.7312 1.60405 34.7023 1.44125 34.7023H0.978988V35.545H1.36853C1.56636 35.545 1.71202 35.5124 1.8056 35.4472C1.89905 35.3818 1.94584 35.2641 1.94584 35.094Z" fill="white"/>
<path d="M7.03037 34.1205L6.85677 34.3288V35.896C6.85677 36.0906 6.82913 36.2551 6.77405 36.3898C6.71884 36.5245 6.63607 36.6337 6.52578 36.7174C6.41537 36.8012 6.27409 36.863 6.10189 36.9031C5.92957 36.9432 5.72101 36.9633 5.47615 36.9633C5.23252 36.9633 5.025 36.9432 4.85347 36.9031C4.68187 36.863 4.54023 36.8011 4.42854 36.7174C4.31685 36.6337 4.2334 36.5243 4.17826 36.3888C4.12305 36.2534 4.09548 36.0893 4.09548 35.8959V34.3287L3.92188 34.1205H5.0846L4.91099 34.3287V35.8715C4.91099 36.0375 4.96113 36.1613 5.06141 36.2429C5.16164 36.3244 5.29986 36.3653 5.47621 36.3653C5.6525 36.3653 5.79104 36.3249 5.89199 36.2439C5.99288 36.163 6.04333 36.0388 6.04333 35.8715V34.3287L5.86973 34.1205L7.03037 34.1205Z" fill="white"/>
<path d="M11.2124 36.1102C11.2124 36.3743 11.1185 36.5732 10.9307 36.7073C10.743 36.8413 10.4621 36.9082 10.088 36.9082H8.39453L8.56808 36.7V34.3287L8.39453 34.1205H10.0315C10.232 34.1205 10.4144 34.1389 10.5786 34.1755C10.7427 34.2124 10.88 34.2869 10.9903 34.399C11.1007 34.5113 11.1558 34.6682 11.1558 34.8694C11.1558 35.0056 11.1124 35.1263 11.0256 35.2317C10.9388 35.3371 10.8261 35.4136 10.6875 35.4613C10.7602 35.4735 10.8295 35.5 10.8955 35.5408C10.9614 35.5817 11.0173 35.63 11.063 35.6857C11.1087 35.7415 11.1451 35.8072 11.172 35.8828C11.1989 35.9583 11.2124 36.0342 11.2124 36.1102ZM10.308 34.9695C10.308 34.8811 10.2811 34.8125 10.2273 34.7634C10.1735 34.7144 10.1042 34.6899 10.0194 34.6899H9.37346V35.2613H9.88616C10.0503 35.2613 10.1617 35.2338 10.2203 35.1787C10.2788 35.1236 10.308 35.0539 10.308 34.9695ZM10.3606 36.0185C10.3606 35.9151 10.328 35.8403 10.2627 35.794C10.1974 35.7478 10.113 35.7246 10.0094 35.7246H9.37358V36.3267H9.98925C10.1305 36.3267 10.2277 36.2995 10.281 36.245C10.334 36.1906 10.3606 36.1151 10.3606 36.0185Z" fill="white"/>
<path d="M15.0911 36.9083H12.5781L12.7517 36.7001V34.3288L12.5781 34.1205H13.7307L13.5571 34.3288V36.3267H14.8833L15.0911 36.1512V36.9083Z" fill="white"/>
<path d="M17.4499 36.9083H16.2812L16.4549 36.7001V34.3288L16.2812 34.1205H17.4499L17.2764 34.3288V36.7001L17.4499 36.9083Z" fill="white"/>
<path d="M21.4231 36.094C21.4231 36.2287 21.3999 36.3498 21.3534 36.4573C21.307 36.5648 21.235 36.658 21.1374 36.7369C21.0398 36.8157 20.9174 36.8766 20.77 36.9194C20.6227 36.9623 20.4481 36.9837 20.2462 36.9837C20.1238 36.9837 19.9922 36.9716 19.8516 36.947C19.711 36.9225 19.5751 36.8912 19.4438 36.8531C19.3126 36.815 19.2148 36.783 19.1502 36.7572L18.9302 37V35.9675C19.1401 36.1063 19.3631 36.2093 19.5993 36.2767C19.8355 36.344 20.0383 36.3777 20.2079 36.3777C20.2953 36.3777 20.3745 36.3624 20.4451 36.3318C20.5157 36.3012 20.5511 36.2423 20.5511 36.1551C20.5511 36.0857 20.5201 36.0327 20.4582 35.9959C20.3963 35.9593 20.2822 35.9181 20.1161 35.8725C19.9499 35.8269 19.8399 35.7946 19.7861 35.7755C19.4926 35.6722 19.274 35.5514 19.13 35.4133C18.986 35.2752 18.9141 35.0851 18.9141 34.8429C18.9141 34.7055 18.9541 34.5766 19.0342 34.4561C19.1142 34.3357 19.2481 34.2371 19.4359 34.1602C19.6236 34.0834 19.8634 34.0449 20.1554 34.0449C20.2227 34.0449 20.2947 34.05 20.3715 34.0602C20.4481 34.0703 20.5329 34.0857 20.6258 34.1061C20.7186 34.1265 20.8007 34.148 20.872 34.1704C20.9434 34.193 21.0073 34.2163 21.0639 34.2408L21.2839 34.0286V34.9612C21.1533 34.8988 21.0164 34.8439 20.8731 34.7971C20.7298 34.7501 20.5922 34.7141 20.4603 34.6889C20.3285 34.6636 20.2141 34.6511 20.1172 34.6511C20.0082 34.6511 19.9224 34.6682 19.8598 34.7022C19.7973 34.7362 19.7659 34.7804 19.7659 34.8347C19.7659 34.8865 19.7895 34.9314 19.8366 34.9695C19.8837 35.0076 19.9439 35.0405 20.0173 35.0685C20.0906 35.0964 20.1862 35.127 20.3039 35.1602C20.4217 35.1936 20.5081 35.2192 20.5633 35.2369C20.8391 35.328 21.0514 35.4413 21.2002 35.5766C21.3487 35.712 21.4231 35.8845 21.4231 36.094Z" fill="white"/>
<path d="M26.1612 36.9083H25.0066L25.1802 36.7001V35.792H23.85V36.7001L24.0236 36.9083H22.8711L23.0446 36.7001V34.3288L22.8711 34.1205H24.0237L23.8501 34.3288V35.237H25.1803V34.3288L25.0067 34.1205H26.1613L25.9878 34.3288V36.7001L26.1612 36.9083Z" fill="white"/>
<path d="M28.8406 36.9083H27.6719L27.8455 36.7001V34.3288L27.6719 34.1205H28.8406L28.6671 34.3288V36.7001L28.8406 36.9083Z" fill="white"/>
<path d="M33.4399 34.1205L33.2665 34.3288V36.9083H32.6449L31.1531 35.2695V36.7001L31.3265 36.9083H30.3477L30.5212 36.7001V34.3288L30.3477 34.1205H31.2278L32.6327 35.7348V34.3287L32.459 34.1205L33.4399 34.1205Z" fill="white"/>
<path d="M36.8601 35.7389L36.6827 35.5247H37.6655V36.6411C37.6077 36.6778 37.5316 36.7154 37.4375 36.7542C37.3433 36.793 37.2376 36.8284 37.1207 36.8603C37.0035 36.8923 36.8851 36.9175 36.7652 36.936C36.6457 36.9542 36.5285 36.9635 36.414 36.9635C36.1249 36.9635 35.8557 36.9125 35.6068 36.8104C35.3576 36.7084 35.1585 36.5485 35.0091 36.3308C34.8599 36.1133 34.7852 35.8404 34.7852 35.5126C34.7852 35.1846 34.8639 34.9118 35.0213 34.6942C35.1788 34.4765 35.3822 34.3173 35.632 34.2165C35.8817 34.116 36.1422 34.0656 36.414 34.0656C36.6081 34.0656 36.768 34.0809 36.8945 34.1115C37.0209 34.1422 37.1637 34.1854 37.3226 34.2411L37.5425 34.033V34.99C37.3661 34.8893 37.1905 34.8103 37.0157 34.7533C36.8407 34.6961 36.6537 34.6677 36.4544 34.6677C36.328 34.6677 36.2149 34.6877 36.1154 34.7278C36.0158 34.7679 35.9313 34.8254 35.8622 34.9001C35.7926 34.9751 35.7399 35.0638 35.7036 35.1666C35.6673 35.2693 35.6489 35.3845 35.6489 35.5125C35.6489 35.7695 35.7206 35.9753 35.864 36.1297C36.0074 36.2842 36.204 36.3614 36.4543 36.3614C36.5566 36.3614 36.6919 36.3457 36.8601 36.3145V35.7389H36.8601Z" fill="white"/>
<path d="M43.0047 35.7389L42.8272 35.5247H43.8101V36.6411C43.7522 36.6778 43.6762 36.7154 43.582 36.7542C43.4879 36.793 43.3824 36.8284 43.2653 36.8603C43.1481 36.8923 43.0296 36.9175 42.91 36.936C42.7902 36.9542 42.6731 36.9635 42.5589 36.9635C42.2694 36.9635 42.0002 36.9125 41.7514 36.8104C41.5025 36.7084 41.3033 36.5485 41.154 36.3308C41.0044 36.1133 40.9297 35.8404 40.9297 35.5126C40.9297 35.1846 41.0084 34.9118 41.1659 34.6942C41.3233 34.4765 41.5271 34.3173 41.7765 34.2165C42.0262 34.116 42.287 34.0656 42.5589 34.0656C42.7526 34.0656 42.9128 34.0809 43.0391 34.1115C43.1657 34.1422 43.3083 34.1854 43.4671 34.2411L43.687 34.033V34.99C43.5109 34.8893 43.335 34.8103 43.1603 34.7533C42.9853 34.6961 42.7982 34.6677 42.5992 34.6677C42.4726 34.6677 42.3595 34.6877 42.2599 34.7278C42.1604 34.7679 42.0759 34.8254 42.0067 34.9001C41.9374 34.9751 41.8844 35.0638 41.8482 35.1666C41.8119 35.2693 41.7938 35.3845 41.7938 35.5125C41.7938 35.7695 41.8654 35.9753 42.0085 36.1297C42.1519 36.2842 42.3489 36.3614 42.5991 36.3614C42.7014 36.3614 42.8367 36.3457 43.0047 36.3145L43.0047 35.7389Z" fill="white"/>
<path d="M48.0648 36.9083H46.8377L47.0111 36.7001L46.4825 35.9103H46.1351V36.7001L46.3088 36.9083H45.1562L45.3297 36.7001V34.3288L45.1562 34.1205H46.8758C47.2472 34.1205 47.5177 34.1982 47.6874 34.3533C47.857 34.5084 47.9417 34.7124 47.9417 34.9654C47.9417 35.1601 47.8857 35.3294 47.7742 35.4736C47.6625 35.6178 47.5105 35.7294 47.3178 35.8083L48.0648 36.9083ZM47.1142 35.0226C47.1142 34.9492 47.0976 34.8886 47.0646 34.8409C47.0316 34.7933 46.9883 34.7583 46.9345 34.7358C46.8806 34.7133 46.8219 34.7022 46.7589 34.7022H46.135V35.3879H46.6598C46.7906 35.3879 46.8988 35.3524 46.9848 35.2818C47.0712 35.211 47.1142 35.1246 47.1142 35.0226Z" fill="white"/>
<path d="M52.535 35.5124C52.535 35.8471 52.4596 36.1246 52.3088 36.3449C52.1581 36.5653 51.9625 36.7263 51.7226 36.8277C51.4824 36.9289 51.2234 36.9796 50.9464 36.9796C50.6705 36.9796 50.4118 36.9287 50.1702 36.8267C49.9286 36.7245 49.7319 36.5631 49.5799 36.3419C49.4276 36.1209 49.3516 35.8444 49.3516 35.5124C49.3516 35.258 49.3965 35.037 49.486 34.8491C49.5753 34.6613 49.6965 34.5086 49.8493 34.3909C50.0019 34.2733 50.1718 34.187 50.359 34.1318C50.5459 34.0766 50.7418 34.0491 50.9463 34.0491C51.1536 34.0491 51.3505 34.077 51.5377 34.1328C51.7246 34.1886 51.8932 34.2747 52.0434 34.3909C52.1932 34.5073 52.3128 34.6597 52.4016 34.8481C52.4906 35.0365 52.535 35.258 52.535 35.5124ZM51.6709 35.5124C51.6709 35.2416 51.6128 35.0304 51.4964 34.8787C51.3801 34.727 51.1967 34.6511 50.9464 34.6511C50.7809 34.6511 50.6437 34.6863 50.5347 34.7563C50.4257 34.8264 50.3458 34.9256 50.2952 35.0543C50.2449 35.1829 50.2198 35.3355 50.2198 35.5125C50.2198 35.6404 50.2336 35.7581 50.2611 35.8654C50.2888 35.9729 50.3323 36.0648 50.3923 36.1409C50.4521 36.2172 50.5282 36.2755 50.6204 36.3165C50.7124 36.3573 50.8211 36.3777 50.9464 36.3777C51.0727 36.3777 51.182 36.3573 51.2743 36.3165C51.3666 36.2755 51.4418 36.2172 51.5005 36.1409C51.5589 36.0648 51.6019 35.9745 51.6295 35.8705C51.6571 35.7665 51.6709 35.6471 51.6709 35.5124Z" fill="white"/>
<path d="M56.851 34.1205L56.6773 34.3288V35.896C56.6773 36.0906 56.6497 36.2551 56.5945 36.3898C56.5393 36.5245 56.4565 36.6337 56.3462 36.7174C56.2358 36.8012 56.0946 36.863 55.9225 36.9031C55.7502 36.9432 55.5416 36.9633 55.2968 36.9633C55.053 36.9633 54.8456 36.9432 54.674 36.9031C54.5024 36.863 54.3607 36.8011 54.249 36.7174C54.1372 36.6337 54.0539 36.5243 53.9987 36.3888C53.9435 36.2534 53.9159 36.0893 53.9159 35.8959V34.3287L53.7422 34.1205H54.905L54.7313 34.3287V35.8715C54.7313 36.0375 54.7816 36.1613 54.8817 36.2429C54.9821 36.3244 55.1204 36.3653 55.2968 36.3653C55.4729 36.3653 55.6113 36.3249 55.7125 36.2439C55.8134 36.163 55.8638 36.0388 55.8638 35.8715V34.3287L55.69 34.1205L56.851 34.1205Z" fill="white"/>
<path d="M61.0005 35.045C61.0005 35.4451 60.8777 35.7205 60.6321 35.8716C60.3864 36.0226 60.0672 36.0981 59.6744 36.0981H59.1939V36.7001L59.3676 36.9083H58.2148L58.3886 36.7001V34.3288L58.2148 34.1205H59.6985C59.9152 34.1205 60.1205 34.1464 60.3142 34.1982C60.508 34.2499 60.6708 34.3444 60.8028 34.4819C60.9345 34.6193 61.0005 34.8069 61.0005 35.045ZM60.1607 35.094C60.1607 34.9484 60.1172 34.8467 60.0306 34.789C59.9438 34.7312 59.8188 34.7023 59.6561 34.7023H59.1938V35.545H59.5834C59.7812 35.545 59.9271 35.5124 60.0203 35.4472C60.114 35.3818 60.1607 35.2641 60.1607 35.094Z" fill="white"/>
<path d="M5.14359 28.1815L4.97005 28.3897V29.9568C4.97005 30.1514 4.94247 30.3159 4.88727 30.4508C4.83206 30.5853 4.74929 30.6946 4.63906 30.7782C4.52871 30.8621 4.38738 30.9238 4.21511 30.964C4.04279 31.004 3.83435 31.0241 3.58937 31.0241C3.34574 31.0241 3.13828 31.004 2.96675 30.964C2.79509 30.9238 2.65345 30.862 2.54176 30.7782C2.43013 30.6946 2.34668 30.5851 2.29148 30.4496C2.23627 30.3141 2.2087 30.1502 2.2087 29.9567V28.3896L2.03516 28.1814H3.19782L3.02427 28.3896V29.9323C3.02427 30.0983 3.07429 30.2221 3.1747 30.3037C3.27492 30.3852 3.41321 30.426 3.58943 30.426C3.76572 30.426 3.90438 30.3858 4.00527 30.3048C4.10617 30.2238 4.15661 30.0997 4.15661 29.9323V28.3896L3.98307 28.1814H5.14359V28.1815Z" fill="white"/>
<path d="M9.6002 28.1815L9.42654 28.3897V30.9692H8.80483L7.31319 29.3304V30.761L7.48674 30.9692H6.50781L6.68136 30.761V28.3897L6.50781 28.1815H7.38786L8.79275 29.7956V28.3897L8.61902 28.1815H9.6002Z" fill="white"/>
<path d="M12.2781 30.9691H11.1094L11.2829 30.7609V28.3896L11.1094 28.1814H12.2781L12.1045 28.3896V30.7609L12.2781 30.9691Z" fill="white"/>
<path d="M16.573 28.1815L15.2751 30.9692H14.6998L13.4141 28.1815H14.5726L14.3991 28.3897L15.0692 29.9241L15.7637 28.3897L15.59 28.1815H16.573Z" fill="white"/>
<path d="M20.2833 30.9691H17.6875L17.861 30.7609V28.3896L17.6875 28.1814H20.2833V28.9385L20.0754 28.7629H18.6664V29.2977H19.5586L19.7625 29.1221V30.0283L19.5586 29.8527H18.6664V30.3875H20.0754L20.2833 30.2118V30.9691Z" fill="white"/>
<path d="M24.6626 30.9691H23.4353L23.609 30.7609L23.0801 29.9711H22.7329V30.7609L22.9066 30.9691H21.7539L21.9275 30.7609V28.3896L21.7539 28.1814H23.4737C23.8452 28.1814 24.1156 28.259 24.2852 28.414C24.4547 28.5692 24.5395 28.7732 24.5395 29.0262C24.5395 29.2208 24.4837 29.3902 24.3719 29.5343C24.2601 29.6786 24.1081 29.7901 23.9157 29.8691L24.6626 30.9691ZM23.7119 29.0834C23.7119 29.0101 23.6954 28.9494 23.6624 28.9018C23.6294 28.8542 23.586 28.8191 23.5323 28.7967C23.4785 28.7743 23.4199 28.763 23.3566 28.763H22.7329V29.4488H23.2577C23.3883 29.4488 23.4966 29.4134 23.5828 29.3426C23.6688 29.2718 23.7119 29.1854 23.7119 29.0834Z" fill="white"/>
<path d="M28.5755 30.1547C28.5755 30.2895 28.5523 30.4105 28.5059 30.5181C28.4595 30.6255 28.3874 30.7187 28.2898 30.7977C28.1923 30.8765 28.0699 30.9374 27.9225 30.9801C27.7751 31.0232 27.6005 31.0444 27.3987 31.0444C27.2763 31.0444 27.1446 31.0323 27.0042 31.0079C26.8634 30.9832 26.7275 30.9521 26.5963 30.9138C26.4651 30.8759 26.3673 30.8438 26.3027 30.8181L26.0827 31.0609V30.0284C26.2926 30.1672 26.5155 30.2699 26.7517 30.3374C26.9879 30.4048 27.1908 30.4385 27.3603 30.4385C27.4479 30.4385 27.5269 30.4232 27.5976 30.3926C27.6682 30.362 27.7035 30.3031 27.7035 30.2158C27.7035 30.1464 27.6725 30.0935 27.6107 30.0567C27.5487 30.0201 27.4347 29.979 27.2685 29.9334C27.1024 29.8878 26.9923 29.8555 26.9385 29.8362C26.6451 29.7332 26.4264 29.6122 26.2825 29.4742C26.1384 29.336 26.0664 29.1459 26.0664 28.9037C26.0664 28.7663 26.1064 28.6374 26.1865 28.517C26.2666 28.3966 26.4005 28.298 26.5883 28.221C26.7759 28.1442 27.0159 28.1056 27.3078 28.1056C27.3751 28.1056 27.4471 28.1107 27.5238 28.121C27.6005 28.1311 27.6853 28.1464 27.7781 28.1668C27.871 28.1872 27.953 28.2088 28.0244 28.2311C28.0958 28.2538 28.1597 28.2771 28.2163 28.3017L28.4362 28.0895V29.0221C28.3057 28.9595 28.1688 28.9048 28.0254 28.8578C27.8821 28.8108 27.7446 28.7748 27.6127 28.7496C27.4808 28.7244 27.3664 28.7119 27.2695 28.7119C27.1605 28.7119 27.0747 28.729 27.0121 28.7629C26.9496 28.7969 26.9182 28.8411 26.9182 28.8955C26.9182 28.9473 26.9418 28.9921 26.989 29.0303C27.0361 29.0682 27.0962 29.1014 27.1695 29.1292C27.2429 29.1572 27.3385 29.1878 27.4562 29.221C27.574 29.2544 27.6605 29.2799 27.7156 29.2977C27.9914 29.3887 28.2037 29.5019 28.3524 29.6373C28.5011 29.7729 28.5755 29.9454 28.5755 30.1547Z" fill="white"/>
<path d="M33.1304 30.9691H31.9635L32.1372 30.7609L32.006 30.4671H30.6898L30.5545 30.7609L30.7282 30.9691H29.7148L30.9422 28.3896L30.8432 28.1814H31.7739L33.1304 30.9691ZM31.802 29.965L31.3437 28.967L30.8898 29.965H31.802Z" fill="white"/>
<path d="M36.8216 30.9691H34.3086L34.482 30.7609V28.3896L34.3086 28.1814H35.4611L35.2874 28.3896V30.3875H36.6136L36.8216 30.2119V30.9691Z" fill="white"/>
<path d="M43.7322 30.9691H42.6038L42.7775 30.7609V29.4222L42.0468 30.9691H41.6614L40.8357 29.3978V30.7609L41.0093 30.9691H40.0547L40.2281 30.7609V28.3896L40.0547 28.1814H41.0256L41.9216 29.8875L42.7413 28.1814H43.7323L43.5586 28.3896V30.7609L43.7322 30.9691Z" fill="white"/>
<path d="M48.2062 28.1815L48.0324 28.3897V29.9568C48.0324 30.1514 48.0049 30.3159 47.9496 30.4508C47.8945 30.5853 47.8117 30.6946 47.7016 30.7782C47.5912 30.8621 47.4498 30.9238 47.2777 30.964C47.1053 31.004 46.8968 31.0241 46.6519 31.0241C46.4082 31.0241 46.2007 31.004 46.0291 30.964C45.8576 30.9238 45.7158 30.862 45.6041 30.7782C45.4926 30.6946 45.4091 30.5851 45.3539 30.4496C45.2987 30.3142 45.2711 30.1502 45.2711 29.9567V28.3896L45.0977 28.1814H46.2602L46.0868 28.3896V29.9323C46.0868 30.0983 46.1368 30.2221 46.2372 30.3037C46.3373 30.3852 46.4755 30.426 46.6519 30.426C46.828 30.426 46.9668 30.3858 47.0677 30.3048C47.1686 30.2238 47.2189 30.0997 47.2189 29.9323V28.3896L47.0455 28.1814H48.2062V28.1815Z" fill="white"/>
<path d="M52.0363 30.1547C52.0363 30.2895 52.013 30.4105 51.9667 30.5181C51.9201 30.6255 51.8482 30.7187 51.7505 30.7977C51.6531 30.8765 51.5306 30.9374 51.3832 30.9801C51.236 31.0232 51.0612 31.0444 50.8594 31.0444C50.7372 31.0444 50.6054 31.0323 50.465 31.0079C50.3242 30.9832 50.1882 30.9521 50.057 30.9138C49.9259 30.8759 49.8281 30.8438 49.7635 30.8181L49.5435 31.0609V30.0284C49.7535 30.1672 49.9764 30.2699 50.2126 30.3374C50.4487 30.4048 50.6516 30.4385 50.821 30.4385C50.9087 30.4385 50.9877 30.4232 51.0583 30.3926C51.129 30.362 51.1643 30.3031 51.1643 30.2158C51.1643 30.1464 51.1332 30.0935 51.0716 30.0567C51.0096 30.0201 50.8954 29.979 50.7293 29.9334C50.5632 29.8878 50.4531 29.8555 50.3993 29.8362C50.106 29.7332 49.8871 29.6122 49.7432 29.4742C49.5993 29.336 49.5273 29.1459 49.5273 28.9037C49.5273 28.7663 49.5674 28.6374 49.6475 28.517C49.7275 28.3966 49.8615 28.298 50.0492 28.221C50.2367 28.1442 50.4767 28.1056 50.7686 28.1056C50.8359 28.1056 50.9079 28.1107 50.9848 28.121C51.0613 28.1311 51.1462 28.1464 51.2391 28.1668C51.3319 28.1873 51.4138 28.2088 51.4853 28.2311C51.5567 28.2538 51.6206 28.2771 51.6771 28.3017L51.897 28.0895V29.0221C51.7666 28.9595 51.6297 28.9048 51.4864 28.8578C51.343 28.8108 51.2055 28.7748 51.0734 28.7496C50.9418 28.7244 50.8273 28.7119 50.7304 28.7119C50.6214 28.7119 50.5357 28.729 50.4728 28.7629C50.4104 28.7969 50.379 28.8411 50.379 28.8955C50.379 28.9473 50.4026 28.9921 50.4498 29.0303C50.4969 29.0682 50.557 29.1014 50.6303 29.1292C50.7036 29.1572 50.7994 29.1878 50.9171 29.221C51.0348 29.2544 51.1213 29.2799 51.1765 29.2977C51.4523 29.3887 51.6646 29.5019 51.8134 29.6373C51.9619 29.7729 52.0363 29.9454 52.0363 30.1547Z" fill="white"/>
<path d="M54.6726 30.9691H53.5039L53.6776 30.7609V28.3896L53.5039 28.1814H54.6726L54.4992 28.3896V30.7609L54.6726 30.9691Z" fill="white"/>
<path d="M58.7138 30.7692C58.6626 30.7989 58.5975 30.829 58.5182 30.8589C58.4386 30.8887 58.3513 30.9156 58.2557 30.9394C58.16 30.9632 58.0569 30.9834 57.9457 30.9997C57.8348 31.0159 57.7296 31.0241 57.63 31.0241C57.4146 31.0241 57.2117 30.9963 57.0213 30.9405C56.8308 30.8847 56.6612 30.7978 56.5127 30.6793C56.3639 30.5609 56.2473 30.4085 56.1623 30.2221C56.0776 30.0358 56.0352 29.8193 56.0352 29.5731C56.0352 29.3692 56.0709 29.1785 56.1423 29.0018C56.2135 28.825 56.3192 28.671 56.4591 28.5395C56.599 28.4084 56.7703 28.3066 56.9728 28.2345C57.1755 28.1625 57.4057 28.1263 57.6643 28.1263C57.7663 28.1263 57.8708 28.1336 57.9771 28.1478C58.0834 28.162 58.1814 28.1801 58.2709 28.2019C58.3602 28.2238 58.4435 28.249 58.5201 28.2773L58.7096 28.0938V29.0223C58.6074 28.9583 58.5044 28.905 58.3999 28.862C58.2958 28.8192 58.1856 28.7863 58.0699 28.7631C57.9541 28.7399 57.8337 28.7286 57.7087 28.7286C57.4355 28.7286 57.2323 28.8076 57.0989 28.9662C56.9658 29.1246 56.8993 29.3271 56.8993 29.5733C56.8993 29.7407 56.9336 29.8886 57.0021 30.0172C57.0708 30.1458 57.169 30.2455 57.297 30.316C57.4247 30.3869 57.5708 30.4223 57.735 30.4223C57.8871 30.4223 58.0259 30.4058 58.1517 30.3733C58.2775 30.3406 58.3818 30.3029 58.4647 30.26C58.5474 30.2172 58.6305 30.1693 58.7138 30.1161L58.7138 30.7692Z" fill="white"/>
</g>
<defs>
<clipPath id="clip0_566_110">
<rect width="61" height="37" fill="white"/>
</clipPath>
</defs>
</svg>
