<svg width="264" height="264" viewBox="0 0 264 264" fill="none" xmlns="http://www.w3.org/2000/svg">
<rect width="117" height="117" rx="30" fill="white"/>
<path d="M16 73.5619C16 74.6134 16.3824 75.4085 17.1471 75.9474C17.9118 76.4863 18.7292 76.6768 19.5993 76.5191C20.4167 76.3614 20.9903 76.0723 21.32 75.6517C21.6495 75.2312 21.8144 74.5345 21.8144 73.5619V62.1274C21.8144 61.3125 21.531 60.6225 20.964 60.0574C20.3972 59.4922 19.705 59.2096 18.8875 59.2096C18.0964 59.2096 17.4174 59.4922 16.8505 60.0574C16.2835 60.6225 16 61.3125 16 62.1274V73.5619ZM25.0973 78.4512C25.0973 79.2136 25.3676 79.7852 25.9081 80.1665C26.4487 80.5477 27.1409 80.7382 27.9846 80.7382C28.8548 80.7382 29.5601 80.5476 30.1007 80.1665C30.6413 79.7853 30.9116 79.2136 30.9116 78.4512V51.797C30.9116 51.0084 30.628 50.3314 30.0612 49.7663C29.4942 49.2013 28.8021 48.9186 27.9846 48.9186C27.1936 48.9186 26.5145 49.2013 25.9477 49.7663C25.3807 50.3315 25.0973 51.0084 25.0973 51.797V78.4512ZM34.155 79.7129C34.155 80.4753 34.4318 81.047 34.9856 81.4282C35.5393 81.8093 36.2513 81.9999 37.1215 81.9999C37.9653 81.9999 38.6574 81.8093 39.198 81.4282C39.7386 81.047 40.0089 80.4753 40.0089 79.7129V55.385C40.0089 54.5702 39.7254 53.8735 39.1585 53.2952C38.5916 52.717 37.9126 52.4279 37.1215 52.4279C36.304 52.4279 35.6053 52.717 35.0252 53.2952C34.4451 53.8735 34.155 54.5702 34.155 55.385V79.7129H34.155ZM43.2522 79.8312C43.2522 81.277 44.2278 81.9999 46.1791 81.9999C48.1304 81.9999 49.106 81.277 49.106 79.8312V40.4019C49.106 38.1938 48.4336 36.9452 47.0888 36.656C46.2186 36.4457 45.3616 36.6955 44.5178 37.4052C43.674 38.1149 43.2521 39.1138 43.2521 40.4018V79.8312H43.2522ZM52.5078 80.9747V38.0755C52.5078 36.7086 52.9164 35.8938 53.7339 35.6309C55.5005 35.2103 57.2541 35 58.9945 35C63.0288 35 66.7865 35.9463 70.2671 37.8389C73.7478 39.7315 76.5627 42.3142 78.7117 45.5868C80.8608 48.8595 82.1067 52.4672 82.4495 56.4102C84.058 55.7268 85.7719 55.3851 87.5913 55.3851C91.283 55.3851 94.4407 56.6862 97.0644 59.2886C99.6881 61.891 101 65.019 101 68.6729C101 72.353 99.6881 75.4941 97.0644 78.0965C94.4407 80.6988 91.2962 82 87.6309 82L53.2196 81.9606C52.9821 81.8817 52.8041 81.7371 52.6855 81.5268C52.5668 81.3166 52.5078 81.1324 52.5078 80.9747Z" fill="url(#paint0_linear_1241_818)"/>
<rect x="147" y="147" width="117" height="117" rx="30" fill="white"/>
<path fill-rule="evenodd" clip-rule="evenodd" d="M241 191.835C241 190.963 241 190.091 240.996 189.219C240.992 188.485 240.984 187.751 240.965 187.017C240.923 185.417 240.83 183.805 240.554 182.223C240.274 180.617 239.815 179.123 239.093 177.663C238.383 176.229 237.456 174.919 236.35 173.782C235.243 172.644 233.967 171.691 232.573 170.961C231.155 170.219 229.701 169.748 228.141 169.458C226.603 169.174 225.033 169.079 223.477 169.037C222.763 169.016 222.049 169.008 221.335 169.004C220.487 169 219.639 169 218.791 169H192.209C191.361 169 190.513 169 189.665 169.004C188.951 169.008 188.237 169.016 187.523 169.037C185.967 169.081 184.397 169.174 182.859 169.46C181.297 169.748 179.845 170.221 178.427 170.963C177.033 171.693 175.757 172.646 174.65 173.784C173.544 174.921 172.617 176.231 171.907 177.665C171.185 179.125 170.726 180.619 170.446 182.225C170.17 183.807 170.077 185.421 170.036 187.019C170.016 187.753 170.008 188.487 170.004 189.221C170 190.091 170 190.963 170 191.835V219.164C170 220.036 170 220.908 170.004 221.78C170.008 222.514 170.016 223.248 170.036 223.982C170.077 225.582 170.17 227.195 170.446 228.776C170.726 230.382 171.185 231.877 171.907 233.337C172.617 234.77 173.544 236.08 174.65 237.218C175.757 238.356 177.033 239.309 178.427 240.039C179.845 240.781 181.299 241.251 182.859 241.541C184.397 241.825 185.967 241.921 187.523 241.963C188.237 241.983 188.951 241.992 189.665 241.996C190.513 242.002 191.361 242 192.209 242H218.789C219.637 242 220.485 242 221.333 241.996C222.047 241.992 222.761 241.983 223.475 241.963C225.031 241.921 226.601 241.825 228.139 241.541C229.701 241.253 231.153 240.781 232.571 240.039C233.965 239.309 235.241 238.356 236.348 237.218C237.454 236.08 238.381 234.77 239.091 233.337C239.813 231.877 240.272 230.382 240.552 228.776C240.828 227.195 240.921 225.58 240.963 223.982C240.982 223.248 240.99 222.514 240.994 221.78C241 220.908 240.998 220.036 240.998 219.164V191.835H241Z" fill="url(#paint1_linear_1241_818)"/>
<path fill-rule="evenodd" clip-rule="evenodd" d="M220.195 180.152C220.024 180.169 218.499 180.447 218.316 180.485L197.213 184.863L197.205 184.865C196.655 184.985 196.223 185.186 195.889 185.473C195.487 185.82 195.264 186.311 195.179 186.883C195.162 187.004 195.132 187.252 195.132 187.617C195.132 187.617 195.132 209.785 195.132 214.774C195.132 215.408 195.083 216.025 194.665 216.55C194.247 217.075 193.73 217.233 193.124 217.359C192.665 217.454 192.205 217.55 191.746 217.645C190.002 218.006 188.868 218.251 187.841 218.661C186.859 219.052 186.123 219.551 185.537 220.184C184.376 221.435 183.904 223.132 184.066 224.722C184.204 226.079 184.798 227.376 185.817 228.336C186.506 228.985 187.366 229.477 188.379 229.686C189.43 229.903 190.551 229.828 192.188 229.487C193.059 229.307 193.876 229.025 194.653 228.553C195.422 228.086 196.081 227.464 196.596 226.705C197.112 225.945 197.446 225.099 197.629 224.201C197.818 223.274 197.864 222.437 197.864 221.512V197.959C197.864 196.697 198.211 196.365 199.201 196.118C199.201 196.118 216.742 192.48 217.56 192.315C218.702 192.09 219.241 192.425 219.241 193.656V209.734C219.241 210.371 219.235 211.016 218.813 211.543C218.395 212.068 217.878 212.227 217.272 212.352C216.813 212.448 216.353 212.543 215.894 212.638C214.15 212.999 213.016 213.245 211.989 213.654C211.007 214.046 210.271 214.544 209.685 215.177C208.524 216.428 208.011 218.126 208.172 219.715C208.311 221.072 208.946 222.37 209.965 223.329C210.654 223.978 211.513 224.456 212.527 224.667C213.578 224.884 214.699 224.807 216.336 224.469C217.207 224.288 218.024 224.018 218.801 223.546C219.57 223.079 220.229 222.457 220.743 221.699C221.26 220.938 221.593 220.093 221.777 219.194C221.966 218.267 221.974 217.43 221.974 216.505V182.071C221.978 180.822 221.337 180.051 220.195 180.152Z" fill="white"/>
<rect y="147" width="117" height="117" rx="30" fill="#101010"/>
<path fill-rule="evenodd" clip-rule="evenodd" d="M81.8706 181.527C82.5089 177.827 83.4456 175.5 84.4833 175.496H84.4856C86.4205 175.502 87.9889 183.572 87.9889 193.534C87.9889 203.497 86.4182 211.572 84.4811 211.572C83.687 211.572 82.9544 210.201 82.3642 207.903C81.4318 216.315 79.497 222.097 77.2571 222.097C75.524 222.097 73.9687 218.624 72.9245 213.146C72.2115 223.564 70.4171 230.955 68.3198 230.955C67.0036 230.955 65.8036 228.026 64.9152 223.257C63.8467 233.102 61.3788 240 58.5006 240C55.6224 240 53.1502 233.104 52.0862 223.257C51.2042 228.026 50.0044 230.955 48.6815 230.955C46.5843 230.955 44.7941 223.564 44.0769 213.146C43.0327 218.624 41.4817 222.097 39.7443 222.097C37.5067 222.097 35.5696 216.317 34.6373 207.903C34.0516 210.208 33.3145 211.572 32.5204 211.572C30.5834 211.572 29.0126 203.497 29.0126 193.534C29.0126 183.572 30.5834 175.496 32.5204 175.496C33.5603 175.496 34.4905 177.829 35.1354 181.527C36.1687 175.147 37.8469 171 39.7444 171C41.9975 171 43.9499 176.865 44.8734 185.38C45.7772 179.182 47.1483 175.231 48.6839 175.231C50.8358 175.231 52.6655 183.003 53.3434 193.843C54.6179 188.285 56.4628 184.798 58.5052 184.798C60.5476 184.798 62.3925 188.287 63.6649 193.843C64.3449 183.003 66.1723 175.231 68.3244 175.231C69.8577 175.231 71.2267 179.182 72.1349 185.38C73.0561 176.865 75.0086 171 77.2616 171C79.1526 171 80.8374 175.149 81.8706 181.527ZM24 191.76C24 187.306 24.8907 183.695 25.9897 183.695C27.0886 183.695 27.9793 187.306 27.9793 191.76C27.9793 196.213 27.0886 199.825 25.9897 199.825C24.8907 199.825 24 196.213 24 191.76ZM89.0205 191.76C89.0205 187.306 89.9111 183.695 91.0102 183.695C92.1093 183.695 93 187.307 93 191.76C93 196.213 92.1093 199.825 91.0102 199.825C89.9111 199.825 89.0205 196.213 89.0205 191.76Z" fill="#A238FF"/>
<rect x="147" width="117" height="117" rx="30" fill="#101010"/>
<path d="M205.5 23C185.894 23 170 38.8942 170 58.5002C170 78.1071 185.894 94 205.5 94C225.107 94 241 78.1071 241 58.5002C241 38.8954 225.107 23.0017 205.499 23.0017L205.5 23ZM221.78 74.2015C221.144 75.2443 219.779 75.575 218.736 74.9349C210.401 69.8436 199.908 68.6905 187.551 71.5138C186.361 71.7851 185.174 71.039 184.902 69.8478C184.63 68.6566 185.373 67.4696 186.567 67.1983C200.089 64.1074 211.689 65.439 221.046 71.1577C222.089 71.7978 222.42 73.1586 221.78 74.2015ZM226.125 64.5339C225.324 65.8375 223.62 66.2487 222.318 65.4475C212.776 59.5808 198.23 57.8821 186.943 61.3083C185.48 61.7504 183.934 60.9255 183.489 59.4642C183.048 58.0004 183.874 56.4573 185.335 56.0122C198.228 52.1002 214.255 53.9952 225.213 60.7292C226.515 61.5304 226.926 63.2342 226.125 64.5339ZM226.498 54.4683C215.056 47.6724 196.18 47.0475 185.256 50.363C183.502 50.895 181.647 49.9047 181.115 48.1505C180.583 46.3955 181.573 44.5417 183.328 44.0084C195.868 40.2015 216.714 40.9371 229.887 48.7572C231.468 49.6936 231.985 51.7314 231.048 53.3071C230.116 54.885 228.072 55.4051 226.5 54.4683H226.498Z" fill="#1ED760"/>
<defs>
<linearGradient id="paint0_linear_1241_818" x1="106493" y1="1808.4" x2="106493" y2="63908.8" gradientUnits="userSpaceOnUse">
<stop stop-color="#FF8800"/>
<stop offset="1" stop-color="#FF3300"/>
</linearGradient>
<linearGradient id="paint1_linear_1241_818" x1="205.5" y1="241.719" x2="205.5" y2="170.573" gradientUnits="userSpaceOnUse">
<stop stop-color="#FA233B"/>
<stop offset="1" stop-color="#FB5C74"/>
</linearGradient>
</defs>
</svg>
