<svg width="599" height="287" viewBox="0 0 599 287" fill="none" xmlns="http://www.w3.org/2000/svg">
<g clip-path="url(#clip0_1254_555)">
<rect x="10" y="10" width="579" height="43" rx="10" fill="white"/>
<rect x="25" y="25.5" width="12" height="12" rx="6" fill="#99A0E0"/>
<path d="M47.18 24.5H51.62V38.5H50.6V25.42H47.18V24.5ZM62.6508 31.18C64.5708 31.68 65.6708 32.92 65.6708 34.66C65.6708 37.1 63.6508 38.6 60.3508 38.6C57.0508 38.6 55.0708 37.1 55.0708 34.66C55.0708 32.9 56.1508 31.68 58.0508 31.18C56.4508 30.66 55.5708 29.56 55.5708 28.02C55.5708 25.78 57.4508 24.4 60.3508 24.4C63.2508 24.4 65.1708 25.78 65.1708 28.02C65.1708 29.56 64.2708 30.66 62.6508 31.18ZM56.5908 28.04C56.5908 29.72 57.9708 30.78 60.3508 30.78C62.7308 30.78 64.1508 29.72 64.1508 28.06C64.1508 26.34 62.6708 25.28 60.3508 25.28C58.0308 25.28 56.5908 26.34 56.5908 28.04ZM60.3508 37.72C63.0508 37.72 64.6508 36.54 64.6508 34.66C64.6508 32.8 63.0508 31.62 60.3508 31.62C57.6508 31.62 56.0908 32.8 56.0908 34.66C56.0908 36.54 57.6508 37.72 60.3508 37.72ZM66.2275 40.5L72.8275 21.66H73.7475L67.1475 40.5H66.2275ZM79.2831 38.6C76.0631 38.6 73.8031 35.88 73.8031 31.5C73.8031 27.12 76.0631 24.4 79.2831 24.4C82.5031 24.4 84.7631 27.12 84.7631 31.5C84.7631 35.88 82.5031 38.6 79.2831 38.6ZM79.2831 37.66C81.9231 37.66 83.7431 35.4 83.7431 31.5C83.7431 27.6 81.9231 25.34 79.2831 25.34C76.6431 25.34 74.8231 27.6 74.8231 31.5C74.8231 35.4 76.6431 37.66 79.2831 37.66ZM90.3872 30.36C94.6472 30.36 96.2072 31.98 96.2072 34.46C96.2072 36.8 94.5872 38.6 91.3072 38.6C89.2672 38.6 87.3672 37.84 86.3872 36.72L86.9072 35.94C87.7472 36.92 89.4072 37.66 91.2872 37.66C93.8672 37.66 95.1872 36.36 95.1872 34.5C95.1872 32.5 93.9672 31.28 90.1672 31.28H87.3272L88.0672 24.5H95.4872V25.42H88.9272L88.3872 30.36H90.3872ZM96.5595 40.5L103.16 21.66H104.08L97.4795 40.5H96.5595ZM105.746 37.58H113.866V38.5H104.246V37.78L110.166 31.9C111.826 30.24 112.146 29.26 112.146 28.2C112.146 26.44 110.926 25.34 108.606 25.34C106.846 25.34 105.546 25.86 104.586 26.96L103.866 26.32C104.926 25.1 106.586 24.4 108.686 24.4C111.426 24.4 113.186 25.82 113.186 28.1C113.186 29.44 112.746 30.62 110.906 32.44L105.746 37.58ZM121.197 38.6C117.977 38.6 115.717 35.88 115.717 31.5C115.717 27.12 117.977 24.4 121.197 24.4C124.417 24.4 126.677 27.12 126.677 31.5C126.677 35.88 124.417 38.6 121.197 38.6ZM121.197 37.66C123.837 37.66 125.657 35.4 125.657 31.5C125.657 27.6 123.837 25.34 121.197 25.34C118.557 25.34 116.737 27.6 116.737 31.5C116.737 35.4 118.557 37.66 121.197 37.66ZM130.082 37.58H138.202V38.5H128.582V37.78L134.502 31.9C136.162 30.24 136.482 29.26 136.482 28.2C136.482 26.44 135.262 25.34 132.942 25.34C131.182 25.34 129.882 25.86 128.922 26.96L128.202 26.32C129.262 25.1 130.922 24.4 133.022 24.4C135.762 24.4 137.522 25.82 137.522 28.1C137.522 29.44 137.082 30.62 135.242 32.44L130.082 37.58ZM151.284 33.72V34.62H148.344V38.5H147.344V34.62H139.364V33.88L146.964 24.5H148.104L140.644 33.72H147.364V30.3H148.344V33.72H151.284Z" fill="#200944"/>
<path d="M239.76 24.5H241.76L235.62 38.5H233.64L227.48 24.5H229.64L234.68 36L239.76 24.5ZM252.045 33.26C252.045 33.42 252.025 33.66 252.005 33.84H243.405C243.645 35.7 245.145 36.94 247.245 36.94C248.485 36.94 249.525 36.52 250.305 35.66L251.365 36.9C250.405 38.02 248.945 38.62 247.185 38.62C243.765 38.62 241.485 36.36 241.485 33.2C241.485 30.06 243.745 27.8 246.805 27.8C249.865 27.8 252.045 30 252.045 33.26ZM246.805 29.42C244.965 29.42 243.605 30.66 243.405 32.46H250.205C250.005 30.68 248.665 29.42 246.805 29.42ZM256.551 29.68C257.231 28.44 258.551 27.8 260.411 27.8V29.66C260.251 29.64 260.111 29.64 259.971 29.64C257.911 29.64 256.631 30.9 256.631 33.22V38.5H254.711V27.9H256.551V29.68ZM265.895 38.62C264.135 38.62 262.395 38.08 261.515 37.38L262.315 35.86C263.215 36.5 264.655 36.96 266.035 36.96C267.815 36.96 268.555 36.42 268.555 35.52C268.555 33.14 261.855 35.2 261.855 30.98C261.855 29.08 263.555 27.8 266.275 27.8C267.655 27.8 269.215 28.16 270.135 28.76L269.315 30.28C268.355 29.66 267.295 29.44 266.255 29.44C264.575 29.44 263.755 30.06 263.755 30.9C263.755 33.4 270.475 31.36 270.475 35.48C270.475 37.4 268.715 38.62 265.895 38.62ZM273.835 25.86C273.095 25.86 272.535 25.32 272.535 24.62C272.535 23.92 273.095 23.36 273.835 23.36C274.575 23.36 275.135 23.9 275.135 24.58C275.135 25.3 274.595 25.86 273.835 25.86ZM272.875 38.5V27.9H274.795V38.5H272.875ZM283.001 38.62C279.821 38.62 277.481 36.36 277.481 33.2C277.481 30.04 279.821 27.8 283.001 27.8C286.181 27.8 288.501 30.04 288.501 33.2C288.501 36.36 286.181 38.62 283.001 38.62ZM283.001 36.94C285.041 36.94 286.561 35.46 286.561 33.2C286.561 30.94 285.041 29.48 283.001 29.48C280.961 29.48 279.421 30.94 279.421 33.2C279.421 35.46 280.961 36.94 283.001 36.94ZM296.816 27.8C299.396 27.8 301.216 29.28 301.216 32.4V38.5H299.296V32.62C299.296 30.54 298.256 29.52 296.436 29.52C294.396 29.52 293.076 30.74 293.076 33.04V38.5H291.156V27.9H292.996V29.5C293.776 28.42 295.136 27.8 296.816 27.8ZM309.46 33.84V32.18H314.84V33.84H309.46ZM321.508 24.5H326.648V38.5H324.668V26.24H321.508V24.5Z" fill="#200944"/>
<g filter="url(#filter0_d_1254_555)">
<rect x="405" y="17.5" width="141" height="28" rx="14" fill="#200944"/>
<mask id="mask0_1254_555" style="mask-type:alpha" maskUnits="userSpaceOnUse" x="417" y="23" width="16" height="17">
<rect x="417" y="23.5" width="16" height="16" fill="#D9D9D9"/>
</mask>
<g mask="url(#mask0_1254_555)">
<path d="M425.001 34.167L421.668 30.8337L422.601 29.867L424.335 31.6003V26.167H425.668V31.6003L427.401 29.867L428.335 30.8337L425.001 34.167ZM421.001 36.8337C420.635 36.8337 420.321 36.7031 420.06 36.442C419.799 36.1809 419.668 35.867 419.668 35.5003V33.5003H421.001V35.5003H429.001V33.5003H430.335V35.5003C430.335 35.867 430.204 36.1809 429.943 36.442C429.682 36.7031 429.368 36.8337 429.001 36.8337H421.001Z" fill="white"/>
</g>
<path d="M441.904 37.5V27.692H438.064V26.3H447.328V27.692H443.488V37.5H441.904ZM454.356 25.708L451.668 27.788H450.228L452.404 25.708H454.356ZM455.636 33.308C455.636 33.436 455.62 33.628 455.604 33.772H448.724C448.916 35.26 450.116 36.252 451.796 36.252C452.788 36.252 453.62 35.916 454.244 35.228L455.092 36.22C454.324 37.116 453.156 37.596 451.748 37.596C449.012 37.596 447.188 35.788 447.188 33.26C447.188 30.748 448.996 28.94 451.444 28.94C453.892 28.94 455.636 30.7 455.636 33.308ZM451.444 30.236C449.972 30.236 448.884 31.228 448.724 32.668H454.164C454.004 31.244 452.932 30.236 451.444 30.236ZM457.769 37.5V25.628H459.305V37.5H457.769ZM468.621 25.708L465.933 27.788H464.493L466.669 25.708H468.621ZM469.901 33.308C469.901 33.436 469.885 33.628 469.869 33.772H462.989C463.181 35.26 464.381 36.252 466.061 36.252C467.053 36.252 467.885 35.916 468.509 35.228L469.357 36.22C468.589 37.116 467.421 37.596 466.013 37.596C463.277 37.596 461.453 35.788 461.453 33.26C461.453 30.748 463.261 28.94 465.709 28.94C468.157 28.94 469.901 30.7 469.901 33.308ZM465.709 30.236C464.237 30.236 463.149 31.228 462.989 32.668H468.429C468.269 31.244 467.197 30.236 465.709 30.236ZM475.73 37.596C473.122 37.596 471.25 35.788 471.25 33.26C471.25 30.732 473.122 28.94 475.73 28.94C477.25 28.94 478.514 29.564 479.186 30.748L478.018 31.5C477.474 30.668 476.642 30.284 475.714 30.284C474.05 30.284 472.802 31.452 472.802 33.26C472.802 35.1 474.05 36.252 475.714 36.252C476.642 36.252 477.474 35.868 478.018 35.036L479.186 35.772C478.514 36.956 477.25 37.596 475.73 37.596ZM485.593 28.94C487.657 28.94 489.113 30.124 489.113 32.62V37.5H487.577V32.796C487.577 31.132 486.745 30.316 485.289 30.316C483.657 30.316 482.601 31.292 482.601 33.132V37.5H481.065V25.628H482.601V30.22C483.241 29.404 484.297 28.94 485.593 28.94ZM495.044 28.94C497.364 28.94 498.676 30.06 498.676 32.38V37.5H497.22V36.38C496.708 37.148 495.764 37.596 494.436 37.596C492.516 37.596 491.3 36.572 491.3 35.1C491.3 33.74 492.18 32.62 494.708 32.62H497.14V32.316C497.14 31.02 496.388 30.268 494.868 30.268C493.86 30.268 492.836 30.62 492.18 31.18L491.54 30.028C492.42 29.324 493.684 28.94 495.044 28.94ZM494.692 36.412C495.844 36.412 496.756 35.884 497.14 34.908V33.724H494.772C493.252 33.724 492.82 34.316 492.82 35.036C492.82 35.884 493.524 36.412 494.692 36.412ZM502.991 30.444C503.535 29.452 504.591 28.94 506.079 28.94V30.428C505.951 30.412 505.839 30.412 505.727 30.412C504.079 30.412 503.055 31.42 503.055 33.276V37.5H501.519V29.02H502.991V30.444ZM514.55 29.02H516.006V36.348C516.006 39.34 514.486 40.7 511.606 40.7C510.054 40.7 508.486 40.268 507.558 39.436L508.294 38.252C509.078 38.924 510.31 39.356 511.558 39.356C513.558 39.356 514.47 38.428 514.47 36.508V35.836C513.734 36.716 512.63 37.148 511.414 37.148C508.966 37.148 507.11 35.484 507.11 33.036C507.11 30.588 508.966 28.94 511.414 28.94C512.678 28.94 513.83 29.404 514.55 30.332V29.02ZM511.59 35.804C513.286 35.804 514.502 34.668 514.502 33.036C514.502 31.388 513.286 30.284 511.59 30.284C509.878 30.284 508.662 31.388 508.662 33.036C508.662 34.668 509.878 35.804 511.59 35.804ZM526.604 33.308C526.604 33.436 526.588 33.628 526.572 33.772H519.692C519.884 35.26 521.084 36.252 522.764 36.252C523.756 36.252 524.588 35.916 525.212 35.228L526.06 36.22C525.292 37.116 524.124 37.596 522.716 37.596C519.98 37.596 518.156 35.788 518.156 33.26C518.156 30.748 519.964 28.94 522.412 28.94C524.86 28.94 526.604 30.7 526.604 33.308ZM522.412 30.236C520.94 30.236 519.852 31.228 519.692 32.668H525.132C524.972 31.244 523.9 30.236 522.412 30.236ZM530.209 30.444C530.753 29.452 531.809 28.94 533.297 28.94V30.428C533.169 30.412 533.057 30.412 532.945 30.412C531.297 30.412 530.273 31.42 530.273 33.276V37.5H528.737V29.02H530.209V30.444Z" fill="white"/>
</g>
<g filter="url(#filter1_d_1254_555)">
<mask id="mask1_1254_555" style="mask-type:alpha" maskUnits="userSpaceOnUse" x="557" y="23" width="17" height="17">
<rect x="557.5" y="23.5" width="16" height="16" fill="#D9D9D9"/>
</mask>
<g mask="url(#mask1_1254_555)">
<path d="M568.167 38.1663L561.5 31.4997L568.167 24.833L569.35 26.0163L563.867 31.4997L569.35 36.983L568.167 38.1663Z" fill="#200944"/>
</g>
</g>
<path d="M10 73C10 67.4772 14.4772 63 20 63H579C584.523 63 589 67.4772 589 73V106H10V73Z" fill="white"/>
<rect x="25" y="78.5" width="12" height="12" rx="6" fill="#99F6C4"/>
<path d="M49.32 90.58H57.44V91.5H47.82V90.78L53.74 84.9C55.4 83.24 55.72 82.26 55.72 81.2C55.72 79.44 54.5 78.34 52.18 78.34C50.42 78.34 49.12 78.86 48.16 79.96L47.44 79.32C48.5 78.1 50.16 77.4 52.26 77.4C55 77.4 56.76 78.82 56.76 81.1C56.76 82.44 56.32 83.62 54.48 85.44L49.32 90.58ZM64.7714 91.6C61.5514 91.6 59.2914 88.88 59.2914 84.5C59.2914 80.12 61.5514 77.4 64.7714 77.4C67.9914 77.4 70.2514 80.12 70.2514 84.5C70.2514 88.88 67.9914 91.6 64.7714 91.6ZM64.7714 90.66C67.4114 90.66 69.2314 88.4 69.2314 84.5C69.2314 80.6 67.4114 78.34 64.7714 78.34C62.1314 78.34 60.3114 80.6 60.3114 84.5C60.3114 88.4 62.1314 90.66 64.7714 90.66ZM70.5048 93.5L77.1048 74.66H78.0248L71.4248 93.5H70.5048ZM83.5605 91.6C80.3405 91.6 78.0805 88.88 78.0805 84.5C78.0805 80.12 80.3405 77.4 83.5605 77.4C86.7805 77.4 89.0405 80.12 89.0405 84.5C89.0405 88.88 86.7805 91.6 83.5605 91.6ZM83.5605 90.66C86.2005 90.66 88.0205 88.4 88.0205 84.5C88.0205 80.6 86.2005 78.34 83.5605 78.34C80.9205 78.34 79.1005 80.6 79.1005 84.5C79.1005 88.4 80.9205 90.66 83.5605 90.66ZM94.6645 83.36C98.9245 83.36 100.485 84.98 100.485 87.46C100.485 89.8 98.8645 91.6 95.5845 91.6C93.5445 91.6 91.6445 90.84 90.6645 89.72L91.1845 88.94C92.0245 89.92 93.6845 90.66 95.5645 90.66C98.1445 90.66 99.4645 89.36 99.4645 87.5C99.4645 85.5 98.2445 84.28 94.4445 84.28H91.6045L92.3445 77.5H99.7645V78.42H93.2045L92.6645 83.36H94.6645ZM100.837 93.5L107.437 74.66H108.357L101.757 93.5H100.837ZM110.023 90.58H118.143V91.5H108.523V90.78L114.443 84.9C116.103 83.24 116.423 82.26 116.423 81.2C116.423 79.44 115.203 78.34 112.883 78.34C111.123 78.34 109.823 78.86 108.863 79.96L108.143 79.32C109.203 78.1 110.863 77.4 112.963 77.4C115.703 77.4 117.463 78.82 117.463 81.1C117.463 82.44 117.023 83.62 115.183 85.44L110.023 90.58ZM125.475 91.6C122.255 91.6 119.995 88.88 119.995 84.5C119.995 80.12 122.255 77.4 125.475 77.4C128.695 77.4 130.955 80.12 130.955 84.5C130.955 88.88 128.695 91.6 125.475 91.6ZM125.475 90.66C128.115 90.66 129.935 88.4 129.935 84.5C129.935 80.6 128.115 78.34 125.475 78.34C122.835 78.34 121.015 80.6 121.015 84.5C121.015 88.4 122.835 90.66 125.475 90.66ZM134.359 90.58H142.479V91.5H132.859V90.78L138.779 84.9C140.439 83.24 140.759 82.26 140.759 81.2C140.759 79.44 139.539 78.34 137.219 78.34C135.459 78.34 134.159 78.86 133.199 79.96L132.479 79.32C133.539 78.1 135.199 77.4 137.299 77.4C140.039 77.4 141.799 78.82 141.799 81.1C141.799 82.44 141.359 83.62 139.519 85.44L134.359 90.58ZM155.561 86.72V87.62H152.621V91.5H151.621V87.62H143.641V86.88L151.241 77.5H152.381L144.921 86.72H151.641V83.3H152.621V86.72H155.561Z" fill="#200944"/>
<path d="M239.76 77.5H241.76L235.62 91.5H233.64L227.48 77.5H229.64L234.68 89L239.76 77.5ZM252.045 86.26C252.045 86.42 252.025 86.66 252.005 86.84H243.405C243.645 88.7 245.145 89.94 247.245 89.94C248.485 89.94 249.525 89.52 250.305 88.66L251.365 89.9C250.405 91.02 248.945 91.62 247.185 91.62C243.765 91.62 241.485 89.36 241.485 86.2C241.485 83.06 243.745 80.8 246.805 80.8C249.865 80.8 252.045 83 252.045 86.26ZM246.805 82.42C244.965 82.42 243.605 83.66 243.405 85.46H250.205C250.005 83.68 248.665 82.42 246.805 82.42ZM256.551 82.68C257.231 81.44 258.551 80.8 260.411 80.8V82.66C260.251 82.64 260.111 82.64 259.971 82.64C257.911 82.64 256.631 83.9 256.631 86.22V91.5H254.711V80.9H256.551V82.68ZM265.895 91.62C264.135 91.62 262.395 91.08 261.515 90.38L262.315 88.86C263.215 89.5 264.655 89.96 266.035 89.96C267.815 89.96 268.555 89.42 268.555 88.52C268.555 86.14 261.855 88.2 261.855 83.98C261.855 82.08 263.555 80.8 266.275 80.8C267.655 80.8 269.215 81.16 270.135 81.76L269.315 83.28C268.355 82.66 267.295 82.44 266.255 82.44C264.575 82.44 263.755 83.06 263.755 83.9C263.755 86.4 270.475 84.36 270.475 88.48C270.475 90.4 268.715 91.62 265.895 91.62ZM273.835 78.86C273.095 78.86 272.535 78.32 272.535 77.62C272.535 76.92 273.095 76.36 273.835 76.36C274.575 76.36 275.135 76.9 275.135 77.58C275.135 78.3 274.595 78.86 273.835 78.86ZM272.875 91.5V80.9H274.795V91.5H272.875ZM283.001 91.62C279.821 91.62 277.481 89.36 277.481 86.2C277.481 83.04 279.821 80.8 283.001 80.8C286.181 80.8 288.501 83.04 288.501 86.2C288.501 89.36 286.181 91.62 283.001 91.62ZM283.001 89.94C285.041 89.94 286.561 88.46 286.561 86.2C286.561 83.94 285.041 82.48 283.001 82.48C280.961 82.48 279.421 83.94 279.421 86.2C279.421 88.46 280.961 89.94 283.001 89.94ZM296.816 80.8C299.396 80.8 301.216 82.28 301.216 85.4V91.5H299.296V85.62C299.296 83.54 298.256 82.52 296.436 82.52C294.396 82.52 293.076 83.74 293.076 86.04V91.5H291.156V80.9H292.996V82.5C293.776 81.42 295.136 80.8 296.816 80.8ZM309.46 86.84V85.18H314.84V86.84H309.46ZM324.968 89.76H332.148V91.5H322.088V90.14L327.788 84.64C329.268 83.2 329.548 82.32 329.548 81.44C329.548 80 328.528 79.12 326.568 79.12C325.068 79.12 323.848 79.6 322.988 80.64L321.628 79.46C322.708 78.12 324.568 77.34 326.748 77.34C329.668 77.34 331.548 78.84 331.548 81.24C331.548 82.6 331.148 83.82 329.248 85.64L324.968 89.76Z" fill="#200944"/>
<g filter="url(#filter2_d_1254_555)">
<rect x="405" y="70.5" width="141" height="28" rx="14" fill="#200944"/>
<mask id="mask2_1254_555" style="mask-type:alpha" maskUnits="userSpaceOnUse" x="417" y="76" width="16" height="17">
<rect x="417" y="76.5" width="16" height="16" fill="#D9D9D9"/>
</mask>
<g mask="url(#mask2_1254_555)">
<path d="M425.001 87.167L421.668 83.8337L422.601 82.867L424.335 84.6003V79.167H425.668V84.6003L427.401 82.867L428.335 83.8337L425.001 87.167ZM421.001 89.8337C420.635 89.8337 420.321 89.7031 420.06 89.442C419.799 89.1809 419.668 88.867 419.668 88.5003V86.5003H421.001V88.5003H429.001V86.5003H430.335V88.5003C430.335 88.867 430.204 89.1809 429.943 89.442C429.682 89.7031 429.368 89.8337 429.001 89.8337H421.001Z" fill="white"/>
</g>
<path d="M441.904 90.5V80.692H438.064V79.3H447.328V80.692H443.488V90.5H441.904ZM454.356 78.708L451.668 80.788H450.228L452.404 78.708H454.356ZM455.636 86.308C455.636 86.436 455.62 86.628 455.604 86.772H448.724C448.916 88.26 450.116 89.252 451.796 89.252C452.788 89.252 453.62 88.916 454.244 88.228L455.092 89.22C454.324 90.116 453.156 90.596 451.748 90.596C449.012 90.596 447.188 88.788 447.188 86.26C447.188 83.748 448.996 81.94 451.444 81.94C453.892 81.94 455.636 83.7 455.636 86.308ZM451.444 83.236C449.972 83.236 448.884 84.228 448.724 85.668H454.164C454.004 84.244 452.932 83.236 451.444 83.236ZM457.769 90.5V78.628H459.305V90.5H457.769ZM468.621 78.708L465.933 80.788H464.493L466.669 78.708H468.621ZM469.901 86.308C469.901 86.436 469.885 86.628 469.869 86.772H462.989C463.181 88.26 464.381 89.252 466.061 89.252C467.053 89.252 467.885 88.916 468.509 88.228L469.357 89.22C468.589 90.116 467.421 90.596 466.013 90.596C463.277 90.596 461.453 88.788 461.453 86.26C461.453 83.748 463.261 81.94 465.709 81.94C468.157 81.94 469.901 83.7 469.901 86.308ZM465.709 83.236C464.237 83.236 463.149 84.228 462.989 85.668H468.429C468.269 84.244 467.197 83.236 465.709 83.236ZM475.73 90.596C473.122 90.596 471.25 88.788 471.25 86.26C471.25 83.732 473.122 81.94 475.73 81.94C477.25 81.94 478.514 82.564 479.186 83.748L478.018 84.5C477.474 83.668 476.642 83.284 475.714 83.284C474.05 83.284 472.802 84.452 472.802 86.26C472.802 88.1 474.05 89.252 475.714 89.252C476.642 89.252 477.474 88.868 478.018 88.036L479.186 88.772C478.514 89.956 477.25 90.596 475.73 90.596ZM485.593 81.94C487.657 81.94 489.113 83.124 489.113 85.62V90.5H487.577V85.796C487.577 84.132 486.745 83.316 485.289 83.316C483.657 83.316 482.601 84.292 482.601 86.132V90.5H481.065V78.628H482.601V83.22C483.241 82.404 484.297 81.94 485.593 81.94ZM495.044 81.94C497.364 81.94 498.676 83.06 498.676 85.38V90.5H497.22V89.38C496.708 90.148 495.764 90.596 494.436 90.596C492.516 90.596 491.3 89.572 491.3 88.1C491.3 86.74 492.18 85.62 494.708 85.62H497.14V85.316C497.14 84.02 496.388 83.268 494.868 83.268C493.86 83.268 492.836 83.62 492.18 84.18L491.54 83.028C492.42 82.324 493.684 81.94 495.044 81.94ZM494.692 89.412C495.844 89.412 496.756 88.884 497.14 87.908V86.724H494.772C493.252 86.724 492.82 87.316 492.82 88.036C492.82 88.884 493.524 89.412 494.692 89.412ZM502.991 83.444C503.535 82.452 504.591 81.94 506.079 81.94V83.428C505.951 83.412 505.839 83.412 505.727 83.412C504.079 83.412 503.055 84.42 503.055 86.276V90.5H501.519V82.02H502.991V83.444ZM514.55 82.02H516.006V89.348C516.006 92.34 514.486 93.7 511.606 93.7C510.054 93.7 508.486 93.268 507.558 92.436L508.294 91.252C509.078 91.924 510.31 92.356 511.558 92.356C513.558 92.356 514.47 91.428 514.47 89.508V88.836C513.734 89.716 512.63 90.148 511.414 90.148C508.966 90.148 507.11 88.484 507.11 86.036C507.11 83.588 508.966 81.94 511.414 81.94C512.678 81.94 513.83 82.404 514.55 83.332V82.02ZM511.59 88.804C513.286 88.804 514.502 87.668 514.502 86.036C514.502 84.388 513.286 83.284 511.59 83.284C509.878 83.284 508.662 84.388 508.662 86.036C508.662 87.668 509.878 88.804 511.59 88.804ZM526.604 86.308C526.604 86.436 526.588 86.628 526.572 86.772H519.692C519.884 88.26 521.084 89.252 522.764 89.252C523.756 89.252 524.588 88.916 525.212 88.228L526.06 89.22C525.292 90.116 524.124 90.596 522.716 90.596C519.98 90.596 518.156 88.788 518.156 86.26C518.156 83.748 519.964 81.94 522.412 81.94C524.86 81.94 526.604 83.7 526.604 86.308ZM522.412 83.236C520.94 83.236 519.852 84.228 519.692 85.668H525.132C524.972 84.244 523.9 83.236 522.412 83.236ZM530.209 83.444C530.753 82.452 531.809 81.94 533.297 81.94V83.428C533.169 83.412 533.057 83.412 532.945 83.412C531.297 83.412 530.273 84.42 530.273 86.276V90.5H528.737V82.02H530.209V83.444Z" fill="white"/>
</g>
<g filter="url(#filter3_d_1254_555)">
<mask id="mask3_1254_555" style="mask-type:alpha" maskUnits="userSpaceOnUse" x="559" y="76" width="17" height="17">
<rect x="559.5" y="92.5" width="16" height="16" transform="rotate(-90 559.5 92.5)" fill="#D9D9D9"/>
</mask>
<g mask="url(#mask3_1254_555)">
<path d="M574.165 81.8333L567.499 88.5L560.832 81.8333L562.015 80.65L567.499 86.1333L572.982 80.65L574.165 81.8333Z" fill="#200944"/>
</g>
</g>
<path d="M10 106H589V267C589 272.523 584.523 277 579 277H20C14.4772 277 10 272.523 10 267V106Z" fill="white"/>
<g clip-path="url(#clip1_1254_555)">
<path d="M98.3393 117.8H99.9393L95.0273 129H93.4433L88.5152 117.8H90.2433L94.2753 127L98.3393 117.8ZM104.135 129.096C101.591 129.096 99.7189 127.288 99.7189 124.76C99.7189 122.232 101.591 120.44 104.135 120.44C106.679 120.44 108.535 122.232 108.535 124.76C108.535 127.288 106.679 129.096 104.135 129.096ZM104.135 127.752C105.767 127.752 106.983 126.568 106.983 124.76C106.983 122.952 105.767 121.784 104.135 121.784C102.503 121.784 101.271 122.952 101.271 124.76C101.271 126.568 102.503 127.752 104.135 127.752ZM113.091 129.096C111.683 129.096 110.291 128.664 109.587 128.104L110.227 126.888C110.947 127.4 112.099 127.768 113.203 127.768C114.627 127.768 115.219 127.336 115.219 126.616C115.219 124.712 109.859 126.36 109.859 122.984C109.859 121.464 111.219 120.44 113.395 120.44C114.499 120.44 115.747 120.728 116.483 121.208L115.827 122.424C115.059 121.928 114.211 121.752 113.379 121.752C112.035 121.752 111.379 122.248 111.379 122.92C111.379 124.92 116.755 123.288 116.755 126.584C116.755 128.12 115.347 129.096 113.091 129.096ZM124.444 121.944C124.988 120.952 126.044 120.44 127.532 120.44V121.928C127.404 121.912 127.292 121.912 127.18 121.912C125.532 121.912 124.508 122.92 124.508 124.776V129H122.972V120.52H124.444V121.944ZM137.011 124.808C137.011 124.936 136.995 125.128 136.979 125.272H130.099C130.291 126.76 131.491 127.752 133.171 127.752C134.163 127.752 134.995 127.416 135.619 126.728L136.467 127.72C135.699 128.616 134.531 129.096 133.123 129.096C130.387 129.096 128.563 127.288 128.563 124.76C128.563 122.248 130.371 120.44 132.819 120.44C135.267 120.44 137.011 122.2 137.011 124.808ZM132.819 121.736C131.347 121.736 130.259 122.728 130.099 124.168H135.539C135.379 122.744 134.307 121.736 132.819 121.736ZM143.432 127.4L143.912 128.504C143.448 128.904 142.744 129.096 142.056 129.096C140.344 129.096 139.368 128.152 139.368 126.44V121.784H137.928V120.52H139.368V118.664H140.904V120.52H143.336V121.784H140.904V126.376C140.904 127.288 141.384 127.8 142.232 127.8C142.68 127.8 143.112 127.656 143.432 127.4ZM149.119 129.096C146.575 129.096 144.703 127.288 144.703 124.76C144.703 122.232 146.575 120.44 149.119 120.44C151.663 120.44 153.519 122.232 153.519 124.76C153.519 127.288 151.663 129.096 149.119 129.096ZM149.119 127.752C150.751 127.752 151.967 126.568 151.967 124.76C151.967 122.952 150.751 121.784 149.119 121.784C147.487 121.784 146.255 122.952 146.255 124.76C146.255 126.568 147.487 127.752 149.119 127.752ZM162.012 120.52H163.548V129H162.092V127.72C161.468 128.6 160.412 129.096 159.212 129.096C157.02 129.096 155.564 127.896 155.564 125.4V120.52H157.1V125.224C157.1 126.888 157.932 127.72 159.388 127.72C160.988 127.72 162.012 126.728 162.012 124.904V120.52ZM167.944 121.944C168.488 120.952 169.544 120.44 171.032 120.44V121.928C170.904 121.912 170.792 121.912 170.68 121.912C169.032 121.912 168.008 122.92 168.008 124.776V129H166.472V120.52H167.944V121.944ZM175.419 129.096C174.011 129.096 172.619 128.664 171.915 128.104L172.555 126.888C173.275 127.4 174.427 127.768 175.531 127.768C176.955 127.768 177.547 127.336 177.547 126.616C177.547 124.712 172.187 126.36 172.187 122.984C172.187 121.464 173.547 120.44 175.723 120.44C176.827 120.44 178.075 120.728 178.811 121.208L178.155 122.424C177.387 121.928 176.539 121.752 175.707 121.752C174.363 121.752 173.707 122.248 173.707 122.92C173.707 124.92 179.083 123.288 179.083 126.584C179.083 128.12 177.675 129.096 175.419 129.096ZM185.668 122.632C185.076 122.632 184.58 122.168 184.58 121.528C184.58 120.888 185.076 120.44 185.668 120.44C186.244 120.44 186.724 120.888 186.724 121.528C186.724 122.168 186.244 122.632 185.668 122.632ZM185.668 129.096C185.076 129.096 184.58 128.632 184.58 127.992C184.58 127.352 185.076 126.904 185.668 126.904C186.244 126.904 186.724 127.352 186.724 127.992C186.724 128.632 186.244 129.096 185.668 129.096Z" fill="#200944"/>
<rect x="20" y="145" width="236" height="84" rx="7.5" fill="#E7E7E7"/>
<g filter="url(#filter4_d_1254_555)">
<rect x="20" y="239" width="236" height="28" rx="7.5" fill="#200944"/>
<path d="M108.28 257.608H114.808V259H106.68V247.8H114.584V249.192H108.28V252.632H113.896V253.992H108.28V257.608ZM121.703 250.44C123.767 250.44 125.223 251.624 125.223 254.12V259H123.687V254.296C123.687 252.632 122.855 251.816 121.399 251.816C119.767 251.816 118.711 252.792 118.711 254.632V259H117.175V250.52H118.647V251.8C119.271 250.936 120.359 250.44 121.703 250.44ZM133.909 250.52H135.413L131.701 259H130.133L126.421 250.52H128.021L130.933 257.32L133.909 250.52ZM140.244 259.096C137.7 259.096 135.828 257.288 135.828 254.76C135.828 252.232 137.7 250.44 140.244 250.44C142.788 250.44 144.644 252.232 144.644 254.76C144.644 257.288 142.788 259.096 140.244 259.096ZM140.244 257.752C141.876 257.752 143.092 256.568 143.092 254.76C143.092 252.952 141.876 251.784 140.244 251.784C138.612 251.784 137.38 252.952 137.38 254.76C137.38 256.568 138.612 257.752 140.244 257.752ZM152.534 250.52H154.038L149.926 259.848C149.174 261.64 148.198 262.2 146.902 262.2C146.086 262.2 145.254 261.928 144.726 261.416L145.382 260.264C145.798 260.664 146.326 260.888 146.902 260.888C147.638 260.888 148.102 260.552 148.518 259.576L148.79 258.984L145.046 250.52H146.646L149.606 257.304L152.534 250.52ZM162.901 254.808C162.901 254.936 162.885 255.128 162.869 255.272H155.989C156.181 256.76 157.381 257.752 159.061 257.752C160.053 257.752 160.885 257.416 161.509 256.728L162.357 257.72C161.589 258.616 160.421 259.096 159.013 259.096C156.277 259.096 154.453 257.288 154.453 254.76C154.453 252.248 156.261 250.44 158.709 250.44C161.157 250.44 162.901 252.2 162.901 254.808ZM158.709 251.736C157.237 251.736 156.149 252.728 155.989 254.168H161.429C161.269 252.744 160.197 251.736 158.709 251.736ZM166.506 251.944C167.05 250.952 168.106 250.44 169.594 250.44V251.928C169.466 251.912 169.354 251.912 169.242 251.912C167.594 251.912 166.57 252.92 166.57 254.776V259H165.034V250.52H166.506V251.944Z" fill="white"/>
</g>
</g>
<path d="M333.319 129H331.783L331.767 120.84L327.719 127.64H326.983L322.935 120.888V129H321.399V117.8H322.711L327.383 125.672L331.991 117.8H333.303L333.319 129ZM340.088 129.096C337.544 129.096 335.672 127.288 335.672 124.76C335.672 122.232 337.544 120.44 340.088 120.44C342.632 120.44 344.488 122.232 344.488 124.76C344.488 127.288 342.632 129.096 340.088 129.096ZM340.088 127.752C341.72 127.752 342.936 126.568 342.936 124.76C342.936 122.952 341.72 121.784 340.088 121.784C338.456 121.784 337.224 122.952 337.224 124.76C337.224 126.568 338.456 127.752 340.088 127.752ZM353.076 117.128H354.612V129H353.14V127.656C352.452 128.616 351.364 129.096 350.116 129.096C347.636 129.096 345.828 127.352 345.828 124.76C345.828 122.168 347.636 120.44 350.116 120.44C351.316 120.44 352.372 120.888 353.076 121.8V117.128ZM350.244 127.752C351.86 127.752 353.092 126.568 353.092 124.76C353.092 122.952 351.86 121.784 350.244 121.784C348.612 121.784 347.38 122.952 347.38 124.76C347.38 126.568 348.612 127.752 350.244 127.752ZM358.287 118.888C357.695 118.888 357.247 118.456 357.247 117.896C357.247 117.336 357.695 116.888 358.287 116.888C358.879 116.888 359.327 117.32 359.327 117.864C359.327 118.44 358.895 118.888 358.287 118.888ZM357.519 129V120.52H359.055V129H357.519ZM369.683 118.888C369.091 118.888 368.643 118.456 368.643 117.896C368.643 117.336 369.091 116.888 369.683 116.888C370.275 116.888 370.723 117.32 370.723 117.864C370.723 118.44 370.291 118.888 369.683 118.888ZM362.211 119.768C362.211 118.12 363.203 117.032 365.011 117.032C365.667 117.032 366.307 117.192 366.739 117.528L366.275 118.696C365.955 118.456 365.539 118.296 365.091 118.296C364.179 118.296 363.715 118.808 363.715 119.784V120.52H366.179V121.784H363.747V129H362.211V121.784H360.771V120.52H362.211V119.768ZM368.915 129V120.52H370.451V129H368.915ZM377.074 129.096C374.466 129.096 372.594 127.288 372.594 124.76C372.594 122.232 374.466 120.44 377.074 120.44C378.594 120.44 379.858 121.064 380.53 122.248L379.362 123C378.818 122.168 377.986 121.784 377.058 121.784C375.394 121.784 374.146 122.952 374.146 124.76C374.146 126.6 375.394 127.752 377.058 127.752C377.986 127.752 378.818 127.368 379.362 126.536L380.53 127.272C379.858 128.456 378.594 129.096 377.074 129.096ZM385.607 120.44C387.927 120.44 389.239 121.56 389.239 123.88V129H387.783V127.88C387.271 128.648 386.327 129.096 384.999 129.096C383.079 129.096 381.863 128.072 381.863 126.6C381.863 125.24 382.743 124.12 385.271 124.12H387.703V123.816C387.703 122.52 386.951 121.768 385.431 121.768C384.423 121.768 383.399 122.12 382.743 122.68L382.103 121.528C382.983 120.824 384.247 120.44 385.607 120.44ZM385.255 127.912C386.407 127.912 387.319 127.384 387.703 126.408V125.224H385.335C383.815 125.224 383.383 125.816 383.383 126.536C383.383 127.384 384.087 127.912 385.255 127.912ZM396.369 127.4L396.849 128.504C396.385 128.904 395.681 129.096 394.993 129.096C393.281 129.096 392.305 128.152 392.305 126.44V121.784H390.865V120.52H392.305V118.664H393.841V120.52H396.273V121.784H393.841V126.376C393.841 127.288 394.321 127.8 395.169 127.8C395.617 127.8 396.049 127.656 396.369 127.4ZM399.474 118.888C398.882 118.888 398.434 118.456 398.434 117.896C398.434 117.336 398.882 116.888 399.474 116.888C400.066 116.888 400.514 117.32 400.514 117.864C400.514 118.44 400.082 118.888 399.474 118.888ZM398.706 129V120.52H400.242V129H398.706ZM406.807 129.096C404.263 129.096 402.391 127.288 402.391 124.76C402.391 122.232 404.263 120.44 406.807 120.44C409.351 120.44 411.207 122.232 411.207 124.76C411.207 127.288 409.351 129.096 406.807 129.096ZM406.807 127.752C408.439 127.752 409.655 126.568 409.655 124.76C409.655 122.952 408.439 121.784 406.807 121.784C405.175 121.784 403.943 122.952 403.943 124.76C403.943 126.568 405.175 127.752 406.807 127.752ZM417.859 120.44C419.923 120.44 421.379 121.624 421.379 124.12V129H419.843V124.296C419.843 122.632 419.011 121.816 417.555 121.816C415.923 121.816 414.867 122.792 414.867 124.632V129H413.331V120.52H414.803V121.8C415.427 120.936 416.515 120.44 417.859 120.44ZM426.654 129.096C425.246 129.096 423.854 128.664 423.15 128.104L423.79 126.888C424.51 127.4 425.662 127.768 426.766 127.768C428.19 127.768 428.782 127.336 428.782 126.616C428.782 124.712 423.422 126.36 423.422 122.984C423.422 121.464 424.782 120.44 426.958 120.44C428.062 120.44 429.31 120.728 430.046 121.208L429.39 122.424C428.622 121.928 427.774 121.752 426.942 121.752C425.598 121.752 424.942 122.248 424.942 122.92C424.942 124.92 430.318 123.288 430.318 126.584C430.318 128.12 428.91 129.096 426.654 129.096ZM439.622 120.44C441.942 120.44 443.254 121.56 443.254 123.88V129H441.798V127.88C441.286 128.648 440.342 129.096 439.014 129.096C437.094 129.096 435.878 128.072 435.878 126.6C435.878 125.24 436.758 124.12 439.286 124.12H441.718V123.816C441.718 122.52 440.966 121.768 439.446 121.768C438.438 121.768 437.414 122.12 436.758 122.68L436.118 121.528C436.998 120.824 438.262 120.44 439.622 120.44ZM439.27 127.912C440.422 127.912 441.334 127.384 441.718 126.408V125.224H439.35C437.83 125.224 437.398 125.816 437.398 126.536C437.398 127.384 438.102 127.912 439.27 127.912ZM450.593 120.44C453.073 120.44 454.881 122.168 454.881 124.76C454.881 127.368 453.073 129.096 450.593 129.096C449.393 129.096 448.337 128.632 447.633 127.72V132.104H446.097V120.52H447.569V121.864C448.257 120.92 449.345 120.44 450.593 120.44ZM450.465 127.752C452.097 127.752 453.329 126.568 453.329 124.76C453.329 122.968 452.097 121.784 450.465 121.784C448.849 121.784 447.617 122.968 447.617 124.76C447.617 126.568 448.849 127.752 450.465 127.752ZM461.499 120.44C463.979 120.44 465.787 122.168 465.787 124.76C465.787 127.368 463.979 129.096 461.499 129.096C460.299 129.096 459.243 128.632 458.539 127.72V132.104H457.003V120.52H458.475V121.864C459.163 120.92 460.251 120.44 461.499 120.44ZM461.371 127.752C463.003 127.752 464.235 126.568 464.235 124.76C464.235 122.968 463.003 121.784 461.371 121.784C459.755 121.784 458.523 122.968 458.523 124.76C458.523 126.568 459.755 127.752 461.371 127.752ZM471.541 129.096C468.997 129.096 467.125 127.288 467.125 124.76C467.125 122.232 468.997 120.44 471.541 120.44C474.085 120.44 475.941 122.232 475.941 124.76C475.941 127.288 474.085 129.096 471.541 129.096ZM471.541 127.752C473.173 127.752 474.389 126.568 474.389 124.76C474.389 122.952 473.173 121.784 471.541 121.784C469.909 121.784 468.677 122.952 468.677 124.76C468.677 126.568 469.909 127.752 471.541 127.752ZM479.537 121.944C480.081 120.952 481.137 120.44 482.625 120.44V121.928C482.497 121.912 482.385 121.912 482.273 121.912C480.625 121.912 479.601 122.92 479.601 124.776V129H478.065V120.52H479.537V121.944ZM489.15 127.4L489.63 128.504C489.166 128.904 488.462 129.096 487.774 129.096C486.062 129.096 485.086 128.152 485.086 126.44V121.784H483.646V120.52H485.086V118.664H486.622V120.52H489.054V121.784H486.622V126.376C486.622 127.288 487.102 127.8 487.95 127.8C488.398 127.8 488.83 127.656 489.15 127.4ZM497.59 117.208L494.902 119.288H493.462L495.638 117.208H497.59ZM498.87 124.808C498.87 124.936 498.854 125.128 498.838 125.272H491.958C492.15 126.76 493.35 127.752 495.03 127.752C496.022 127.752 496.854 127.416 497.478 126.728L498.326 127.72C497.558 128.616 496.39 129.096 494.982 129.096C492.246 129.096 490.422 127.288 490.422 124.76C490.422 122.248 492.23 120.44 494.678 120.44C497.126 120.44 498.87 122.2 498.87 124.808ZM494.678 121.736C493.206 121.736 492.118 122.728 491.958 124.168H497.398C497.238 122.744 496.166 121.736 494.678 121.736ZM508.667 124.808C508.667 124.936 508.651 125.128 508.635 125.272H501.755C501.947 126.76 503.147 127.752 504.827 127.752C505.819 127.752 506.651 127.416 507.275 126.728L508.123 127.72C507.355 128.616 506.187 129.096 504.779 129.096C502.043 129.096 500.219 127.288 500.219 124.76C500.219 122.248 502.027 120.44 504.475 120.44C506.923 120.44 508.667 122.2 508.667 124.808ZM504.475 121.736C503.003 121.736 501.915 122.728 501.755 124.168H507.195C507.035 122.744 505.963 121.736 504.475 121.736ZM513.232 129.096C511.824 129.096 510.432 128.664 509.728 128.104L510.368 126.888C511.088 127.4 512.24 127.768 513.344 127.768C514.768 127.768 515.36 127.336 515.36 126.616C515.36 124.712 510 126.36 510 122.984C510 121.464 511.36 120.44 513.536 120.44C514.64 120.44 515.888 120.728 516.624 121.208L515.968 122.424C515.2 121.928 514.352 121.752 513.52 121.752C512.176 121.752 511.52 122.248 511.52 122.92C511.52 124.92 516.896 123.288 516.896 126.584C516.896 128.12 515.488 129.096 513.232 129.096ZM523.48 122.632C522.888 122.632 522.392 122.168 522.392 121.528C522.392 120.888 522.888 120.44 523.48 120.44C524.056 120.44 524.536 120.888 524.536 121.528C524.536 122.168 524.056 122.632 523.48 122.632ZM523.48 129.096C522.888 129.096 522.392 128.632 522.392 127.992C522.392 127.352 522.888 126.904 523.48 126.904C524.056 126.904 524.536 127.352 524.536 127.992C524.536 128.632 524.056 129.096 523.48 129.096Z" fill="#200944"/>
<path d="M276.016 158.096C273.472 158.096 271.576 156.284 271.576 153.8C271.576 151.316 273.472 149.504 276.028 149.504C277.324 149.504 278.452 149.948 279.22 150.812L278.44 151.568C277.792 150.884 277 150.572 276.076 150.572C274.18 150.572 272.776 151.94 272.776 153.8C272.776 155.66 274.18 157.028 276.076 157.028C277 157.028 277.792 156.704 278.44 156.02L279.22 156.776C278.452 157.64 277.324 158.096 276.016 158.096ZM283.218 158.072C281.31 158.072 279.906 156.716 279.906 154.82C279.906 152.924 281.31 151.58 283.218 151.58C285.126 151.58 286.518 152.924 286.518 154.82C286.518 156.716 285.126 158.072 283.218 158.072ZM283.218 157.064C284.442 157.064 285.354 156.176 285.354 154.82C285.354 153.464 284.442 152.588 283.218 152.588C281.994 152.588 281.07 153.464 281.07 154.82C281.07 156.176 281.994 157.064 283.218 157.064ZM296.068 151.58C297.616 151.58 298.672 152.468 298.672 154.34V158H297.52V154.472C297.52 153.224 296.92 152.612 295.876 152.612C294.724 152.612 293.968 153.344 293.968 154.724V158H292.816V154.472C292.816 153.224 292.216 152.612 291.172 152.612C290.02 152.612 289.264 153.344 289.264 154.724V158H288.112V151.64H289.216V152.588C289.672 151.94 290.452 151.58 291.412 151.58C292.384 151.58 293.2 151.964 293.62 152.756C294.1 152.036 294.988 151.58 296.068 151.58ZM308.747 151.58C310.295 151.58 311.351 152.468 311.351 154.34V158H310.199V154.472C310.199 153.224 309.599 152.612 308.555 152.612C307.403 152.612 306.647 153.344 306.647 154.724V158H305.495V154.472C305.495 153.224 304.895 152.612 303.851 152.612C302.699 152.612 301.943 153.344 301.943 154.724V158H300.791V151.64H301.895V152.588C302.351 151.94 303.131 151.58 304.091 151.58C305.063 151.58 305.879 151.964 306.299 152.756C306.779 152.036 307.667 151.58 308.747 151.58ZM319.254 154.856C319.254 154.952 319.242 155.096 319.23 155.204H314.07C314.214 156.32 315.114 157.064 316.374 157.064C317.118 157.064 317.742 156.812 318.21 156.296L318.846 157.04C318.27 157.712 317.394 158.072 316.338 158.072C314.286 158.072 312.918 156.716 312.918 154.82C312.918 152.936 314.274 151.58 316.11 151.58C317.946 151.58 319.254 152.9 319.254 154.856ZM316.11 152.552C315.006 152.552 314.19 153.296 314.07 154.376H318.15C318.03 153.308 317.226 152.552 316.11 152.552ZM331.936 149.096H333.088V158H331.984V156.992C331.468 157.712 330.652 158.072 329.716 158.072C327.856 158.072 326.5 156.764 326.5 154.82C326.5 152.876 327.856 151.58 329.716 151.58C330.616 151.58 331.408 151.916 331.936 152.6V149.096ZM329.812 157.064C331.024 157.064 331.948 156.176 331.948 154.82C331.948 153.464 331.024 152.588 329.812 152.588C328.588 152.588 327.664 153.464 327.664 154.82C327.664 156.176 328.588 157.064 329.812 157.064ZM341.016 154.856C341.016 154.952 341.004 155.096 340.992 155.204H335.832C335.976 156.32 336.876 157.064 338.136 157.064C338.88 157.064 339.504 156.812 339.972 156.296L340.608 157.04C340.032 157.712 339.156 158.072 338.1 158.072C336.048 158.072 334.68 156.716 334.68 154.82C334.68 152.936 336.036 151.58 337.872 151.58C339.708 151.58 341.016 152.9 341.016 154.856ZM337.872 152.552C336.768 152.552 335.952 153.296 335.832 154.376H339.912C339.792 153.308 338.988 152.552 337.872 152.552ZM350.571 151.58C352.119 151.58 353.175 152.468 353.175 154.34V158H352.023V154.472C352.023 153.224 351.423 152.612 350.379 152.612C349.227 152.612 348.471 153.344 348.471 154.724V158H347.319V154.472C347.319 153.224 346.719 152.612 345.675 152.612C344.523 152.612 343.767 153.344 343.767 154.724V158H342.615V151.64H343.719V152.588C344.175 151.94 344.955 151.58 345.915 151.58C346.887 151.58 347.703 151.964 348.123 152.756C348.603 152.036 349.491 151.58 350.571 151.58ZM357.611 151.58C359.351 151.58 360.335 152.42 360.335 154.16V158H359.243V157.16C358.859 157.736 358.151 158.072 357.155 158.072C355.715 158.072 354.803 157.304 354.803 156.2C354.803 155.18 355.463 154.34 357.359 154.34H359.183V154.112C359.183 153.14 358.619 152.576 357.479 152.576C356.723 152.576 355.955 152.84 355.463 153.26L354.983 152.396C355.643 151.868 356.591 151.58 357.611 151.58ZM357.347 157.184C358.211 157.184 358.895 156.788 359.183 156.056V155.168H357.407C356.267 155.168 355.943 155.612 355.943 156.152C355.943 156.788 356.471 157.184 357.347 157.184ZM365.863 151.58C367.411 151.58 368.503 152.468 368.503 154.34V158H367.351V154.472C367.351 153.224 366.727 152.612 365.635 152.612C364.411 152.612 363.619 153.344 363.619 154.724V158H362.467V151.64H363.571V152.6C364.039 151.952 364.855 151.58 365.863 151.58ZM375.518 149.096H376.67V158H375.566V156.992C375.05 157.712 374.234 158.072 373.298 158.072C371.438 158.072 370.082 156.764 370.082 154.82C370.082 152.876 371.438 151.58 373.298 151.58C374.198 151.58 374.99 151.916 375.518 152.6V149.096ZM373.394 157.064C374.606 157.064 375.53 156.176 375.53 154.82C375.53 153.464 374.606 152.588 373.394 152.588C372.17 152.588 371.246 153.464 371.246 154.82C371.246 156.176 372.17 157.064 373.394 157.064ZM383.638 149.156L381.622 150.716H380.542L382.174 149.156H383.638ZM384.598 154.856C384.598 154.952 384.586 155.096 384.574 155.204H379.414C379.558 156.32 380.458 157.064 381.718 157.064C382.462 157.064 383.086 156.812 383.554 156.296L384.19 157.04C383.614 157.712 382.738 158.072 381.682 158.072C379.63 158.072 378.262 156.716 378.262 154.82C378.262 152.936 379.618 151.58 381.454 151.58C383.29 151.58 384.598 152.9 384.598 154.856ZM381.454 152.552C380.35 152.552 379.534 153.296 379.414 154.376H383.494C383.374 153.308 382.57 152.552 381.454 152.552ZM386.485 156.428C386.941 156.428 387.265 156.776 387.265 157.244C387.265 157.484 387.217 157.664 387.061 158.108L386.497 159.776H385.741L386.185 157.988C385.885 157.88 385.681 157.604 385.681 157.244C385.681 156.764 386.029 156.428 386.485 156.428ZM395.787 150.416C395.343 150.416 395.007 150.092 395.007 149.672C395.007 149.252 395.343 148.916 395.787 148.916C396.231 148.916 396.567 149.24 396.567 149.648C396.567 150.08 396.243 150.416 395.787 150.416ZM394.335 160.4C393.807 160.4 393.279 160.28 392.955 160.016L393.327 159.128C393.555 159.32 393.891 159.428 394.263 159.428C394.875 159.428 395.211 159.044 395.211 158.312V151.64H396.363V158.288C396.363 159.584 395.643 160.4 394.335 160.4ZM398.297 152.84L398.225 149.6H399.233L399.149 152.84H398.297ZM403.396 151.58C405.136 151.58 406.12 152.42 406.12 154.16V158H405.028V157.16C404.644 157.736 403.936 158.072 402.94 158.072C401.5 158.072 400.588 157.304 400.588 156.2C400.588 155.18 401.248 154.34 403.144 154.34H404.968V154.112C404.968 153.14 404.404 152.576 403.264 152.576C402.508 152.576 401.74 152.84 401.248 153.26L400.768 152.396C401.428 151.868 402.376 151.58 403.396 151.58ZM403.132 157.184C403.996 157.184 404.68 156.788 404.968 156.056V155.168H403.192C402.052 155.168 401.728 155.612 401.728 156.152C401.728 156.788 402.256 157.184 403.132 157.184ZM408.828 150.416C408.384 150.416 408.048 150.092 408.048 149.672C408.048 149.252 408.384 148.916 408.828 148.916C409.272 148.916 409.608 149.24 409.608 149.648C409.608 150.08 409.284 150.416 408.828 150.416ZM408.252 158V151.64H409.404V158H408.252ZM418.942 152.708C419.35 151.964 420.142 151.58 421.258 151.58V152.696C421.162 152.684 421.078 152.684 420.994 152.684C419.758 152.684 418.99 153.44 418.99 154.832V158H417.838V151.64H418.942V152.708ZM428.367 154.856C428.367 154.952 428.355 155.096 428.343 155.204H423.183C423.327 156.32 424.227 157.064 425.487 157.064C426.231 157.064 426.855 156.812 427.323 156.296L427.959 157.04C427.383 157.712 426.507 158.072 425.451 158.072C423.399 158.072 422.031 156.716 422.031 154.82C422.031 152.936 423.387 151.58 425.223 151.58C427.059 151.58 428.367 152.9 428.367 154.856ZM425.223 152.552C424.119 152.552 423.303 153.296 423.183 154.376H427.263C427.143 153.308 426.339 152.552 425.223 152.552ZM433.183 156.8L433.543 157.628C433.195 157.928 432.667 158.072 432.151 158.072C430.867 158.072 430.135 157.364 430.135 156.08V152.588H429.055V151.64H430.135V150.248H431.287V151.64H433.111V152.588H431.287V156.032C431.287 156.716 431.647 157.1 432.283 157.1C432.619 157.1 432.943 156.992 433.183 156.8ZM436.04 152.708C436.448 151.964 437.24 151.58 438.356 151.58V152.696C438.26 152.684 438.176 152.684 438.092 152.684C436.856 152.684 436.088 153.44 436.088 154.832V158H434.936V151.64H436.04V152.708ZM442.08 151.58C443.82 151.58 444.804 152.42 444.804 154.16V158H443.712V157.16C443.328 157.736 442.62 158.072 441.624 158.072C440.184 158.072 439.272 157.304 439.272 156.2C439.272 155.18 439.932 154.34 441.828 154.34H443.652V154.112C443.652 153.14 443.088 152.576 441.948 152.576C441.192 152.576 440.424 152.84 439.932 153.26L439.452 152.396C440.112 151.868 441.06 151.58 442.08 151.58ZM441.816 157.184C442.68 157.184 443.364 156.788 443.652 156.056V155.168H441.876C440.736 155.168 440.412 155.612 440.412 156.152C440.412 156.788 440.94 157.184 441.816 157.184ZM451.319 151.64H452.447L449.663 158H448.487L445.703 151.64H446.903L449.087 156.74L451.319 151.64ZM455.638 151.58C457.378 151.58 458.362 152.42 458.362 154.16V158H457.27V157.16C456.886 157.736 456.178 158.072 455.182 158.072C453.742 158.072 452.83 157.304 452.83 156.2C452.83 155.18 453.49 154.34 455.386 154.34H457.21V154.112C457.21 153.14 456.646 152.576 455.506 152.576C454.75 152.576 453.982 152.84 453.49 153.26L453.01 152.396C453.67 151.868 454.618 151.58 455.638 151.58ZM455.374 157.184C456.238 157.184 456.922 156.788 457.21 156.056V155.168H455.434C454.294 155.168 453.97 155.612 453.97 156.152C453.97 156.788 454.498 157.184 455.374 157.184ZM461.07 150.416C460.626 150.416 460.29 150.092 460.29 149.672C460.29 149.252 460.626 148.916 461.07 148.916C461.514 148.916 461.85 149.24 461.85 149.648C461.85 150.08 461.526 150.416 461.07 150.416ZM460.494 158V151.64H461.646V158H460.494ZM463.846 158V149.096H464.998V158H463.846ZM467.197 158V149.096H468.349V158H467.197ZM475.337 149.156L473.321 150.716H472.241L473.873 149.156H475.337ZM476.297 154.856C476.297 154.952 476.285 155.096 476.273 155.204H471.113C471.257 156.32 472.157 157.064 473.417 157.064C474.161 157.064 474.785 156.812 475.253 156.296L475.889 157.04C475.313 157.712 474.437 158.072 473.381 158.072C471.329 158.072 469.961 156.716 469.961 154.82C469.961 152.936 471.317 151.58 473.153 151.58C474.989 151.58 476.297 152.9 476.297 154.856ZM473.153 152.552C472.049 152.552 471.233 153.296 471.113 154.376H475.193C475.073 153.308 474.269 152.552 473.153 152.552ZM484.131 158V149.096H485.283V158H484.131ZM493.231 154.856C493.231 154.952 493.219 155.096 493.207 155.204H488.047C488.191 156.32 489.091 157.064 490.351 157.064C491.095 157.064 491.719 156.812 492.187 156.296L492.823 157.04C492.247 157.712 491.371 158.072 490.315 158.072C488.263 158.072 486.895 156.716 486.895 154.82C486.895 152.936 488.251 151.58 490.087 151.58C491.923 151.58 493.231 152.9 493.231 154.856ZM490.087 152.552C488.983 152.552 488.167 153.296 488.047 154.376H492.127C492.007 153.308 491.203 152.552 490.087 152.552ZM496.654 158.072C495.598 158.072 494.554 157.748 494.026 157.328L494.506 156.416C495.046 156.8 495.91 157.076 496.738 157.076C497.806 157.076 498.25 156.752 498.25 156.212C498.25 154.784 494.23 156.02 494.23 153.488C494.23 152.348 495.25 151.58 496.882 151.58C497.71 151.58 498.646 151.796 499.198 152.156L498.706 153.068C498.13 152.696 497.494 152.564 496.87 152.564C495.862 152.564 495.37 152.936 495.37 153.44C495.37 154.94 499.402 153.716 499.402 156.188C499.402 157.34 498.346 158.072 496.654 158.072ZM509.392 151.58C511.132 151.58 512.116 152.42 512.116 154.16V158H511.024V157.16C510.64 157.736 509.932 158.072 508.936 158.072C507.496 158.072 506.584 157.304 506.584 156.2C506.584 155.18 507.244 154.34 509.14 154.34H510.964V154.112C510.964 153.14 510.4 152.576 509.26 152.576C508.504 152.576 507.736 152.84 507.244 153.26L506.764 152.396C507.424 151.868 508.372 151.58 509.392 151.58ZM509.128 157.184C509.992 157.184 510.676 156.788 510.964 156.056V155.168H509.188C508.048 155.168 507.724 155.612 507.724 156.152C507.724 156.788 508.252 157.184 509.128 157.184ZM514.824 150.416C514.38 150.416 514.044 150.092 514.044 149.672C514.044 149.252 514.38 148.916 514.824 148.916C515.268 148.916 515.604 149.24 515.604 149.648C515.604 150.08 515.28 150.416 514.824 150.416ZM514.248 158V151.64H515.4V158H514.248ZM522.592 151.64H523.684V157.136C523.684 159.38 522.544 160.4 520.384 160.4C519.22 160.4 518.044 160.076 517.348 159.452L517.9 158.564C518.488 159.068 519.412 159.392 520.348 159.392C521.848 159.392 522.532 158.696 522.532 157.256V156.752C521.98 157.412 521.152 157.736 520.24 157.736C518.404 157.736 517.012 156.488 517.012 154.652C517.012 152.816 518.404 151.58 520.24 151.58C521.188 151.58 522.052 151.928 522.592 152.624V151.64ZM520.372 156.728C521.644 156.728 522.556 155.876 522.556 154.652C522.556 153.416 521.644 152.588 520.372 152.588C519.088 152.588 518.176 153.416 518.176 154.652C518.176 155.876 519.088 156.728 520.372 156.728ZM530.661 151.64H531.813V158H530.721V157.04C530.253 157.7 529.461 158.072 528.561 158.072C526.917 158.072 525.825 157.172 525.825 155.3V151.64H526.977V155.168C526.977 156.416 527.601 157.04 528.693 157.04C529.893 157.04 530.661 156.296 530.661 154.928V151.64ZM535.83 158.072C534.774 158.072 533.73 157.748 533.202 157.328L533.682 156.416C534.222 156.8 535.086 157.076 535.914 157.076C536.982 157.076 537.426 156.752 537.426 156.212C537.426 154.784 533.406 156.02 533.406 153.488C533.406 152.348 534.426 151.58 536.058 151.58C536.886 151.58 537.822 151.796 538.374 152.156L537.882 153.068C537.306 152.696 536.67 152.564 536.046 152.564C535.038 152.564 534.546 152.936 534.546 153.44C534.546 154.94 538.578 153.716 538.578 156.188C538.578 157.34 537.522 158.072 535.83 158.072ZM549.624 151.58C551.484 151.58 552.84 152.876 552.84 154.82C552.84 156.776 551.484 158.072 549.624 158.072C548.724 158.072 547.932 157.724 547.404 157.04V160.328H546.252V151.64H547.356V152.648C547.872 151.94 548.688 151.58 549.624 151.58ZM549.528 157.064C550.752 157.064 551.676 156.176 551.676 154.82C551.676 153.476 550.752 152.588 549.528 152.588C548.316 152.588 547.392 153.476 547.392 154.82C547.392 156.176 548.316 157.064 549.528 157.064ZM557.156 158.072C555.248 158.072 553.844 156.716 553.844 154.82C553.844 152.924 555.248 151.58 557.156 151.58C559.064 151.58 560.456 152.924 560.456 154.82C560.456 156.716 559.064 158.072 557.156 158.072ZM557.156 157.064C558.38 157.064 559.292 156.176 559.292 154.82C559.292 153.464 558.38 152.588 557.156 152.588C555.932 152.588 555.008 153.464 555.008 154.82C555.008 156.176 555.932 157.064 557.156 157.064ZM566.825 151.64H567.977V158H566.885V157.04C566.417 157.7 565.625 158.072 564.725 158.072C563.081 158.072 561.989 157.172 561.989 155.3V151.64H563.141V155.168C563.141 156.416 563.765 157.04 564.857 157.04C566.057 157.04 566.825 156.296 566.825 154.928V151.64ZM571.274 152.708C571.682 151.964 572.474 151.58 573.59 151.58V152.696C573.494 152.684 573.41 152.684 573.326 152.684C572.09 152.684 571.322 153.44 571.322 154.832V158H570.17V151.64H571.274V152.708ZM272.092 176V167.096H273.244V176H272.092ZM281.192 172.856C281.192 172.952 281.18 173.096 281.168 173.204H276.008C276.152 174.32 277.052 175.064 278.312 175.064C279.056 175.064 279.68 174.812 280.148 174.296L280.784 175.04C280.208 175.712 279.332 176.072 278.276 176.072C276.224 176.072 274.856 174.716 274.856 172.82C274.856 170.936 276.212 169.58 278.048 169.58C279.884 169.58 281.192 170.9 281.192 172.856ZM278.048 170.552C276.944 170.552 276.128 171.296 276.008 172.376H280.088C279.968 171.308 279.164 170.552 278.048 170.552ZM284.615 176.072C283.559 176.072 282.515 175.748 281.987 175.328L282.467 174.416C283.007 174.8 283.871 175.076 284.699 175.076C285.767 175.076 286.211 174.752 286.211 174.212C286.211 172.784 282.191 174.02 282.191 171.488C282.191 170.348 283.211 169.58 284.843 169.58C285.671 169.58 286.607 169.796 287.159 170.156L286.667 171.068C286.091 170.696 285.455 170.564 284.831 170.564C283.823 170.564 283.331 170.936 283.331 171.44C283.331 172.94 287.363 171.716 287.363 174.188C287.363 175.34 286.307 176.072 284.615 176.072ZM295.065 170.708C295.473 169.964 296.265 169.58 297.381 169.58V170.696C297.285 170.684 297.201 170.684 297.117 170.684C295.881 170.684 295.113 171.44 295.113 172.832V176H293.961V169.64H295.065V170.708ZM304.49 172.856C304.49 172.952 304.478 173.096 304.466 173.204H299.306C299.45 174.32 300.35 175.064 301.61 175.064C302.354 175.064 302.978 174.812 303.446 174.296L304.082 175.04C303.506 175.712 302.63 176.072 301.574 176.072C299.522 176.072 298.154 174.716 298.154 172.82C298.154 170.936 299.51 169.58 301.346 169.58C303.182 169.58 304.49 170.9 304.49 172.856ZM301.346 170.552C300.242 170.552 299.426 171.296 299.306 172.376H303.386C303.266 171.308 302.462 170.552 301.346 170.552ZM309.486 169.58C311.034 169.58 312.126 170.468 312.126 172.34V176H310.974V172.472C310.974 171.224 310.35 170.612 309.258 170.612C308.034 170.612 307.242 171.344 307.242 172.724V176H306.09V169.64H307.194V170.6C307.662 169.952 308.478 169.58 309.486 169.58ZM319.141 167.096H320.293V176H319.189V174.992C318.673 175.712 317.857 176.072 316.921 176.072C315.061 176.072 313.705 174.764 313.705 172.82C313.705 170.876 315.061 169.58 316.921 169.58C317.821 169.58 318.613 169.916 319.141 170.6V167.096ZM317.017 175.064C318.229 175.064 319.153 174.176 319.153 172.82C319.153 171.464 318.229 170.588 317.017 170.588C315.793 170.588 314.869 171.464 314.869 172.82C314.869 174.176 315.793 175.064 317.017 175.064ZM323.577 170.708C323.985 169.964 324.777 169.58 325.893 169.58V170.696C325.797 170.684 325.713 170.684 325.629 170.684C324.393 170.684 323.625 171.44 323.625 172.832V176H322.473V169.64H323.577V170.708ZM333.002 172.856C333.002 172.952 332.99 173.096 332.978 173.204H327.818C327.962 174.32 328.862 175.064 330.122 175.064C330.866 175.064 331.49 174.812 331.958 174.296L332.594 175.04C332.018 175.712 331.142 176.072 330.086 176.072C328.034 176.072 326.666 174.716 326.666 172.82C326.666 170.936 328.022 169.58 329.858 169.58C331.694 169.58 333.002 170.9 333.002 172.856ZM329.858 170.552C328.754 170.552 327.938 171.296 327.818 172.376H331.898C331.778 171.308 330.974 170.552 329.858 170.552ZM343.132 169.58C344.992 169.58 346.348 170.876 346.348 172.82C346.348 174.776 344.992 176.072 343.132 176.072C342.232 176.072 341.44 175.724 340.912 175.04V178.328H339.76V169.64H340.864V170.648C341.38 169.94 342.196 169.58 343.132 169.58ZM343.036 175.064C344.26 175.064 345.184 174.176 345.184 172.82C345.184 171.476 344.26 170.588 343.036 170.588C341.824 170.588 340.9 171.476 340.9 172.82C340.9 174.176 341.824 175.064 343.036 175.064ZM347.94 176V167.096H349.092V176H347.94ZM356.067 169.64H357.219V176H356.127V175.04C355.659 175.7 354.867 176.072 353.967 176.072C352.323 176.072 351.231 175.172 351.231 173.3V169.64H352.383V173.168C352.383 174.416 353.007 175.04 354.099 175.04C355.299 175.04 356.067 174.296 356.067 172.928V169.64ZM361.236 176.072C360.18 176.072 359.136 175.748 358.608 175.328L359.088 174.416C359.628 174.8 360.492 175.076 361.32 175.076C362.388 175.076 362.832 174.752 362.832 174.212C362.832 172.784 358.812 174.02 358.812 171.488C358.812 170.348 359.832 169.58 361.464 169.58C362.292 169.58 363.228 169.796 363.78 170.156L363.288 171.068C362.712 170.696 362.076 170.564 361.452 170.564C360.444 170.564 359.952 170.936 359.952 171.44C359.952 172.94 363.984 171.716 363.984 174.188C363.984 175.34 362.928 176.072 361.236 176.072ZM373.354 176.072C371.398 176.072 369.994 174.716 369.994 172.82C369.994 170.924 371.398 169.58 373.354 169.58C374.494 169.58 375.442 170.048 375.946 170.936L375.07 171.5C374.662 170.876 374.038 170.588 373.342 170.588C372.094 170.588 371.158 171.464 371.158 172.82C371.158 174.2 372.094 175.064 373.342 175.064C374.038 175.064 374.662 174.776 375.07 174.152L375.946 174.704C375.442 175.592 374.494 176.072 373.354 176.072ZM377.356 176V167.096H378.508V176H377.356ZM383.023 169.58C384.763 169.58 385.747 170.42 385.747 172.16V176H384.655V175.16C384.271 175.736 383.563 176.072 382.567 176.072C381.127 176.072 380.215 175.304 380.215 174.2C380.215 173.18 380.875 172.34 382.771 172.34H384.595V172.112C384.595 171.14 384.031 170.576 382.891 170.576C382.135 170.576 381.367 170.84 380.875 171.26L380.395 170.396C381.055 169.868 382.003 169.58 383.023 169.58ZM382.759 175.184C383.623 175.184 384.307 174.788 384.595 174.056V173.168H382.819C381.679 173.168 381.355 173.612 381.355 174.152C381.355 174.788 381.883 175.184 382.759 175.184ZM388.455 168.416C388.011 168.416 387.675 168.092 387.675 167.672C387.675 167.252 388.011 166.916 388.455 166.916C388.899 166.916 389.235 167.24 389.235 167.648C389.235 168.08 388.911 168.416 388.455 168.416ZM387.879 176V169.64H389.031V176H387.879ZM392.335 170.708C392.743 169.964 393.535 169.58 394.651 169.58V170.696C394.555 170.684 394.471 170.684 394.387 170.684C393.151 170.684 392.383 171.44 392.383 172.832V176H391.231V169.64H392.335V170.708ZM397.941 176.072C396.885 176.072 395.841 175.748 395.313 175.328L395.793 174.416C396.333 174.8 397.197 175.076 398.025 175.076C399.093 175.076 399.537 174.752 399.537 174.212C399.537 172.784 395.517 174.02 395.517 171.488C395.517 170.348 396.537 169.58 398.169 169.58C398.997 169.58 399.933 169.796 400.485 170.156L399.993 171.068C399.417 170.696 398.781 170.564 398.157 170.564C397.149 170.564 396.657 170.936 396.657 171.44C396.657 172.94 400.689 171.716 400.689 174.188C400.689 175.34 399.633 176.072 397.941 176.072ZM402.405 176.072C401.961 176.072 401.589 175.724 401.589 175.244C401.589 174.764 401.961 174.428 402.405 174.428C402.837 174.428 403.197 174.764 403.197 175.244C403.197 175.724 402.837 176.072 402.405 176.072ZM411.254 176.096C410.258 176.096 409.346 175.664 408.806 174.884L409.502 174.068C409.958 174.716 410.546 175.064 411.254 175.064C412.202 175.064 412.694 174.488 412.694 173.36V168.644H409.658V167.6H413.882V173.3C413.882 175.172 412.97 176.096 411.254 176.096ZM415.894 170.84L415.822 167.6H416.83L416.746 170.84H415.894ZM420.994 169.58C422.734 169.58 423.718 170.42 423.718 172.16V176H422.626V175.16C422.242 175.736 421.534 176.072 420.538 176.072C419.098 176.072 418.186 175.304 418.186 174.2C418.186 173.18 418.846 172.34 420.742 172.34H422.566V172.112C422.566 171.14 422.002 170.576 420.862 170.576C420.106 170.576 419.338 170.84 418.846 171.26L418.366 170.396C419.026 169.868 419.974 169.58 420.994 169.58ZM420.73 175.184C421.594 175.184 422.278 174.788 422.566 174.056V173.168H420.79C419.65 173.168 419.326 173.612 419.326 174.152C419.326 174.788 419.854 175.184 420.73 175.184ZM426.426 168.416C425.982 168.416 425.646 168.092 425.646 167.672C425.646 167.252 425.982 166.916 426.426 166.916C426.87 166.916 427.206 167.24 427.206 167.648C427.206 168.08 426.882 168.416 426.426 168.416ZM425.85 176V169.64H427.002V176H425.85ZM434.36 176V167.096H435.512V176H434.36ZM442.499 167.156L440.483 168.716H439.403L441.035 167.156H442.499ZM443.459 172.856C443.459 172.952 443.447 173.096 443.435 173.204H438.275C438.419 174.32 439.319 175.064 440.579 175.064C441.323 175.064 441.947 174.812 442.415 174.296L443.051 175.04C442.475 175.712 441.599 176.072 440.543 176.072C438.491 176.072 437.123 174.716 437.123 172.82C437.123 170.936 438.479 169.58 440.315 169.58C442.151 169.58 443.459 170.9 443.459 172.856ZM440.315 170.552C439.211 170.552 438.395 171.296 438.275 172.376H442.355C442.235 171.308 441.431 170.552 440.315 170.552ZM450.051 169.64H451.143V175.136C451.143 177.38 450.003 178.4 447.843 178.4C446.679 178.4 445.503 178.076 444.807 177.452L445.359 176.564C445.947 177.068 446.871 177.392 447.807 177.392C449.307 177.392 449.991 176.696 449.991 175.256V174.752C449.439 175.412 448.611 175.736 447.699 175.736C445.863 175.736 444.471 174.488 444.471 172.652C444.471 170.816 445.863 169.58 447.699 169.58C448.647 169.58 449.511 169.928 450.051 170.624V169.64ZM447.831 174.728C449.103 174.728 450.015 173.876 450.015 172.652C450.015 171.416 449.103 170.588 447.831 170.588C446.547 170.588 445.635 171.416 445.635 172.652C445.635 173.876 446.547 174.728 447.831 174.728ZM456.836 168.716H455.756L453.74 167.156H455.204L456.836 168.716ZM459.092 172.856C459.092 172.952 459.08 173.096 459.068 173.204H453.908C454.052 174.32 454.952 175.064 456.212 175.064C456.956 175.064 457.58 174.812 458.048 174.296L458.684 175.04C458.108 175.712 457.232 176.072 456.176 176.072C454.124 176.072 452.756 174.716 452.756 172.82C452.756 170.936 454.112 169.58 455.948 169.58C457.784 169.58 459.092 170.9 459.092 172.856ZM455.948 170.552C454.844 170.552 454.028 171.296 453.908 172.376H457.988C457.868 171.308 457.064 170.552 455.948 170.552ZM461.796 170.708C462.204 169.964 462.996 169.58 464.112 169.58V170.696C464.016 170.684 463.932 170.684 463.848 170.684C462.612 170.684 461.844 171.44 461.844 172.832V176H460.692V169.64H461.796V170.708ZM471.221 172.856C471.221 172.952 471.209 173.096 471.197 173.204H466.037C466.181 174.32 467.081 175.064 468.341 175.064C469.085 175.064 469.709 174.812 470.177 174.296L470.813 175.04C470.237 175.712 469.361 176.072 468.305 176.072C466.253 176.072 464.885 174.716 464.885 172.82C464.885 170.936 466.241 169.58 468.077 169.58C469.913 169.58 471.221 170.9 471.221 172.856ZM468.077 170.552C466.973 170.552 466.157 171.296 466.037 172.376H470.117C469.997 171.308 469.193 170.552 468.077 170.552ZM480.777 169.58C482.325 169.58 483.381 170.468 483.381 172.34V176H482.229V172.472C482.229 171.224 481.629 170.612 480.585 170.612C479.433 170.612 478.677 171.344 478.677 172.724V176H477.525V172.472C477.525 171.224 476.925 170.612 475.881 170.612C474.729 170.612 473.973 171.344 473.973 172.724V176H472.821V169.64H473.925V170.588C474.381 169.94 475.161 169.58 476.121 169.58C477.093 169.58 477.909 169.964 478.329 170.756C478.809 170.036 479.697 169.58 480.777 169.58ZM491.283 172.856C491.283 172.952 491.271 173.096 491.259 173.204H486.099C486.243 174.32 487.143 175.064 488.403 175.064C489.147 175.064 489.771 174.812 490.239 174.296L490.875 175.04C490.299 175.712 489.423 176.072 488.367 176.072C486.315 176.072 484.947 174.716 484.947 172.82C484.947 170.936 486.303 169.58 488.139 169.58C489.975 169.58 491.283 170.9 491.283 172.856ZM488.139 170.552C487.035 170.552 486.219 171.296 486.099 172.376H490.179C490.059 171.308 489.255 170.552 488.139 170.552ZM496.279 169.58C497.827 169.58 498.919 170.468 498.919 172.34V176H497.767V172.472C497.767 171.224 497.143 170.612 496.051 170.612C494.827 170.612 494.035 171.344 494.035 172.724V176H492.883V169.64H493.987V170.6C494.455 169.952 495.271 169.58 496.279 169.58ZM504.267 174.8L504.627 175.628C504.279 175.928 503.751 176.072 503.235 176.072C501.951 176.072 501.219 175.364 501.219 174.08V170.588H500.139V169.64H501.219V168.248H502.371V169.64H504.195V170.588H502.371V174.032C502.371 174.716 502.731 175.1 503.367 175.1C503.703 175.1 504.027 174.992 504.267 174.8ZM513.494 169.58C515.234 169.58 516.218 170.42 516.218 172.16V176H515.126V175.16C514.742 175.736 514.034 176.072 513.038 176.072C511.598 176.072 510.686 175.304 510.686 174.2C510.686 173.18 511.346 172.34 513.242 172.34H515.066V172.112C515.066 171.14 514.502 170.576 513.362 170.576C512.606 170.576 511.838 170.84 511.346 171.26L510.866 170.396C511.526 169.868 512.474 169.58 513.494 169.58ZM513.23 175.184C514.094 175.184 514.778 174.788 515.066 174.056V173.168H513.29C512.15 173.168 511.826 173.612 511.826 174.152C511.826 174.788 512.354 175.184 513.23 175.184ZM523.126 169.64H524.278V176H523.186V175.04C522.718 175.7 521.926 176.072 521.026 176.072C519.382 176.072 518.29 175.172 518.29 173.3V169.64H519.442V173.168C519.442 174.416 520.066 175.04 521.158 175.04C522.358 175.04 523.126 174.296 523.126 172.928V169.64ZM531.463 169.64H532.555V175.136C532.555 177.38 531.415 178.4 529.255 178.4C528.091 178.4 526.915 178.076 526.219 177.452L526.771 176.564C527.359 177.068 528.283 177.392 529.219 177.392C530.719 177.392 531.403 176.696 531.403 175.256V174.752C530.851 175.412 530.023 175.736 529.111 175.736C527.275 175.736 525.883 174.488 525.883 172.652C525.883 170.816 527.275 169.58 529.111 169.58C530.059 169.58 530.923 169.928 531.463 170.624V169.64ZM529.243 174.728C530.515 174.728 531.427 173.876 531.427 172.652C531.427 171.416 530.515 170.588 529.243 170.588C527.959 170.588 527.047 171.416 527.047 172.652C527.047 173.876 527.959 174.728 529.243 174.728ZM542.712 169.58C544.26 169.58 545.316 170.468 545.316 172.34V176H544.164V172.472C544.164 171.224 543.564 170.612 542.52 170.612C541.368 170.612 540.612 171.344 540.612 172.724V176H539.46V172.472C539.46 171.224 538.86 170.612 537.816 170.612C536.664 170.612 535.908 171.344 535.908 172.724V176H534.756V169.64H535.86V170.588C536.316 169.94 537.096 169.58 538.056 169.58C539.028 169.58 539.844 169.964 540.264 170.756C540.744 170.036 541.632 169.58 542.712 169.58ZM553.219 172.856C553.219 172.952 553.207 173.096 553.195 173.204H548.035C548.179 174.32 549.079 175.064 550.339 175.064C551.083 175.064 551.707 174.812 552.175 174.296L552.811 175.04C552.235 175.712 551.359 176.072 550.303 176.072C548.251 176.072 546.883 174.716 546.883 172.82C546.883 170.936 548.239 169.58 550.075 169.58C551.911 169.58 553.219 170.9 553.219 172.856ZM550.075 170.552C548.971 170.552 548.155 171.296 548.035 172.376H552.115C551.995 171.308 551.191 170.552 550.075 170.552ZM558.215 169.58C559.763 169.58 560.855 170.468 560.855 172.34V176H559.703V172.472C559.703 171.224 559.079 170.612 557.987 170.612C556.763 170.612 555.971 171.344 555.971 172.724V176H554.819V169.64H555.923V170.6C556.391 169.952 557.207 169.58 558.215 169.58ZM566.203 174.8L566.563 175.628C566.215 175.928 565.687 176.072 565.171 176.072C563.887 176.072 563.155 175.364 563.155 174.08V170.588H562.075V169.64H563.155V168.248H564.307V169.64H566.131V170.588H564.307V174.032C564.307 174.716 564.667 175.1 565.303 175.1C565.639 175.1 565.963 174.992 566.203 174.8ZM572.532 167.156L570.516 168.716H569.436L571.068 167.156H572.532ZM573.492 172.856C573.492 172.952 573.48 173.096 573.468 173.204H568.308C568.452 174.32 569.352 175.064 570.612 175.064C571.356 175.064 571.98 174.812 572.448 174.296L573.084 175.04C572.508 175.712 571.632 176.072 570.576 176.072C568.524 176.072 567.156 174.716 567.156 172.82C567.156 170.936 568.512 169.58 570.348 169.58C572.184 169.58 573.492 170.9 573.492 172.856ZM570.348 170.552C569.244 170.552 568.428 171.296 568.308 172.376H572.388C572.268 171.308 571.464 170.552 570.348 170.552ZM272.092 194V185.096H273.244V194H272.092ZM281.192 190.856C281.192 190.952 281.18 191.096 281.168 191.204H276.008C276.152 192.32 277.052 193.064 278.312 193.064C279.056 193.064 279.68 192.812 280.148 192.296L280.784 193.04C280.208 193.712 279.332 194.072 278.276 194.072C276.224 194.072 274.856 192.716 274.856 190.82C274.856 188.936 276.212 187.58 278.048 187.58C279.884 187.58 281.192 188.9 281.192 190.856ZM278.048 188.552C276.944 188.552 276.128 189.296 276.008 190.376H280.088C279.968 189.308 279.164 188.552 278.048 188.552ZM284.615 194.072C283.559 194.072 282.515 193.748 281.987 193.328L282.467 192.416C283.007 192.8 283.871 193.076 284.699 193.076C285.767 193.076 286.211 192.752 286.211 192.212C286.211 190.784 282.191 192.02 282.191 189.488C282.191 188.348 283.211 187.58 284.843 187.58C285.671 187.58 286.607 187.796 287.159 188.156L286.667 189.068C286.091 188.696 285.455 188.564 284.831 188.564C283.823 188.564 283.331 188.936 283.331 189.44C283.331 190.94 287.363 189.716 287.363 192.188C287.363 193.34 286.307 194.072 284.615 194.072ZM298.675 187.58C300.535 187.58 301.891 188.876 301.891 190.82C301.891 192.764 300.535 194.072 298.675 194.072C297.739 194.072 296.923 193.712 296.407 192.992V194H295.303V185.096H296.455V188.6C296.983 187.916 297.775 187.58 298.675 187.58ZM298.579 193.064C299.803 193.064 300.727 192.176 300.727 190.82C300.727 189.464 299.803 188.588 298.579 188.588C297.367 188.588 296.443 189.464 296.443 190.82C296.443 192.176 297.367 193.064 298.579 193.064ZM305.741 187.58C307.481 187.58 308.465 188.42 308.465 190.16V194H307.373V193.16C306.989 193.736 306.281 194.072 305.285 194.072C303.845 194.072 302.933 193.304 302.933 192.2C302.933 191.18 303.593 190.34 305.489 190.34H307.313V190.112C307.313 189.14 306.749 188.576 305.609 188.576C304.853 188.576 304.085 188.84 303.593 189.26L303.113 188.396C303.773 187.868 304.721 187.58 305.741 187.58ZM305.477 193.184C306.341 193.184 307.025 192.788 307.313 192.056V191.168H305.537C304.397 191.168 304.073 191.612 304.073 192.152C304.073 192.788 304.601 193.184 305.477 193.184ZM312.42 194.072C311.364 194.072 310.32 193.748 309.792 193.328L310.272 192.416C310.812 192.8 311.676 193.076 312.504 193.076C313.572 193.076 314.016 192.752 314.016 192.212C314.016 190.784 309.996 192.02 309.996 189.488C309.996 188.348 311.016 187.58 312.648 187.58C313.476 187.58 314.412 187.796 314.964 188.156L314.472 189.068C313.896 188.696 313.26 188.564 312.636 188.564C311.628 188.564 311.136 188.936 311.136 189.44C311.136 190.94 315.168 189.716 315.168 192.188C315.168 193.34 314.112 194.072 312.42 194.072ZM318.432 194.072C317.376 194.072 316.332 193.748 315.804 193.328L316.284 192.416C316.824 192.8 317.688 193.076 318.516 193.076C319.584 193.076 320.028 192.752 320.028 192.212C320.028 190.784 316.008 192.02 316.008 189.488C316.008 188.348 317.028 187.58 318.66 187.58C319.488 187.58 320.424 187.796 320.976 188.156L320.484 189.068C319.908 188.696 319.272 188.564 318.648 188.564C317.64 188.564 317.148 188.936 317.148 189.44C317.148 190.94 321.18 189.716 321.18 192.188C321.18 193.34 320.124 194.072 318.432 194.072ZM328.368 190.856C328.368 190.952 328.356 191.096 328.344 191.204H323.184C323.328 192.32 324.228 193.064 325.488 193.064C326.232 193.064 326.856 192.812 327.324 192.296L327.96 193.04C327.384 193.712 326.508 194.072 325.452 194.072C323.4 194.072 322.032 192.716 322.032 190.82C322.032 188.936 323.388 187.58 325.224 187.58C327.06 187.58 328.368 188.9 328.368 190.856ZM325.224 188.552C324.12 188.552 323.304 189.296 323.184 190.376H327.264C327.144 189.308 326.34 188.552 325.224 188.552ZM331.792 194.072C330.736 194.072 329.692 193.748 329.164 193.328L329.644 192.416C330.184 192.8 331.048 193.076 331.876 193.076C332.944 193.076 333.388 192.752 333.388 192.212C333.388 190.784 329.368 192.02 329.368 189.488C329.368 188.348 330.388 187.58 332.02 187.58C332.848 187.58 333.784 187.796 334.336 188.156L333.844 189.068C333.268 188.696 332.632 188.564 332.008 188.564C331 188.564 330.508 188.936 330.508 189.44C330.508 190.94 334.54 189.716 334.54 192.188C334.54 193.34 333.484 194.072 331.792 194.072ZM345.852 187.58C347.712 187.58 349.068 188.876 349.068 190.82C349.068 192.776 347.712 194.072 345.852 194.072C344.952 194.072 344.16 193.724 343.632 193.04V196.328H342.48V187.64H343.584V188.648C344.1 187.94 344.916 187.58 345.852 187.58ZM345.756 193.064C346.98 193.064 347.904 192.176 347.904 190.82C347.904 189.476 346.98 188.588 345.756 188.588C344.544 188.588 343.62 189.476 343.62 190.82C343.62 192.176 344.544 193.064 345.756 193.064ZM353.384 194.072C351.476 194.072 350.072 192.716 350.072 190.82C350.072 188.924 351.476 187.58 353.384 187.58C355.292 187.58 356.684 188.924 356.684 190.82C356.684 192.716 355.292 194.072 353.384 194.072ZM353.384 193.064C354.608 193.064 355.52 192.176 355.52 190.82C355.52 189.464 354.608 188.588 353.384 188.588C352.16 188.588 351.236 189.464 351.236 190.82C351.236 192.176 352.16 193.064 353.384 193.064ZM363.053 187.64H364.205V194H363.113V193.04C362.645 193.7 361.853 194.072 360.953 194.072C359.309 194.072 358.217 193.172 358.217 191.3V187.64H359.369V191.168C359.369 192.416 359.993 193.04 361.085 193.04C362.285 193.04 363.053 192.296 363.053 190.928V187.64ZM367.502 188.708C367.91 187.964 368.702 187.58 369.818 187.58V188.696C369.722 188.684 369.638 188.684 369.554 188.684C368.318 188.684 367.55 189.44 367.55 190.832V194H366.398V187.64H367.502V188.708ZM382.608 185.156L380.592 186.716H379.512L381.144 185.156H382.608ZM383.568 190.856C383.568 190.952 383.556 191.096 383.544 191.204H378.384C378.528 192.32 379.428 193.064 380.688 193.064C381.432 193.064 382.056 192.812 382.524 192.296L383.16 193.04C382.584 193.712 381.708 194.072 380.652 194.072C378.6 194.072 377.232 192.716 377.232 190.82C377.232 188.936 378.588 187.58 380.424 187.58C382.26 187.58 383.568 188.9 383.568 190.856ZM380.424 188.552C379.32 188.552 378.504 189.296 378.384 190.376H382.464C382.344 189.308 381.54 188.552 380.424 188.552ZM390.064 187.64H391.168V196.328H390.016V193.04C389.488 193.724 388.696 194.072 387.796 194.072C385.936 194.072 384.58 192.776 384.58 190.82C384.58 188.876 385.936 187.58 387.796 187.58C388.732 187.58 389.548 187.94 390.064 188.648V187.64ZM387.892 193.064C389.104 193.064 390.028 192.176 390.028 190.82C390.028 189.476 389.104 188.588 387.892 188.588C386.668 188.588 385.744 189.476 385.744 190.82C385.744 192.176 386.668 193.064 387.892 193.064ZM398.124 187.64H399.276V194H398.184V193.04C397.716 193.7 396.924 194.072 396.024 194.072C394.38 194.072 393.288 193.172 393.288 191.3V187.64H394.44V191.168C394.44 192.416 395.064 193.04 396.156 193.04C397.356 193.04 398.124 192.296 398.124 190.928V187.64ZM402.045 186.416C401.601 186.416 401.265 186.092 401.265 185.672C401.265 185.252 401.601 184.916 402.045 184.916C402.489 184.916 402.825 185.24 402.825 185.648C402.825 186.08 402.501 186.416 402.045 186.416ZM401.469 194V187.64H402.621V194H401.469ZM404.82 194V185.096H405.972V194H404.82ZM408.748 186.416C408.304 186.416 407.968 186.092 407.968 185.672C407.968 185.252 408.304 184.916 408.748 184.916C409.192 184.916 409.528 185.24 409.528 185.648C409.528 186.08 409.204 186.416 408.748 186.416ZM408.172 194V187.64H409.324V194H408.172ZM414.895 187.58C416.755 187.58 418.111 188.876 418.111 190.82C418.111 192.764 416.755 194.072 414.895 194.072C413.959 194.072 413.143 193.712 412.627 192.992V194H411.523V185.096H412.675V188.6C413.203 187.916 413.995 187.58 414.895 187.58ZM414.799 193.064C416.023 193.064 416.947 192.176 416.947 190.82C416.947 189.464 416.023 188.588 414.799 188.588C413.587 188.588 412.663 189.464 412.663 190.82C412.663 192.176 413.587 193.064 414.799 193.064ZM420.807 188.708C421.215 187.964 422.007 187.58 423.123 187.58V188.696C423.027 188.684 422.943 188.684 422.859 188.684C421.623 188.684 420.855 189.44 420.855 190.832V194H419.703V187.64H420.807V188.708ZM430.232 190.856C430.232 190.952 430.22 191.096 430.208 191.204H425.048C425.192 192.32 426.092 193.064 427.352 193.064C428.096 193.064 428.72 192.812 429.188 192.296L429.824 193.04C429.248 193.712 428.372 194.072 427.316 194.072C425.264 194.072 423.896 192.716 423.896 190.82C423.896 188.936 425.252 187.58 427.088 187.58C428.924 187.58 430.232 188.9 430.232 190.856ZM427.088 188.552C425.984 188.552 425.168 189.296 425.048 190.376H429.128C429.008 189.308 428.204 188.552 427.088 188.552ZM432.936 188.708C433.344 187.964 434.136 187.58 435.252 187.58V188.696C435.156 188.684 435.072 188.684 434.988 188.684C433.752 188.684 432.984 189.44 432.984 190.832V194H431.832V187.64H432.936V188.708ZM443.254 194V185.096H444.406V194H443.254ZM452.354 190.856C452.354 190.952 452.342 191.096 452.33 191.204H447.17C447.314 192.32 448.214 193.064 449.474 193.064C450.218 193.064 450.842 192.812 451.31 192.296L451.946 193.04C451.37 193.712 450.494 194.072 449.438 194.072C447.386 194.072 446.018 192.716 446.018 190.82C446.018 188.936 447.374 187.58 449.21 187.58C451.046 187.58 452.354 188.9 452.354 190.856ZM449.21 188.552C448.106 188.552 447.29 189.296 447.17 190.376H451.25C451.13 189.308 450.326 188.552 449.21 188.552ZM463.67 192.8L464.03 193.628C463.682 193.928 463.154 194.072 462.638 194.072C461.354 194.072 460.622 193.364 460.622 192.08V188.588H459.542V187.64H460.622V186.248H461.774V187.64H463.598V188.588H461.774V192.032C461.774 192.716 462.134 193.1 462.77 193.1C463.106 193.1 463.43 192.992 463.67 192.8ZM467.936 194.072C466.028 194.072 464.624 192.716 464.624 190.82C464.624 188.924 466.028 187.58 467.936 187.58C469.844 187.58 471.236 188.924 471.236 190.82C471.236 192.716 469.844 194.072 467.936 194.072ZM467.936 193.064C469.16 193.064 470.072 192.176 470.072 190.82C470.072 189.464 469.16 188.588 467.936 188.588C466.712 188.588 465.788 189.464 465.788 190.82C465.788 192.176 466.712 193.064 467.936 193.064ZM477.605 187.64H478.757V194H477.665V193.04C477.197 193.7 476.405 194.072 475.505 194.072C473.861 194.072 472.769 193.172 472.769 191.3V187.64H473.921V191.168C473.921 192.416 474.545 193.04 475.637 193.04C476.837 193.04 477.605 192.296 477.605 190.928V187.64ZM484.166 192.8L484.526 193.628C484.178 193.928 483.65 194.072 483.134 194.072C481.85 194.072 481.118 193.364 481.118 192.08V188.588H480.038V187.64H481.118V186.248H482.27V187.64H484.094V188.588H482.27V192.032C482.27 192.716 482.63 193.1 483.266 193.1C483.602 193.1 483.926 192.992 484.166 192.8ZM486.312 194.072C485.868 194.072 485.496 193.724 485.496 193.244C485.496 192.764 485.868 192.428 486.312 192.428C486.744 192.428 487.104 192.764 487.104 193.244C487.104 193.724 486.744 194.072 486.312 194.072ZM496.503 194.096C495.507 194.096 494.595 193.664 494.055 192.884L494.751 192.068C495.207 192.716 495.795 193.064 496.503 193.064C497.451 193.064 497.943 192.488 497.943 191.36V186.644H494.907V185.6H499.131V191.3C499.131 193.172 498.219 194.096 496.503 194.096ZM501.144 188.84L501.072 185.6H502.08L501.996 188.84H501.144ZM509.675 190.856C509.675 190.952 509.663 191.096 509.651 191.204H504.491C504.635 192.32 505.535 193.064 506.795 193.064C507.539 193.064 508.163 192.812 508.631 192.296L509.267 193.04C508.691 193.712 507.815 194.072 506.759 194.072C504.707 194.072 503.339 192.716 503.339 190.82C503.339 188.936 504.695 187.58 506.531 187.58C508.367 187.58 509.675 188.9 509.675 190.856ZM506.531 188.552C505.427 188.552 504.611 189.296 504.491 190.376H508.571C508.451 189.308 507.647 188.552 506.531 188.552ZM513.099 194.072C512.043 194.072 510.999 193.748 510.471 193.328L510.951 192.416C511.491 192.8 512.355 193.076 513.183 193.076C514.251 193.076 514.695 192.752 514.695 192.212C514.695 190.784 510.675 192.02 510.675 189.488C510.675 188.348 511.695 187.58 513.327 187.58C514.155 187.58 515.091 187.796 515.643 188.156L515.151 189.068C514.575 188.696 513.939 188.564 513.315 188.564C512.307 188.564 511.815 188.936 511.815 189.44C511.815 190.94 515.847 189.716 515.847 192.188C515.847 193.34 514.791 194.072 513.099 194.072ZM520.659 187.58C522.519 187.58 523.875 188.876 523.875 190.82C523.875 192.776 522.519 194.072 520.659 194.072C519.759 194.072 518.967 193.724 518.439 193.04V196.328H517.287V187.64H518.391V188.648C518.907 187.94 519.723 187.58 520.659 187.58ZM520.563 193.064C521.787 193.064 522.711 192.176 522.711 190.82C522.711 189.476 521.787 188.588 520.563 188.588C519.351 188.588 518.427 189.476 518.427 190.82C518.427 192.176 519.351 193.064 520.563 193.064ZM528.958 186.716H527.878L525.862 185.156H527.326L528.958 186.716ZM531.214 190.856C531.214 190.952 531.202 191.096 531.19 191.204H526.03C526.174 192.32 527.074 193.064 528.334 193.064C529.078 193.064 529.702 192.812 530.17 192.296L530.806 193.04C530.23 193.712 529.354 194.072 528.298 194.072C526.246 194.072 524.878 192.716 524.878 190.82C524.878 188.936 526.234 187.58 528.07 187.58C529.906 187.58 531.214 188.9 531.214 190.856ZM528.07 188.552C526.966 188.552 526.15 189.296 526.03 190.376H530.11C529.99 189.308 529.186 188.552 528.07 188.552ZM533.918 188.708C534.326 187.964 535.118 187.58 536.234 187.58V188.696C536.138 188.684 536.054 188.684 535.97 188.684C534.734 188.684 533.966 189.44 533.966 190.832V194H532.814V187.64H533.918V188.708ZM543.343 190.856C543.343 190.952 543.331 191.096 543.319 191.204H538.159C538.303 192.32 539.203 193.064 540.463 193.064C541.207 193.064 541.831 192.812 542.299 192.296L542.935 193.04C542.359 193.712 541.483 194.072 540.427 194.072C538.375 194.072 537.007 192.716 537.007 190.82C537.007 188.936 538.363 187.58 540.199 187.58C542.035 187.58 543.343 188.9 543.343 190.856ZM540.199 188.552C539.095 188.552 538.279 189.296 538.159 190.376H542.239C542.119 189.308 541.315 188.552 540.199 188.552ZM556.34 187.64H557.444V196.328H556.292V193.04C555.764 193.724 554.972 194.072 554.072 194.072C552.212 194.072 550.856 192.776 550.856 190.82C550.856 188.876 552.212 187.58 554.072 187.58C555.008 187.58 555.824 187.94 556.34 188.648V187.64ZM554.168 193.064C555.38 193.064 556.304 192.176 556.304 190.82C556.304 189.476 555.38 188.588 554.168 188.588C552.944 188.588 552.02 189.476 552.02 190.82C552.02 192.176 552.944 193.064 554.168 193.064ZM564.399 187.64H565.551V194H564.459V193.04C563.991 193.7 563.199 194.072 562.299 194.072C560.655 194.072 559.563 193.172 559.563 191.3V187.64H560.715V191.168C560.715 192.416 561.339 193.04 562.431 193.04C563.631 193.04 564.399 192.296 564.399 190.928V187.64ZM573.492 190.856C573.492 190.952 573.48 191.096 573.468 191.204H568.308C568.452 192.32 569.352 193.064 570.612 193.064C571.356 193.064 571.98 192.812 572.448 192.296L573.084 193.04C572.508 193.712 571.632 194.072 570.576 194.072C568.524 194.072 567.156 192.716 567.156 190.82C567.156 188.936 568.512 187.58 570.348 187.58C572.184 187.58 573.492 188.9 573.492 190.856ZM570.348 188.552C569.244 188.552 568.428 189.296 568.308 190.376H572.388C572.268 189.308 571.464 188.552 570.348 188.552ZM274.864 212.072C272.908 212.072 271.504 210.716 271.504 208.82C271.504 206.924 272.908 205.58 274.864 205.58C276.004 205.58 276.952 206.048 277.456 206.936L276.58 207.5C276.172 206.876 275.548 206.588 274.852 206.588C273.604 206.588 272.668 207.464 272.668 208.82C272.668 210.2 273.604 211.064 274.852 211.064C275.548 211.064 276.172 210.776 276.58 210.152L277.456 210.704C276.952 211.592 276.004 212.072 274.864 212.072ZM284.602 208.856C284.602 208.952 284.59 209.096 284.578 209.204H279.418C279.562 210.32 280.462 211.064 281.722 211.064C282.466 211.064 283.09 210.812 283.558 210.296L284.194 211.04C283.618 211.712 282.742 212.072 281.686 212.072C279.634 212.072 278.266 210.716 278.266 208.82C278.266 206.936 279.622 205.58 281.458 205.58C283.294 205.58 284.602 206.9 284.602 208.856ZM281.458 206.552C280.354 206.552 279.538 207.296 279.418 208.376H283.498C283.378 207.308 282.574 206.552 281.458 206.552ZM286.201 212V203.096H287.353V212H286.201ZM291.869 205.58C293.609 205.58 294.593 206.42 294.593 208.16V212H293.501V211.16C293.117 211.736 292.409 212.072 291.413 212.072C289.973 212.072 289.061 211.304 289.061 210.2C289.061 209.18 289.721 208.34 291.617 208.34H293.441V208.112C293.441 207.14 292.877 206.576 291.737 206.576C290.981 206.576 290.213 206.84 289.721 207.26L289.241 206.396C289.901 205.868 290.849 205.58 291.869 205.58ZM291.605 211.184C292.469 211.184 293.153 210.788 293.441 210.056V209.168H291.665C290.525 209.168 290.201 209.612 290.201 210.152C290.201 210.788 290.729 211.184 291.605 211.184ZM304.447 205.64H305.575L302.791 212H301.615L298.831 205.64H300.031L302.215 210.74L304.447 205.64ZM309.199 212.072C307.291 212.072 305.887 210.716 305.887 208.82C305.887 206.924 307.291 205.58 309.199 205.58C311.107 205.58 312.499 206.924 312.499 208.82C312.499 210.716 311.107 212.072 309.199 212.072ZM309.199 211.064C310.423 211.064 311.335 210.176 311.335 208.82C311.335 207.464 310.423 206.588 309.199 206.588C307.975 206.588 307.051 207.464 307.051 208.82C307.051 210.176 307.975 211.064 309.199 211.064ZM318.868 205.64H320.02V212H318.928V211.04C318.46 211.7 317.668 212.072 316.768 212.072C315.124 212.072 314.032 211.172 314.032 209.3V205.64H315.184V209.168C315.184 210.416 315.808 211.04 316.9 211.04C318.1 211.04 318.868 210.296 318.868 208.928V205.64ZM324.037 212.072C322.981 212.072 321.937 211.748 321.409 211.328L321.889 210.416C322.429 210.8 323.293 211.076 324.121 211.076C325.189 211.076 325.633 210.752 325.633 210.212C325.633 208.784 321.613 210.02 321.613 207.488C321.613 206.348 322.633 205.58 324.265 205.58C325.093 205.58 326.029 205.796 326.581 206.156L326.089 207.068C325.513 206.696 324.877 206.564 324.253 206.564C323.245 206.564 322.753 206.936 322.753 207.44C322.753 208.94 326.785 207.716 326.785 210.188C326.785 211.34 325.729 212.072 324.037 212.072ZM334.219 212.072C332.263 212.072 330.859 210.716 330.859 208.82C330.859 206.924 332.263 205.58 334.219 205.58C335.359 205.58 336.307 206.048 336.811 206.936L335.935 207.5C335.527 206.876 334.903 206.588 334.207 206.588C332.959 206.588 332.023 207.464 332.023 208.82C332.023 210.2 332.959 211.064 334.207 211.064C334.903 211.064 335.527 210.776 335.935 210.152L336.811 210.704C336.307 211.592 335.359 212.072 334.219 212.072ZM340.933 212.072C339.025 212.072 337.621 210.716 337.621 208.82C337.621 206.924 339.025 205.58 340.933 205.58C342.841 205.58 344.233 206.924 344.233 208.82C344.233 210.716 342.841 212.072 340.933 212.072ZM340.933 211.064C342.157 211.064 343.069 210.176 343.069 208.82C343.069 207.464 342.157 206.588 340.933 206.588C339.709 206.588 338.785 207.464 338.785 208.82C338.785 210.176 339.709 211.064 340.933 211.064ZM349.222 205.58C350.77 205.58 351.862 206.468 351.862 208.34V212H350.71V208.472C350.71 207.224 350.086 206.612 348.994 206.612C347.77 206.612 346.978 207.344 346.978 208.724V212H345.826V205.64H346.93V206.6C347.398 205.952 348.214 205.58 349.222 205.58ZM358.377 205.64H359.505L356.721 212H355.545L352.761 205.64H353.961L356.145 210.74L358.377 205.64ZM361.156 204.416C360.712 204.416 360.376 204.092 360.376 203.672C360.376 203.252 360.712 202.916 361.156 202.916C361.6 202.916 361.936 203.24 361.936 203.648C361.936 204.08 361.612 204.416 361.156 204.416ZM360.58 212V205.64H361.732V212H360.58ZM369.68 208.856C369.68 208.952 369.668 209.096 369.656 209.204H364.496C364.64 210.32 365.54 211.064 366.8 211.064C367.544 211.064 368.168 210.812 368.636 210.296L369.272 211.04C368.696 211.712 367.82 212.072 366.764 212.072C364.712 212.072 363.344 210.716 363.344 208.82C363.344 206.936 364.7 205.58 366.536 205.58C368.372 205.58 369.68 206.9 369.68 208.856ZM366.536 206.552C365.432 206.552 364.616 207.296 364.496 208.376H368.576C368.456 207.308 367.652 206.552 366.536 206.552ZM374.676 205.58C376.224 205.58 377.316 206.468 377.316 208.34V212H376.164V208.472C376.164 207.224 375.54 206.612 374.448 206.612C373.224 206.612 372.432 207.344 372.432 208.724V212H371.28V205.64H372.384V206.6C372.852 205.952 373.668 205.58 374.676 205.58ZM384.331 203.096H385.483V212H384.379V210.992C383.863 211.712 383.047 212.072 382.111 212.072C380.251 212.072 378.895 210.764 378.895 208.82C378.895 206.876 380.251 205.58 382.111 205.58C383.011 205.58 383.803 205.916 384.331 206.6V203.096ZM382.207 211.064C383.419 211.064 384.343 210.176 384.343 208.82C384.343 207.464 383.419 206.588 382.207 206.588C380.983 206.588 380.059 207.464 380.059 208.82C380.059 210.176 380.983 211.064 382.207 211.064ZM388.766 206.708C389.174 205.964 389.966 205.58 391.082 205.58V206.696C390.986 206.684 390.902 206.684 390.818 206.684C389.582 206.684 388.814 207.44 388.814 208.832V212H387.662V205.64H388.766V206.708ZM394.806 205.58C396.546 205.58 397.53 206.42 397.53 208.16V212H396.438V211.16C396.054 211.736 395.346 212.072 394.35 212.072C392.91 212.072 391.998 211.304 391.998 210.2C391.998 209.18 392.658 208.34 394.554 208.34H396.378V208.112C396.378 207.14 395.814 206.576 394.674 206.576C393.918 206.576 393.15 206.84 392.658 207.26L392.178 206.396C392.838 205.868 393.786 205.58 394.806 205.58ZM394.542 211.184C395.406 211.184 396.09 210.788 396.378 210.056V209.168H394.602C393.462 209.168 393.138 209.612 393.138 210.152C393.138 210.788 393.666 211.184 394.542 211.184Z" fill="#200944"/>
<g filter="url(#filter5_d_1254_555)">
<rect x="271" y="239" width="303" height="28" rx="7.5" fill="#200944"/>
<path d="M322.688 259.128C319.296 259.128 316.768 256.712 316.768 253.4C316.768 250.088 319.296 247.672 322.704 247.672C324.432 247.672 325.936 248.264 326.96 249.416L325.92 250.424C325.056 249.512 324 249.096 322.768 249.096C320.24 249.096 318.368 250.92 318.368 253.4C318.368 255.88 320.24 257.704 322.768 257.704C324 257.704 325.056 257.272 325.92 256.36L326.96 257.368C325.936 258.52 324.432 259.128 322.688 259.128ZM336.323 254.808C336.323 254.936 336.307 255.128 336.291 255.272H329.411C329.603 256.76 330.803 257.752 332.483 257.752C333.475 257.752 334.307 257.416 334.931 256.728L335.779 257.72C335.011 258.616 333.843 259.096 332.435 259.096C329.699 259.096 327.875 257.288 327.875 254.76C327.875 252.248 329.683 250.44 332.131 250.44C334.579 250.44 336.323 252.2 336.323 254.808ZM332.131 251.736C330.659 251.736 329.571 252.728 329.411 254.168H334.851C334.691 252.744 333.619 251.736 332.131 251.736ZM342.744 257.4L343.224 258.504C342.76 258.904 342.056 259.096 341.368 259.096C339.656 259.096 338.68 258.152 338.68 256.44V251.784H337.24V250.52H338.68V248.664H340.216V250.52H342.648V251.784H340.216V256.376C340.216 257.288 340.696 257.8 341.544 257.8C341.992 257.8 342.424 257.656 342.744 257.4ZM349.166 257.4L349.646 258.504C349.182 258.904 348.478 259.096 347.79 259.096C346.078 259.096 345.102 258.152 345.102 256.44V251.784H343.662V250.52H345.102V248.664H346.638V250.52H349.07V251.784H346.638V256.376C346.638 257.288 347.118 257.8 347.966 257.8C348.414 257.8 348.846 257.656 349.166 257.4ZM358.886 254.808C358.886 254.936 358.87 255.128 358.854 255.272H351.974C352.166 256.76 353.366 257.752 355.046 257.752C356.038 257.752 356.87 257.416 357.494 256.728L358.342 257.72C357.574 258.616 356.406 259.096 354.998 259.096C352.262 259.096 350.438 257.288 350.438 254.76C350.438 252.248 352.246 250.44 354.694 250.44C357.142 250.44 358.886 252.2 358.886 254.808ZM354.694 251.736C353.222 251.736 352.134 252.728 351.974 254.168H357.414C357.254 252.744 356.182 251.736 354.694 251.736ZM371.315 250.52H372.819L369.107 259H367.539L363.827 250.52H365.427L368.339 257.32L371.315 250.52ZM381.683 254.808C381.683 254.936 381.667 255.128 381.651 255.272H374.771C374.963 256.76 376.163 257.752 377.843 257.752C378.835 257.752 379.667 257.416 380.291 256.728L381.139 257.72C380.371 258.616 379.203 259.096 377.795 259.096C375.059 259.096 373.235 257.288 373.235 254.76C373.235 252.248 375.043 250.44 377.491 250.44C379.939 250.44 381.683 252.2 381.683 254.808ZM377.491 251.736C376.019 251.736 374.931 252.728 374.771 254.168H380.211C380.051 252.744 378.979 251.736 377.491 251.736ZM385.287 251.944C385.831 250.952 386.887 250.44 388.375 250.44V251.928C388.247 251.912 388.135 251.912 388.023 251.912C386.375 251.912 385.351 252.92 385.351 254.776V259H383.815V250.52H385.287V251.944ZM392.763 259.096C391.355 259.096 389.963 258.664 389.259 258.104L389.899 256.888C390.619 257.4 391.771 257.768 392.875 257.768C394.299 257.768 394.891 257.336 394.891 256.616C394.891 254.712 389.531 256.36 389.531 252.984C389.531 251.464 390.891 250.44 393.067 250.44C394.171 250.44 395.419 250.728 396.155 251.208L395.499 252.424C394.731 251.928 393.883 251.752 393.051 251.752C391.707 251.752 391.051 252.248 391.051 252.92C391.051 254.92 396.427 253.288 396.427 256.584C396.427 258.12 395.019 259.096 392.763 259.096ZM399.115 248.888C398.523 248.888 398.075 248.456 398.075 247.896C398.075 247.336 398.523 246.888 399.115 246.888C399.707 246.888 400.155 247.32 400.155 247.864C400.155 248.44 399.723 248.888 399.115 248.888ZM398.347 259V250.52H399.883V259H398.347ZM406.447 259.096C403.903 259.096 402.031 257.288 402.031 254.76C402.031 252.232 403.903 250.44 406.447 250.44C408.991 250.44 410.847 252.232 410.847 254.76C410.847 257.288 408.991 259.096 406.447 259.096ZM406.447 257.752C408.079 257.752 409.295 256.568 409.295 254.76C409.295 252.952 408.079 251.784 406.447 251.784C404.815 251.784 403.583 252.952 403.583 254.76C403.583 256.568 404.815 257.752 406.447 257.752ZM417.5 250.44C419.564 250.44 421.02 251.624 421.02 254.12V259H419.484V254.296C419.484 252.632 418.652 251.816 417.196 251.816C415.564 251.816 414.508 252.792 414.508 254.632V259H412.972V250.52H414.444V251.8C415.068 250.936 416.156 250.44 417.5 250.44ZM438.767 250.44C440.831 250.44 442.239 251.624 442.239 254.12V259H440.703V254.296C440.703 252.632 439.903 251.816 438.511 251.816C436.975 251.816 435.967 252.792 435.967 254.632V259H434.431V254.296C434.431 252.632 433.631 251.816 432.239 251.816C430.703 251.816 429.695 252.792 429.695 254.632V259H428.159V250.52H429.631V251.784C430.239 250.92 431.279 250.44 432.559 250.44C433.855 250.44 434.943 250.952 435.503 252.008C436.143 251.048 437.327 250.44 438.767 250.44ZM452.776 254.808C452.776 254.936 452.76 255.128 452.744 255.272H445.864C446.056 256.76 447.256 257.752 448.936 257.752C449.928 257.752 450.76 257.416 451.384 256.728L452.232 257.72C451.464 258.616 450.296 259.096 448.888 259.096C446.152 259.096 444.328 257.288 444.328 254.76C444.328 252.248 446.136 250.44 448.584 250.44C451.032 250.44 452.776 252.2 452.776 254.808ZM448.584 251.736C447.112 251.736 446.024 252.728 445.864 254.168H451.304C451.144 252.744 450.072 251.736 448.584 251.736ZM462.902 259.096C460.294 259.096 458.422 257.288 458.422 254.76C458.422 252.232 460.294 250.44 462.902 250.44C464.422 250.44 465.686 251.064 466.358 252.248L465.19 253C464.646 252.168 463.814 251.784 462.886 251.784C461.222 251.784 459.974 252.952 459.974 254.76C459.974 256.6 461.222 257.752 462.886 257.752C463.814 257.752 464.646 257.368 465.19 256.536L466.358 257.272C465.686 258.456 464.422 259.096 462.902 259.096ZM471.854 259.096C469.31 259.096 467.438 257.288 467.438 254.76C467.438 252.232 469.31 250.44 471.854 250.44C474.398 250.44 476.254 252.232 476.254 254.76C476.254 257.288 474.398 259.096 471.854 259.096ZM471.854 257.752C473.486 257.752 474.702 256.568 474.702 254.76C474.702 252.952 473.486 251.784 471.854 251.784C470.222 251.784 468.99 252.952 468.99 254.76C468.99 256.568 470.222 257.752 471.854 257.752ZM482.906 250.44C484.97 250.44 486.426 251.624 486.426 254.12V259H484.89V254.296C484.89 252.632 484.058 251.816 482.602 251.816C480.97 251.816 479.914 252.792 479.914 254.632V259H478.378V250.52H479.85V251.8C480.474 250.936 481.562 250.44 482.906 250.44ZM495.112 250.52H496.616L492.904 259H491.336L487.624 250.52H489.224L492.136 257.32L495.112 250.52ZM498.818 248.888C498.226 248.888 497.778 248.456 497.778 247.896C497.778 247.336 498.226 246.888 498.818 246.888C499.41 246.888 499.858 247.32 499.858 247.864C499.858 248.44 499.426 248.888 498.818 248.888ZM498.05 259V250.52H499.586V259H498.05ZM510.183 254.808C510.183 254.936 510.167 255.128 510.151 255.272H503.271C503.463 256.76 504.663 257.752 506.343 257.752C507.335 257.752 508.167 257.416 508.791 256.728L509.639 257.72C508.871 258.616 507.703 259.096 506.295 259.096C503.559 259.096 501.735 257.288 501.735 254.76C501.735 252.248 503.543 250.44 505.991 250.44C508.439 250.44 510.183 252.2 510.183 254.808ZM505.991 251.736C504.519 251.736 503.431 252.728 503.271 254.168H508.711C508.551 252.744 507.479 251.736 505.991 251.736ZM516.843 250.44C518.907 250.44 520.363 251.624 520.363 254.12V259H518.827V254.296C518.827 252.632 517.995 251.816 516.539 251.816C514.907 251.816 513.851 252.792 513.851 254.632V259H512.315V250.52H513.787V251.8C514.411 250.936 515.499 250.44 516.843 250.44ZM527.494 257.4L527.974 258.504C527.51 258.904 526.806 259.096 526.118 259.096C524.406 259.096 523.43 258.152 523.43 256.44V251.784H521.99V250.52H523.43V248.664H524.966V250.52H527.398V251.784H524.966V256.376C524.966 257.288 525.446 257.8 526.294 257.8C526.742 257.8 527.174 257.656 527.494 257.4Z" fill="white"/>
</g>
</g>
<defs>
<filter id="filter0_d_1254_555" x="391" y="4.5" width="171" height="58" filterUnits="userSpaceOnUse" color-interpolation-filters="sRGB">
<feFlood flood-opacity="0" result="BackgroundImageFix"/>
<feColorMatrix in="SourceAlpha" type="matrix" values="0 0 0 0 0 0 0 0 0 0 0 0 0 0 0 0 0 0 127 0" result="hardAlpha"/>
<feOffset dx="1" dy="2"/>
<feGaussianBlur stdDeviation="7.5"/>
<feComposite in2="hardAlpha" operator="out"/>
<feColorMatrix type="matrix" values="0 0 0 0 0 0 0 0 0 0 0 0 0 0 0 0 0 0 0.15 0"/>
<feBlend mode="normal" in2="BackgroundImageFix" result="effect1_dropShadow_1254_555"/>
<feBlend mode="normal" in="SourceGraphic" in2="effect1_dropShadow_1254_555" result="shape"/>
</filter>
<filter id="filter1_d_1254_555" x="539.5" y="4.5" width="54" height="58" filterUnits="userSpaceOnUse" color-interpolation-filters="sRGB">
<feFlood flood-opacity="0" result="BackgroundImageFix"/>
<feColorMatrix in="SourceAlpha" type="matrix" values="0 0 0 0 0 0 0 0 0 0 0 0 0 0 0 0 0 0 127 0" result="hardAlpha"/>
<feOffset dx="1" dy="2"/>
<feGaussianBlur stdDeviation="7.5"/>
<feComposite in2="hardAlpha" operator="out"/>
<feColorMatrix type="matrix" values="0 0 0 0 0 0 0 0 0 0 0 0 0 0 0 0 0 0 0.15 0"/>
<feBlend mode="normal" in2="BackgroundImageFix" result="effect1_dropShadow_1254_555"/>
<feBlend mode="normal" in="SourceGraphic" in2="effect1_dropShadow_1254_555" result="shape"/>
</filter>
<filter id="filter2_d_1254_555" x="391" y="57.5" width="171" height="58" filterUnits="userSpaceOnUse" color-interpolation-filters="sRGB">
<feFlood flood-opacity="0" result="BackgroundImageFix"/>
<feColorMatrix in="SourceAlpha" type="matrix" values="0 0 0 0 0 0 0 0 0 0 0 0 0 0 0 0 0 0 127 0" result="hardAlpha"/>
<feOffset dx="1" dy="2"/>
<feGaussianBlur stdDeviation="7.5"/>
<feComposite in2="hardAlpha" operator="out"/>
<feColorMatrix type="matrix" values="0 0 0 0 0 0 0 0 0 0 0 0 0 0 0 0 0 0 0.15 0"/>
<feBlend mode="normal" in2="BackgroundImageFix" result="effect1_dropShadow_1254_555"/>
<feBlend mode="normal" in="SourceGraphic" in2="effect1_dropShadow_1254_555" result="shape"/>
</filter>
<filter id="filter3_d_1254_555" x="539.5" y="57.5" width="58" height="58" filterUnits="userSpaceOnUse" color-interpolation-filters="sRGB">
<feFlood flood-opacity="0" result="BackgroundImageFix"/>
<feColorMatrix in="SourceAlpha" type="matrix" values="0 0 0 0 0 0 0 0 0 0 0 0 0 0 0 0 0 0 127 0" result="hardAlpha"/>
<feOffset dx="1" dy="2"/>
<feGaussianBlur stdDeviation="7.5"/>
<feComposite in2="hardAlpha" operator="out"/>
<feColorMatrix type="matrix" values="0 0 0 0 0 0 0 0 0 0 0 0 0 0 0 0 0 0 0.15 0"/>
<feBlend mode="normal" in2="BackgroundImageFix" result="effect1_dropShadow_1254_555"/>
<feBlend mode="normal" in="SourceGraphic" in2="effect1_dropShadow_1254_555" result="shape"/>
</filter>
<filter id="filter4_d_1254_555" x="6" y="226" width="266" height="58" filterUnits="userSpaceOnUse" color-interpolation-filters="sRGB">
<feFlood flood-opacity="0" result="BackgroundImageFix"/>
<feColorMatrix in="SourceAlpha" type="matrix" values="0 0 0 0 0 0 0 0 0 0 0 0 0 0 0 0 0 0 127 0" result="hardAlpha"/>
<feOffset dx="1" dy="2"/>
<feGaussianBlur stdDeviation="7.5"/>
<feComposite in2="hardAlpha" operator="out"/>
<feColorMatrix type="matrix" values="0 0 0 0 0 0 0 0 0 0 0 0 0 0 0 0 0 0 0.15 0"/>
<feBlend mode="normal" in2="BackgroundImageFix" result="effect1_dropShadow_1254_555"/>
<feBlend mode="normal" in="SourceGraphic" in2="effect1_dropShadow_1254_555" result="shape"/>
</filter>
<filter id="filter5_d_1254_555" x="257" y="226" width="333" height="58" filterUnits="userSpaceOnUse" color-interpolation-filters="sRGB">
<feFlood flood-opacity="0" result="BackgroundImageFix"/>
<feColorMatrix in="SourceAlpha" type="matrix" values="0 0 0 0 0 0 0 0 0 0 0 0 0 0 0 0 0 0 127 0" result="hardAlpha"/>
<feOffset dx="1" dy="2"/>
<feGaussianBlur stdDeviation="7.5"/>
<feComposite in2="hardAlpha" operator="out"/>
<feColorMatrix type="matrix" values="0 0 0 0 0 0 0 0 0 0 0 0 0 0 0 0 0 0 0.15 0"/>
<feBlend mode="normal" in2="BackgroundImageFix" result="effect1_dropShadow_1254_555"/>
<feBlend mode="normal" in="SourceGraphic" in2="effect1_dropShadow_1254_555" result="shape"/>
</filter>
<clipPath id="clip0_1254_555">
<rect width="599" height="287" rx="15" fill="white"/>
</clipPath>
<clipPath id="clip1_1254_555">
<rect x="20" y="106" width="236" height="161" rx="7.5" fill="white"/>
</clipPath>
</defs>
</svg>
